<svg width="270" height="74" viewBox="0 0 270 74" fill="none" xmlns="http://www.w3.org/2000/svg">
<g clip-path="url(#clip0_1_3)">
<path d="M32.2326 5.04546C24.7213 5.03326 17.4464 7.67106 11.6885 12.4945H52.7714C47.016 7.67021 39.7425 5.03222 32.2326 5.04546ZM32.2326 68.9546C39.673 68.9683 46.8837 66.3788 52.6153 61.6347H11.8446C17.5788 66.378 24.7909 68.9673 32.2326 68.9546ZM47.486 21.2676H60.0913C59.0529 19.4382 57.8379 17.7148 56.4636 16.1222H8.02317C6.00206 18.4515 4.33042 21.0623 3.06072 23.8726H45.6291L47.486 21.2676ZM31.9258 38.8784H0.278084C0.429863 41.5111 0.908982 44.1146 1.70438 46.6289H28.9656L30.844 43.9862H63.466C63.8421 42.3057 64.0815 40.5975 64.1818 38.8784H31.9258ZM39.0466 32.6242H63.9396C63.7041 30.8801 63.3224 29.1589 62.7985 27.4788H1.66133C0.879041 29.9947 0.412587 32.5982 0.272705 35.2292H37.1951L39.0466 32.6242ZM8.11467 58.007H20.7899L22.6414 55.402H58.3958C59.5436 53.7837 60.5365 52.0609 61.3615 50.2565H3.10378C4.38935 53.0694 6.07733 55.6802 8.11467 58.007Z" fill="white"/>
</g>
<path d="M88.5222 33V30.0109L97.426 17.1004H88.9992V12.5213H105.28V15.6377L96.472 28.4209H105.471V33H88.5222ZM115.842 33.318C114.082 33.318 112.524 33.0318 111.167 32.4594C109.832 31.8658 108.782 30.9861 108.019 29.8201C107.277 28.6541 106.906 27.2126 106.906 25.4954C106.906 23.0999 107.585 21.1919 108.941 19.7715C110.298 18.33 112.323 17.6092 115.015 17.6092C117.474 17.6092 119.393 18.2346 120.771 19.4854C122.17 20.7361 122.869 22.4427 122.869 24.605V27.2444H112.407C112.683 28.0499 113.224 28.6223 114.029 28.9615C114.835 29.3007 115.926 29.4703 117.304 29.4703C118.174 29.4703 119.043 29.3961 119.912 29.2477C120.802 29.0781 121.513 28.8873 122.043 28.6753V32.2686C120.559 32.9682 118.492 33.318 115.842 33.318ZM112.407 24.0008H117.718V23.4602C117.718 22.8667 117.527 22.3791 117.145 21.9975C116.785 21.6159 116.138 21.4251 115.206 21.4251C114.167 21.4251 113.436 21.6477 113.012 22.0929C112.609 22.5169 112.407 23.1529 112.407 24.0008ZM125.516 15.9238V11.5992H131.971V15.9238H125.516ZM125.993 33V22.2837H123.799L124.307 17.9272H131.971V33H125.993ZM141.294 33.318C139.28 33.318 137.817 32.8092 136.905 31.7916C135.994 30.7741 135.538 29.3961 135.538 27.6577V22.3473H133.566V17.9272H135.538V14.8427L141.516 13.4117V17.9272H144.982L144.76 22.3473H141.516V27.2126C141.516 27.8485 141.675 28.3043 141.993 28.5799C142.311 28.8343 142.799 28.9615 143.456 28.9615C144.071 28.9615 144.696 28.8555 145.332 28.6435V32.6184C144.209 33.0848 142.862 33.318 141.294 33.318ZM153.533 38.5967C152.791 38.5967 151.985 38.5649 151.116 38.5013C150.247 38.4589 149.42 38.3741 148.636 38.2469C147.872 38.1197 147.236 37.9713 146.728 37.8017V33.9858C147.3 34.1766 147.957 34.3356 148.699 34.4628C149.462 34.59 150.236 34.6854 151.021 34.749C151.805 34.8126 152.526 34.8444 153.183 34.8444C154.306 34.8444 155.186 34.7808 155.822 34.6536C156.479 34.5476 156.808 34.3462 156.808 34.0494C156.808 33.795 156.702 33.6254 156.49 33.5406C156.278 33.477 155.875 33.4452 155.282 33.4452H151.307C149.759 33.4452 148.561 33.2014 147.713 32.7138C146.887 32.205 146.473 31.4524 146.473 30.4561C146.473 29.0569 147.247 28.0817 148.795 27.5305C147.925 27.0854 147.289 26.5236 146.887 25.8452C146.484 25.1668 146.282 24.3082 146.282 23.2695C146.282 21.3191 146.94 19.8881 148.254 18.9766C149.59 18.065 151.508 17.6092 154.01 17.6092C154.54 17.6092 155.133 17.6516 155.79 17.7364C156.448 17.8 156.925 17.8636 157.221 17.9272H163.136L163.009 21.5523H161.005C161.387 22.0399 161.578 22.6335 161.578 23.3331C161.578 24.8806 161.122 26.1102 160.21 27.0218C159.32 27.9121 157.91 28.3573 155.981 28.3573C155.706 28.3573 155.409 28.3467 155.091 28.3255C154.773 28.2831 154.476 28.2513 154.2 28.2301C153.734 28.2725 153.331 28.3573 152.992 28.4845C152.653 28.6117 152.483 28.8237 152.483 29.1205C152.483 29.3325 152.579 29.4809 152.769 29.5657C152.96 29.6293 153.225 29.6611 153.564 29.6611H157.031C158.578 29.6611 159.797 30.0215 160.687 30.7423C161.578 31.463 162.023 32.523 162.023 33.9222C162.023 35.4061 161.334 36.5509 159.956 37.3565C158.578 38.1833 156.437 38.5967 153.533 38.5967ZM154.041 25.082C154.974 25.082 155.621 24.923 155.981 24.605C156.342 24.287 156.522 23.757 156.522 23.0151C156.522 22.2731 156.342 21.7325 155.981 21.3933C155.621 21.0541 154.974 20.8845 154.041 20.8845C153.172 20.8845 152.536 21.0541 152.133 21.3933C151.752 21.7113 151.561 22.2519 151.561 23.0151C151.561 23.7358 151.741 24.2658 152.102 24.605C152.483 24.923 153.13 25.082 154.041 25.082ZM173.012 33.318C171.252 33.318 169.694 33.0318 168.337 32.4594C167.002 31.8658 165.952 30.9861 165.189 29.8201C164.447 28.6541 164.076 27.2126 164.076 25.4954C164.076 23.0999 164.755 21.1919 166.111 19.7715C167.468 18.33 169.493 17.6092 172.185 17.6092C174.644 17.6092 176.563 18.2346 177.941 19.4854C179.34 20.7361 180.039 22.4427 180.039 24.605V27.2444H169.578C169.853 28.0499 170.394 28.6223 171.199 28.9615C172.005 29.3007 173.097 29.4703 174.475 29.4703C175.344 29.4703 176.213 29.3961 177.082 29.2477C177.973 29.0781 178.683 28.8873 179.213 28.6753V32.2686C177.729 32.9682 175.662 33.318 173.012 33.318ZM169.578 24.0008H174.888V23.4602C174.888 22.8667 174.697 22.3791 174.316 21.9975C173.955 21.6159 173.309 21.4251 172.376 21.4251C171.337 21.4251 170.606 21.6477 170.182 22.0929C169.779 22.5169 169.578 23.1529 169.578 24.0008ZM182.686 15.9238V11.5992H189.141V15.9238H182.686ZM183.163 33V22.2837H180.969L181.478 17.9272H189.141V33H183.163ZM197.891 33.318C196.598 33.318 195.379 33.2226 194.235 33.0318C193.111 32.8622 192.221 32.6396 191.563 32.364V28.0711C192.305 28.4103 193.185 28.6753 194.203 28.8661C195.242 29.0569 196.121 29.1523 196.842 29.1523C197.605 29.1523 198.178 29.1311 198.559 29.0887C198.962 29.0463 199.163 28.8661 199.163 28.5481C199.163 28.1877 198.814 27.9121 198.114 27.7213C197.415 27.5305 196.535 27.2549 195.475 26.8946C194.097 26.407 193.069 25.8346 192.39 25.1774C191.712 24.5202 191.373 23.5662 191.373 22.3155C191.373 20.8103 191.966 19.6549 193.153 18.8494C194.341 18.0226 196.206 17.6092 198.75 17.6092C199.725 17.6092 200.732 17.6834 201.771 17.8318C202.81 17.9802 203.626 18.1498 204.22 18.3406V22.5381C203.584 22.2625 202.884 22.0611 202.121 21.9339C201.379 21.8067 200.7 21.7431 200.086 21.7431C199.407 21.7431 198.803 21.7749 198.273 21.8385C197.743 21.9021 197.478 22.0823 197.478 22.3791C197.478 22.7183 197.775 22.9621 198.368 23.1105C198.983 23.2589 199.799 23.492 200.817 23.81C201.962 24.1492 202.852 24.5202 203.488 24.923C204.145 25.3258 204.601 25.8134 204.856 26.3858C205.131 26.9582 205.269 27.6683 205.269 28.5163C205.269 30.0427 204.644 31.2298 203.393 32.0778C202.163 32.9046 200.329 33.318 197.891 33.318ZM213.494 33.318C211.48 33.318 210.017 32.8092 209.106 31.7916C208.194 30.7741 207.738 29.3961 207.738 27.6577V22.3473H205.767V17.9272H207.738V14.8427L213.717 13.4117V17.9272H217.183L216.96 22.3473H213.717V27.2126C213.717 27.8485 213.876 28.3043 214.194 28.5799C214.512 28.8343 214.999 28.9615 215.656 28.9615C216.271 28.9615 216.896 28.8555 217.532 28.6435V32.6184C216.409 33.0848 215.063 33.318 213.494 33.318Z" fill="white"/>
<path d="M89.3398 62.9589V48.2812H94.5716C95.7135 48.2812 96.6595 48.489 97.4096 48.9047C98.1598 49.3204 98.7212 49.889 99.0939 50.6104C99.4665 51.3271 99.6529 52.1346 99.6529 53.0328C99.6529 53.9358 99.4641 54.7481 99.0867 55.4695C98.714 56.1862 98.1502 56.7548 97.3953 57.1753C96.6452 57.5909 95.7016 57.7988 94.5644 57.7988H90.9667V55.9211H94.3637C95.0852 55.9211 95.6705 55.7968 96.1196 55.5484C96.5687 55.2952 96.8984 54.9511 97.1086 54.5164C97.3189 54.0816 97.424 53.5871 97.424 53.0328C97.424 52.4786 97.3189 51.9865 97.1086 51.5565C96.8984 51.1264 96.5664 50.7896 96.1125 50.5459C95.6633 50.3023 95.0709 50.1804 94.3351 50.1804H91.5543V62.9589H89.3398ZM102.077 62.9589V51.9506H104.148V53.6993H104.263C104.464 53.1069 104.817 52.641 105.324 52.3018C105.835 51.9578 106.413 51.7858 107.058 51.7858C107.192 51.7858 107.349 51.7906 107.531 51.8001C107.717 51.8097 107.863 51.8216 107.968 51.836V53.8857C107.882 53.8618 107.729 53.8355 107.51 53.8068C107.29 53.7734 107.07 53.7567 106.85 53.7567C106.344 53.7567 105.892 53.8642 105.496 54.0792C105.104 54.2894 104.793 54.5832 104.564 54.9607C104.335 55.3334 104.22 55.7586 104.22 56.2364V62.9589H102.077ZM114.173 63.1811C113.088 63.1811 112.154 62.9493 111.371 62.4859C110.592 62.0176 109.99 61.3607 109.565 60.515C109.144 59.6645 108.934 58.6683 108.934 57.5264C108.934 56.3988 109.144 55.405 109.565 54.545C109.99 53.685 110.582 53.0137 111.342 52.5311C112.106 52.0486 113 51.8073 114.022 51.8073C114.644 51.8073 115.246 51.91 115.828 52.1155C116.411 52.3209 116.935 52.6434 117.398 53.083C117.861 53.5226 118.227 54.0935 118.494 54.7959C118.762 55.4934 118.896 56.3415 118.896 57.3401V58.0998H110.145V56.4944H116.796C116.796 55.9306 116.681 55.4313 116.452 54.9965C116.223 54.557 115.9 54.2106 115.484 53.9573C115.074 53.7041 114.591 53.5775 114.037 53.5775C113.435 53.5775 112.909 53.7256 112.46 54.0218C112.016 54.3133 111.672 54.6955 111.428 55.1685C111.189 55.6368 111.07 56.1456 111.07 56.6951V57.9493C111.07 58.6851 111.199 59.311 111.457 59.827C111.719 60.343 112.085 60.7372 112.553 61.0095C113.021 61.2771 113.568 61.4109 114.194 61.4109C114.601 61.4109 114.971 61.3535 115.305 61.2389C115.64 61.1194 115.929 60.9426 116.172 60.7085C116.416 60.4744 116.602 60.1853 116.731 59.8413L118.76 60.2068C118.597 60.8041 118.306 61.3272 117.885 61.7764C117.47 62.2207 116.946 62.5671 116.316 62.8156C115.69 63.0592 114.976 63.1811 114.173 63.1811ZM125.394 63.1739C124.506 63.1739 123.713 62.9469 123.015 62.493C122.322 62.0344 121.777 61.3822 121.381 60.5365C120.989 59.686 120.793 58.666 120.793 57.4763C120.793 56.2866 120.992 55.2689 121.388 54.4232C121.789 53.5775 122.339 52.9301 123.036 52.481C123.734 52.0319 124.525 51.8073 125.409 51.8073C126.092 51.8073 126.641 51.922 127.057 52.1513C127.478 52.3759 127.802 52.6386 128.032 52.9397C128.266 53.2407 128.447 53.5058 128.576 53.7352H128.705V48.2812H130.848V62.9589H128.756V61.246H128.576C128.447 61.4801 128.261 61.7477 128.017 62.0487C127.779 62.3497 127.449 62.6125 127.028 62.8371C126.608 63.0616 126.063 63.1739 125.394 63.1739ZM125.867 61.3464C126.484 61.3464 127.005 61.1839 127.43 60.859C127.86 60.5293 128.185 60.073 128.404 59.4901C128.629 58.9072 128.741 58.2288 128.741 57.4548C128.741 56.6903 128.631 56.0214 128.412 55.448C128.192 54.8747 127.869 54.428 127.444 54.1078C127.019 53.7877 126.493 53.6277 125.867 53.6277C125.222 53.6277 124.685 53.7949 124.255 54.1293C123.825 54.4638 123.5 54.9201 123.28 55.4982C123.065 56.0763 122.958 56.7285 122.958 57.4548C122.958 58.1906 123.068 58.8523 123.287 59.44C123.507 60.0277 123.832 60.4935 124.262 60.8375C124.697 61.1767 125.232 61.3464 125.867 61.3464ZM133.907 62.9589V51.9506H136.05V62.9589H133.907ZM134.989 50.2521C134.616 50.2521 134.296 50.1279 134.029 49.8794C133.766 49.6262 133.634 49.3252 133.634 48.9764C133.634 48.6228 133.766 48.3218 134.029 48.0734C134.296 47.8201 134.616 47.6935 134.989 47.6935C135.362 47.6935 135.679 47.8201 135.942 48.0734C136.21 48.3218 136.344 48.6228 136.344 48.9764C136.344 49.3252 136.21 49.6262 135.942 49.8794C135.679 50.1279 135.362 50.2521 134.989 50.2521ZM143.569 63.1811C142.504 63.1811 141.587 62.9398 140.817 62.4572C140.053 61.9699 139.465 61.2986 139.054 60.4433C138.643 59.5881 138.438 58.6086 138.438 57.5049C138.438 56.3869 138.648 55.4003 139.069 54.545C139.489 53.685 140.082 53.0137 140.846 52.5311C141.611 52.0486 142.511 51.8073 143.548 51.8073C144.384 51.8073 145.129 51.9626 145.784 52.2731C146.439 52.5789 146.967 53.0089 147.368 53.5632C147.774 54.1174 148.015 54.7648 148.092 55.5054H146.006C145.892 54.9894 145.629 54.545 145.218 54.1723C144.812 53.7997 144.267 53.6133 143.584 53.6133C142.987 53.6133 142.463 53.771 142.014 54.0863C141.57 54.3969 141.224 54.8413 140.975 55.4194C140.727 55.9927 140.602 56.6712 140.602 57.4548C140.602 58.2574 140.724 58.9502 140.968 59.5331C141.212 60.116 141.556 60.5676 142 60.8877C142.449 61.2078 142.977 61.3679 143.584 61.3679C143.99 61.3679 144.358 61.2938 144.687 61.1457C145.022 60.9928 145.301 60.7754 145.526 60.4935C145.755 60.2116 145.915 59.8724 146.006 59.4758H148.092C148.015 60.1877 147.784 60.8232 147.397 61.3822C147.01 61.9412 146.491 62.3808 145.841 62.7009C145.196 63.021 144.439 63.1811 143.569 63.1811ZM155.522 51.9506V53.6707H149.509V51.9506H155.522ZM151.122 49.3132H153.264V59.7266C153.264 60.1423 153.327 60.4553 153.451 60.6655C153.575 60.871 153.735 61.0119 153.931 61.0883C154.132 61.16 154.349 61.1959 154.583 61.1959C154.755 61.1959 154.906 61.1839 155.035 61.16C155.164 61.1361 155.264 61.117 155.336 61.1027L155.723 62.8729C155.598 62.9207 155.422 62.9684 155.192 63.0162C154.963 63.0688 154.676 63.0975 154.332 63.1022C153.768 63.1118 153.243 63.0114 152.756 62.8012C152.268 62.591 151.874 62.2661 151.573 61.8265C151.272 61.387 151.122 60.8351 151.122 60.171V49.3132ZM157.892 62.9589V51.9506H160.035V62.9589H157.892ZM158.975 50.2521C158.602 50.2521 158.282 50.1279 158.014 49.8794C157.751 49.6262 157.62 49.3252 157.62 48.9764C157.62 48.6228 157.751 48.3218 158.014 48.0734C158.282 47.8201 158.602 47.6935 158.975 47.6935C159.347 47.6935 159.665 47.8201 159.928 48.0734C160.195 48.3218 160.329 48.6228 160.329 48.9764C160.329 49.3252 160.195 49.6262 159.928 49.8794C159.665 50.1279 159.347 50.2521 158.975 50.2521ZM167.555 63.1811C166.523 63.1811 165.622 62.9446 164.853 62.4715C164.084 61.9985 163.487 61.3368 163.061 60.4863C162.636 59.6359 162.424 58.6421 162.424 57.5049C162.424 56.363 162.636 55.3644 163.061 54.5092C163.487 53.6539 164.084 52.9898 164.853 52.5168C165.622 52.0438 166.523 51.8073 167.555 51.8073C168.587 51.8073 169.488 52.0438 170.257 52.5168C171.026 52.9898 171.623 53.6539 172.049 54.5092C172.474 55.3644 172.687 56.363 172.687 57.5049C172.687 58.6421 172.474 59.6359 172.049 60.4863C171.623 61.3368 171.026 61.9985 170.257 62.4715C169.488 62.9446 168.587 63.1811 167.555 63.1811ZM167.562 61.3822C168.231 61.3822 168.785 61.2054 169.225 60.8518C169.665 60.4983 169.989 60.0277 170.2 59.44C170.415 58.8523 170.522 58.2049 170.522 57.4978C170.522 56.7954 170.415 56.1504 170.2 55.5627C169.989 54.9703 169.665 54.4949 169.225 54.1365C168.785 53.7782 168.231 53.599 167.562 53.599C166.889 53.599 166.33 53.7782 165.885 54.1365C165.446 54.4949 165.118 54.9703 164.903 55.5627C164.693 56.1504 164.588 56.7954 164.588 57.4978C164.588 58.2049 164.693 58.8523 164.903 59.44C165.118 60.0277 165.446 60.4983 165.885 60.8518C166.33 61.2054 166.889 61.3822 167.562 61.3822ZM177.221 56.4227V62.9589H175.078V51.9506H177.135V53.7423H177.272C177.525 53.1594 177.921 52.6912 178.461 52.3376C179.006 51.9841 179.692 51.8073 180.518 51.8073C181.268 51.8073 181.925 51.965 182.489 52.2803C183.053 52.5909 183.49 53.0543 183.801 53.6707C184.111 54.287 184.266 55.0491 184.266 55.9569V62.9589H182.123V56.2149C182.123 55.417 181.916 54.7935 181.5 54.3444C181.084 53.8905 180.513 53.6635 179.787 53.6635C179.29 53.6635 178.848 53.771 178.461 53.986C178.079 54.201 177.776 54.5164 177.551 54.932C177.331 55.3429 177.221 55.8398 177.221 56.4227ZM192.653 48.2812H195.341L200.014 59.6908H200.186L204.858 48.2812H207.546V62.9589H205.439V52.3376H205.303L200.974 62.9374H199.225L194.897 52.3305H194.76V62.9589H192.653V48.2812ZM213.797 63.2026C213.1 63.2026 212.469 63.0736 211.905 62.8156C211.341 62.5528 210.895 62.1729 210.565 61.676C210.24 61.1791 210.078 60.5699 210.078 59.8485C210.078 59.2274 210.197 58.7161 210.436 58.3148C210.675 57.9134 210.997 57.5957 211.404 57.3616C211.81 57.1275 212.264 56.9507 212.765 56.8312C213.267 56.7118 213.778 56.621 214.299 56.5589C214.958 56.4825 215.493 56.4203 215.904 56.3726C216.315 56.32 216.614 56.2364 216.8 56.1217C216.987 56.0071 217.08 55.8207 217.08 55.5627V55.5125C217.08 54.8866 216.903 54.4017 216.549 54.0577C216.201 53.7137 215.68 53.5417 214.987 53.5417C214.266 53.5417 213.697 53.7017 213.281 54.0218C212.87 54.3372 212.586 54.6884 212.428 55.0754L210.415 54.6167C210.653 53.9478 211.002 53.4079 211.461 52.997C211.924 52.5813 212.457 52.2803 213.059 52.094C213.661 51.9028 214.294 51.8073 214.958 51.8073C215.398 51.8073 215.864 51.8598 216.356 51.965C216.853 52.0653 217.316 52.2516 217.746 52.524C218.181 52.7963 218.537 53.1857 218.814 53.6922C219.091 54.1938 219.23 54.846 219.23 55.6487V62.9589H217.137V61.4539H217.051C216.913 61.731 216.705 62.0033 216.428 62.2709C216.15 62.5384 215.794 62.7606 215.36 62.9374C214.925 63.1142 214.404 63.2026 213.797 63.2026ZM214.263 61.4825C214.856 61.4825 215.362 61.3655 215.783 61.1313C216.208 60.8972 216.53 60.5914 216.75 60.214C216.975 59.8318 217.087 59.4233 217.087 58.9885V57.5694C217.01 57.6459 216.862 57.7175 216.643 57.7844C216.428 57.8465 216.182 57.9015 215.904 57.9493C215.627 57.9923 215.357 58.0329 215.095 58.0711C214.832 58.1046 214.612 58.1332 214.435 58.1571C214.02 58.2097 213.64 58.2981 213.296 58.4223C212.956 58.5465 212.684 58.7257 212.479 58.9598C212.278 59.1891 212.178 59.4949 212.178 59.8772C212.178 60.4075 212.374 60.8088 212.765 61.0812C213.157 61.3487 213.656 61.4825 214.263 61.4825ZM222.084 62.9589V51.9506H224.155V53.6993H224.27C224.471 53.1069 224.824 52.641 225.331 52.3018C225.842 51.9578 226.42 51.7858 227.065 51.7858C227.199 51.7858 227.356 51.7906 227.538 51.8001C227.724 51.8097 227.87 51.8216 227.975 51.836V53.8857C227.889 53.8618 227.736 53.8355 227.516 53.8068C227.297 53.7734 227.077 53.7567 226.857 53.7567C226.351 53.7567 225.899 53.8642 225.503 54.0792C225.111 54.2894 224.8 54.5832 224.571 54.9607C224.342 55.3334 224.227 55.7586 224.227 56.2364V62.9589H222.084ZM231.8 59.225L231.786 56.6091H232.159L236.545 51.9506H239.111L234.108 57.2541H233.771L231.8 59.225ZM229.83 62.9589V48.2812H231.972V62.9589H229.83ZM236.781 62.9589L232.84 57.7271L234.316 56.2292L239.412 62.9589H236.781ZM245.355 63.1811C244.27 63.1811 243.336 62.9493 242.552 62.4859C241.774 62.0176 241.172 61.3607 240.746 60.515C240.326 59.6645 240.116 58.6683 240.116 57.5264C240.116 56.3988 240.326 55.405 240.746 54.545C241.172 53.685 241.764 53.0137 242.524 52.5311C243.288 52.0486 244.182 51.8073 245.204 51.8073C245.825 51.8073 246.427 51.91 247.01 52.1155C247.593 52.3209 248.116 52.6434 248.58 53.083C249.043 53.5226 249.409 54.0935 249.676 54.7959C249.944 55.4934 250.078 56.3415 250.078 57.3401V58.0998H241.327V56.4944H247.978C247.978 55.9306 247.863 55.4313 247.634 54.9965C247.404 54.557 247.082 54.2106 246.666 53.9573C246.255 53.7041 245.773 53.5775 245.219 53.5775C244.617 53.5775 244.091 53.7256 243.642 54.0218C243.198 54.3133 242.853 54.6955 242.61 55.1685C242.371 55.6368 242.251 56.1456 242.251 56.6951V57.9493C242.251 58.6851 242.38 59.311 242.638 59.827C242.901 60.343 243.267 60.7372 243.735 61.0095C244.203 61.2771 244.75 61.4109 245.376 61.4109C245.782 61.4109 246.153 61.3535 246.487 61.2389C246.822 61.1194 247.111 60.9426 247.354 60.7085C247.598 60.4744 247.784 60.1853 247.913 59.8413L249.941 60.2068C249.779 60.8041 249.488 61.3272 249.067 61.7764C248.651 62.2207 248.128 62.5671 247.498 62.8156C246.872 63.0592 246.157 63.1811 245.355 63.1811ZM257.594 51.9506V53.6707H251.581V51.9506H257.594ZM253.193 49.3132H255.336V59.7266C255.336 60.1423 255.398 60.4553 255.523 60.6655C255.647 60.871 255.807 61.0119 256.003 61.0883C256.204 61.16 256.421 61.1959 256.655 61.1959C256.827 61.1959 256.978 61.1839 257.107 61.16C257.236 61.1361 257.336 61.117 257.408 61.1027L257.795 62.8729C257.67 62.9207 257.494 62.9684 257.264 63.0162C257.035 63.0688 256.748 63.0975 256.404 63.1022C255.84 63.1118 255.315 63.0114 254.827 62.8012C254.34 62.591 253.946 62.2661 253.645 61.8265C253.344 61.387 253.193 60.8351 253.193 60.171V49.3132ZM268.036 54.6382L266.094 54.9822C266.013 54.7337 265.884 54.4972 265.707 54.2727C265.535 54.0481 265.301 53.8642 265.004 53.7208C264.708 53.5775 264.338 53.5058 263.894 53.5058C263.287 53.5058 262.78 53.642 262.374 53.9143C261.968 54.1819 261.765 54.5283 261.765 54.9535C261.765 55.3214 261.901 55.6177 262.173 55.8422C262.446 56.0668 262.885 56.2507 263.492 56.3941L265.241 56.7954C266.254 57.0295 267.009 57.3903 267.506 57.8776C268.003 58.3649 268.251 58.998 268.251 59.7768C268.251 60.4362 268.06 61.0238 267.678 61.5399C267.3 62.0511 266.772 62.4524 266.094 62.7439C265.42 63.0353 264.639 63.1811 263.75 63.1811C262.518 63.1811 261.512 62.9183 260.733 62.3927C259.954 61.8624 259.476 61.1098 259.3 60.1352L261.371 59.8198C261.5 60.3597 261.765 60.7682 262.166 61.0453C262.568 61.3177 263.091 61.4539 263.736 61.4539C264.438 61.4539 265 61.3081 265.42 61.0167C265.841 60.7204 266.051 60.3597 266.051 59.9345C266.051 59.5905 265.922 59.3014 265.664 59.0673C265.411 58.8332 265.021 58.6564 264.496 58.537L262.632 58.1284C261.605 57.8943 260.845 57.5217 260.353 57.0104C259.866 56.4992 259.622 55.8518 259.622 55.0682C259.622 54.4184 259.804 53.8498 260.167 53.3625C260.53 52.8751 261.032 52.4953 261.672 52.223C262.312 51.9458 263.045 51.8073 263.872 51.8073C265.062 51.8073 265.998 52.0653 266.681 52.5813C267.365 53.0925 267.816 53.7782 268.036 54.6382Z" fill="#748296"/>
<defs>
<clipPath id="clip0_1_3">
<rect width="63.9091" height="74" fill="white" transform="translate(0.272705)"/>
</clipPath>
</defs>
</svg>
