<svg width="140" height="40" viewBox="0 0 140 40" fill="none" xmlns="http://www.w3.org/2000/svg">
<path fill-rule="evenodd" clip-rule="evenodd" d="M7 4.5531C10.528 1.6046 14.9874 -0.00787121 19.5919 3.61162e-05C24.1966 -0.00879943 28.6563 1.60378 32.1839 4.5531H7ZM32.092 34.5688C28.5764 37.4668 24.1547 39.0487 19.5921 39.041C15.0313 39.0484 10.6114 37.4664 7.09766 34.5688H32.092ZM28.9408 9.90988H36.6713C36.036 8.7907 35.2907 7.73718 34.4464 6.76481H4.73676C3.50036 8.1904 2.47577 9.7855 1.69434 11.5013H27.8039L28.9408 9.90988ZM0.871583 25.4032C0.386348 23.8662 0.0936016 22.2753 0 20.6668L39.1779 20.6614C39.118 21.7127 38.9713 22.7574 38.7394 23.7848H18.7417L17.5886 25.4032H0.871583ZM4.80732 32.3677H12.5758L13.7126 30.7494H35.6321C36.334 29.7589 36.9429 28.7061 37.4511 27.6043H1.73242C2.52174 29.3314 3.55741 30.9358 4.80732 32.3677ZM39.0317 16.8745H23.7547L22.6341 18.4551H0C0.085576 16.8508 0.371077 15.2634 0.849928 13.7294H38.3334C38.6526 14.7568 38.8862 15.8087 39.0317 16.8745Z" fill="#748296"/>
<path d="M50.666 25.6085L56.74 16.8638H50.9908V13.7188H62.0994V15.8388L56.0904 24.5296H62.2564V27.6423H50.666V25.6085Z" fill="#748296"/>
<path fill-rule="evenodd" clip-rule="evenodd" d="M68.7358 17.1768C65.0491 17.1768 63.2031 19.2753 63.2031 22.539C63.2031 26.0617 65.6988 27.8581 69.2934 27.8581C70.7459 27.9249 72.1962 27.6841 73.5484 27.1514V24.7077C72.5052 25.0733 71.4062 25.2559 70.3003 25.2471C68.411 25.2471 67.3283 24.8156 66.9601 23.7366H74.0952V21.9348C74.0952 18.9947 72.0814 17.1768 68.7358 17.1768ZM70.5816 21.1579V21.5247H66.96C66.96 20.3757 67.458 19.7715 68.8655 19.7715C70.1269 19.7715 70.5816 20.3541 70.5816 21.1579Z" fill="#748296"/>
<path fill-rule="evenodd" clip-rule="evenodd" d="M80.732 13.0928H76.3308V16.0328H80.732V13.0928ZM75.1777 20.354H76.6773V27.6421H80.7537V17.3923H75.5242L75.1777 20.354Z" fill="#748296"/>
<path d="M83.1844 24.0115V20.3971H81.8418V17.3923H83.1844V15.2992L87.2608 14.3228V17.3923H89.6265L89.4749 20.3971H87.2608V23.7364C87.2608 24.5995 87.6776 24.9232 88.5871 24.9232C89.0221 24.9234 89.454 24.8505 89.8647 24.7074V27.4047C88.9884 27.749 88.0506 27.9105 87.1092 27.8795C84.3537 27.8579 83.1844 26.3905 83.1844 24.0115Z" fill="#748296"/>
<path fill-rule="evenodd" clip-rule="evenodd" d="M91.1481 28.311V30.9058C92.6622 31.2991 94.2231 31.4842 95.7875 31.456C99.7394 31.456 101.58 30.2908 101.58 28.2786C101.58 26.3797 100.281 25.3817 98.1749 25.3817H95.8092C95.3328 25.3817 95.0729 25.317 95.0729 25.0149C95.0729 24.6264 95.6143 24.4754 96.2423 24.4107C96.6464 24.4615 97.053 24.4903 97.4603 24.497C100.086 24.497 101.277 23.1753 101.277 21.0822C101.28 20.6465 101.144 20.2211 100.887 19.8684H102.257L102.343 17.403H98.3048C97.581 17.2728 96.8478 17.2007 96.1123 17.1873C92.7072 17.1873 90.8449 18.3795 90.8449 21.039C90.748 22.2687 91.4402 23.4255 92.5719 23.9251C91.6496 24.1486 90.9953 24.9647 90.9803 25.9104C90.9803 27.2752 92.1713 27.9441 94.2771 27.9441H96.9839C97.7851 27.9441 98.0233 27.9441 98.0233 28.3541C98.0233 28.7641 97.0922 28.8936 95.5493 28.8936C94.0622 28.904 92.5809 28.7079 91.1481 28.311ZM96.1343 19.4045C97.3957 19.4045 97.8288 19.8361 97.8288 20.8557C97.8288 21.8699 97.3903 22.2583 96.1343 22.2583C94.8784 22.2583 94.4453 21.8969 94.4453 20.8557C94.4453 19.8145 94.873 19.4045 96.1343 19.4045Z" fill="#748296"/>
<path fill-rule="evenodd" clip-rule="evenodd" d="M108.634 17.1768C104.942 17.1768 103.102 19.2753 103.102 22.539C103.102 26.0617 105.592 27.8581 109.213 27.8635C110.657 27.9248 112.098 27.6821 113.441 27.1514V24.7077C112.398 25.0739 111.299 25.2564 110.193 25.2471C108.304 25.2471 107.221 24.8156 106.853 23.7366H113.994V21.9348C113.994 18.9947 111.974 17.1768 108.634 17.1768ZM110.475 21.1579V21.5247H106.854C106.854 20.3757 107.352 19.7715 108.765 19.7715C110.02 19.7715 110.475 20.3541 110.475 21.1579Z" fill="#748296"/>
<path fill-rule="evenodd" clip-rule="evenodd" d="M120.214 13.0928H115.812V16.0328H120.214V13.0928ZM114.638 20.354H116.137V27.6421H120.214V17.3923H114.99L114.638 20.354Z" fill="#748296"/>
<path d="M121.864 27.2104V24.2757C123.007 24.7439 124.229 24.9928 125.464 25.0093C126.504 25.0093 127.05 25.0093 127.05 24.5993C127.05 24.1894 125.968 23.9736 124.533 23.4773C122.644 22.8029 121.734 22.0693 121.734 20.3592C121.734 18.3092 123.293 17.1602 126.764 17.1602C128.025 17.1634 129.281 17.3303 130.499 17.6565V20.5102C129.6 20.1593 128.644 19.9765 127.678 19.9708C126.742 19.9708 125.897 19.9708 125.897 20.4023C125.897 20.8339 126.785 20.9418 128.177 21.3788C130.521 22.0693 131.214 22.8677 131.214 24.5778C131.214 26.6547 129.497 27.8145 126.179 27.8145C124.717 27.8619 123.257 27.6575 121.864 27.2104Z" fill="#748296"/>
<path d="M133.32 24.0115V20.3971H131.972V17.3923H133.32V15.2992L137.396 14.3228V17.3923H139.762L139.61 20.3971H137.396V23.7364C137.396 24.5995 137.807 24.9232 138.722 24.9232C139.157 24.9234 139.589 24.8505 140 24.7074V27.4047C139.124 27.7485 138.186 27.9101 137.244 27.8795C134.489 27.8579 133.32 26.3905 133.32 24.0115Z" fill="#748296"/>
</svg>
