<svg width="176" height="36" viewBox="0 0 176 36" fill="none" xmlns="http://www.w3.org/2000/svg">
<path d="M50.5 25V23.12L56.1 15H50.8V12.12H61.04V14.08L55.5 22.12H61.16V25H50.5ZM67.6825 25.2C66.5758 25.2 65.5958 25.02 64.7425 24.66C63.9025 24.2867 63.2425 23.7333 62.7625 23C62.2958 22.2667 62.0625 21.36 62.0625 20.28C62.0625 18.7733 62.4892 17.5733 63.3425 16.68C64.1958 15.7733 65.4692 15.32 67.1625 15.32C68.7092 15.32 69.9158 15.7133 70.7825 16.5C71.6625 17.2867 72.1025 18.36 72.1025 19.72V21.38H65.5225C65.6958 21.8867 66.0358 22.2467 66.5425 22.46C67.0492 22.6733 67.7358 22.78 68.6025 22.78C69.1492 22.78 69.6958 22.7333 70.2425 22.64C70.8025 22.5333 71.2492 22.4133 71.5825 22.28V24.54C70.6492 24.98 69.3492 25.2 67.6825 25.2ZM65.5225 19.34H68.8625V19C68.8625 18.6267 68.7425 18.32 68.5025 18.08C68.2758 17.84 67.8692 17.72 67.2825 17.72C66.6292 17.72 66.1692 17.86 65.9025 18.14C65.6492 18.4067 65.5225 18.8067 65.5225 19.34ZM73.767 14.26V11.54H77.827V14.26H73.767ZM74.067 25V18.26H72.687L73.007 15.52H77.827V25H74.067ZM83.6905 25.2C82.4238 25.2 81.5038 24.88 80.9305 24.24C80.3571 23.6 80.0705 22.7333 80.0705 21.64V18.3H78.8305V15.52H80.0705V13.58L83.8305 12.68V15.52H86.0105L85.8705 18.3H83.8305V21.36C83.8305 21.76 83.9305 22.0467 84.1305 22.22C84.3305 22.38 84.6371 22.46 85.0505 22.46C85.4371 22.46 85.8305 22.3933 86.2305 22.26V24.76C85.5238 25.0533 84.6771 25.2 83.6905 25.2ZM91.3881 28.52C90.9215 28.52 90.4148 28.5 89.8681 28.46C89.3215 28.4333 88.8015 28.38 88.3081 28.3C87.8281 28.22 87.4281 28.1267 87.1081 28.02V25.62C87.4681 25.74 87.8815 25.84 88.3481 25.92C88.8281 26 89.3148 26.06 89.8081 26.1C90.3015 26.14 90.7548 26.16 91.1681 26.16C91.8748 26.16 92.4281 26.12 92.8281 26.04C93.2415 25.9733 93.4481 25.8467 93.4481 25.66C93.4481 25.5 93.3815 25.3933 93.2481 25.34C93.1148 25.3 92.8615 25.28 92.4881 25.28H89.9881C89.0148 25.28 88.2615 25.1267 87.7281 24.82C87.2081 24.5 86.9481 24.0267 86.9481 23.4C86.9481 22.52 87.4348 21.9067 88.4081 21.56C87.8615 21.28 87.4615 20.9267 87.2081 20.5C86.9548 20.0733 86.8281 19.5333 86.8281 18.88C86.8281 17.6533 87.2415 16.7533 88.0681 16.18C88.9081 15.6067 90.1148 15.32 91.6881 15.32C92.0215 15.32 92.3948 15.3467 92.8081 15.4C93.2215 15.44 93.5215 15.48 93.7081 15.52H97.4281L97.3481 17.8H96.0881C96.3281 18.1067 96.4481 18.48 96.4481 18.92C96.4481 19.8933 96.1615 20.6667 95.5881 21.24C95.0281 21.8 94.1415 22.08 92.9281 22.08C92.7548 22.08 92.5681 22.0733 92.3681 22.06C92.1681 22.0333 91.9815 22.0133 91.8081 22C91.5148 22.0267 91.2615 22.08 91.0481 22.16C90.8348 22.24 90.7281 22.3733 90.7281 22.56C90.7281 22.6933 90.7881 22.7867 90.9081 22.84C91.0281 22.88 91.1948 22.9 91.4081 22.9H93.5881C94.5615 22.9 95.3281 23.1267 95.8881 23.58C96.4481 24.0333 96.7281 24.7 96.7281 25.58C96.7281 26.5133 96.2948 27.2333 95.4281 27.74C94.5615 28.26 93.2148 28.52 91.3881 28.52ZM91.7081 20.02C92.2948 20.02 92.7015 19.92 92.9281 19.72C93.1548 19.52 93.2681 19.1867 93.2681 18.72C93.2681 18.2533 93.1548 17.9133 92.9281 17.7C92.7015 17.4867 92.2948 17.38 91.7081 17.38C91.1615 17.38 90.7615 17.4867 90.5081 17.7C90.2681 17.9 90.1481 18.24 90.1481 18.72C90.1481 19.1733 90.2615 19.5067 90.4881 19.72C90.7281 19.92 91.1348 20.02 91.7081 20.02ZM103.64 25.2C102.533 25.2 101.553 25.02 100.7 24.66C99.8595 24.2867 99.1995 23.7333 98.7195 23C98.2529 22.2667 98.0195 21.36 98.0195 20.28C98.0195 18.7733 98.4462 17.5733 99.2995 16.68C100.153 15.7733 101.426 15.32 103.12 15.32C104.666 15.32 105.873 15.7133 106.74 16.5C107.62 17.2867 108.06 18.36 108.06 19.72V21.38H101.48C101.653 21.8867 101.993 22.2467 102.5 22.46C103.006 22.6733 103.693 22.78 104.56 22.78C105.106 22.78 105.653 22.7333 106.2 22.64C106.76 22.5333 107.206 22.4133 107.54 22.28V24.54C106.606 24.98 105.306 25.2 103.64 25.2ZM101.48 19.34H104.82V19C104.82 18.6267 104.7 18.32 104.46 18.08C104.233 17.84 103.826 17.72 103.24 17.72C102.586 17.72 102.126 17.86 101.86 18.14C101.606 18.4067 101.48 18.8067 101.48 19.34ZM109.724 14.26V11.54H113.784V14.26H109.724ZM110.024 25V18.26H108.644L108.964 15.52H113.784V25H110.024ZM119.288 25.2C118.474 25.2 117.708 25.14 116.988 25.02C116.281 24.9133 115.721 24.7733 115.308 24.6V21.9C115.774 22.1133 116.328 22.28 116.968 22.4C117.621 22.52 118.174 22.58 118.628 22.58C119.108 22.58 119.468 22.5667 119.708 22.54C119.961 22.5133 120.088 22.4 120.088 22.2C120.088 21.9733 119.868 21.8 119.428 21.68C118.988 21.56 118.434 21.3867 117.768 21.16C116.901 20.8533 116.254 20.4933 115.828 20.08C115.401 19.6667 115.188 19.0667 115.188 18.28C115.188 17.3333 115.561 16.6067 116.308 16.1C117.054 15.58 118.228 15.32 119.827 15.32C120.441 15.32 121.074 15.3667 121.728 15.46C122.381 15.5533 122.894 15.66 123.268 15.78V18.42C122.868 18.2467 122.428 18.12 121.948 18.04C121.481 17.96 121.054 17.92 120.668 17.92C120.241 17.92 119.861 17.94 119.528 17.98C119.194 18.02 119.028 18.1333 119.028 18.32C119.028 18.5333 119.214 18.6867 119.588 18.78C119.974 18.8733 120.488 19.02 121.128 19.22C121.848 19.4333 122.408 19.6667 122.808 19.92C123.221 20.1733 123.508 20.48 123.668 20.84C123.841 21.2 123.928 21.6467 123.928 22.18C123.928 23.14 123.534 23.8867 122.748 24.42C121.974 24.94 120.821 25.2 119.288 25.2ZM129.101 25.2C127.834 25.2 126.914 24.88 126.341 24.24C125.767 23.6 125.481 22.7333 125.481 21.64V18.3H124.241V15.52H125.481V13.58L129.241 12.68V15.52H131.421L131.281 18.3H129.241V21.36C129.241 21.76 129.341 22.0467 129.541 22.22C129.741 22.38 130.047 22.46 130.461 22.46C130.847 22.46 131.241 22.3933 131.641 22.26V24.76C130.934 25.0533 130.087 25.2 129.101 25.2Z" fill="white"/>
<path d="M139 25.4V22H142.68V25.4H139Z" fill="#0001FE"/>
<g clip-path="url(#clip0_837_48)">
<path d="M17.5029 2.74787e-05C13.3894 -0.0067306 9.40525 1.45486 6.25189 4.12753H28.7511C25.5991 1.45439 21.6157 -0.0073084 17.5029 2.74787e-05V2.74787e-05ZM17.5029 35.4118C21.5777 35.4194 25.5266 33.9846 28.6656 31.3559H6.33738C9.47772 33.9841 13.4274 35.4189 17.5029 35.4118V35.4118ZM25.8565 8.98866H32.7598C32.1911 7.97497 31.5257 7.02006 30.7731 6.13759H4.24457C3.1377 7.42823 2.22222 8.87487 1.52686 10.4321H24.8396L25.8565 8.98866ZM17.3349 18.7467H0.002946C0.0860681 20.2055 0.348459 21.6481 0.784063 23.0412H15.7137L16.7425 21.5769H34.608C34.8139 20.6458 34.945 19.6993 35 18.7467H17.3349ZM21.2346 15.2813H34.8674C34.7384 14.3149 34.5294 13.3612 34.2425 12.4302H0.760486C0.332061 13.8243 0.0766067 15.2669 0 16.7247H20.2207L21.2346 15.2813ZM4.29468 29.3458H11.2363L12.2503 27.9024H31.8313C32.4599 27.0057 33.0037 26.0511 33.4554 25.0513H1.55044C2.25449 26.6099 3.17892 28.0565 4.29468 29.3458V29.3458Z" fill="white"/>
</g>
<path d="M151 24.88V12H156.74C157.727 12 158.54 12.1867 159.18 12.56C159.82 12.9333 160.293 13.4467 160.6 14.1C160.907 14.74 161.06 15.4733 161.06 16.3C161.06 17.58 160.66 18.6067 159.86 19.38C159.073 20.1533 158.007 20.54 156.66 20.54H153.18V24.88H151ZM153.18 18.82H156.26C157.127 18.82 157.78 18.5933 158.22 18.14C158.66 17.6867 158.88 17.0733 158.88 16.3C158.88 15.4733 158.667 14.8333 158.24 14.38C157.827 13.9267 157.2 13.7 156.36 13.7H153.18V18.82Z" fill="white"/>
<path d="M162.797 24.88V12H165.037L169.117 20.34L173.177 12H175.417V24.88H173.257V15.54L169.777 22.66H168.457L164.957 15.54V24.88H162.797Z" fill="white"/>
<defs>
<clipPath id="clip0_837_48">
<rect width="35" height="35.4118" fill="white"/>
</clipPath>
</defs>
</svg>
