<svg width="446" height="447" viewBox="0 0 446 447" fill="none" xmlns="http://www.w3.org/2000/svg">
<g filter="url(#filter0_b_1_397)">
<ellipse cx="191.501" cy="207.5" rx="191.5" ry="191.5" transform="rotate(180 191.501 207.5)" fill="url(#paint0_linear_1_397)" fill-opacity="0.4"/>
</g>
<g filter="url(#filter1_b_1_397)">
<ellipse cx="351.869" cy="206.869" rx="40.8687" ry="40.8688" transform="rotate(180 351.869 206.869)" fill="url(#paint1_linear_1_397)" fill-opacity="0.4"/>
</g>
<g filter="url(#filter2_b_1_397)">
<ellipse cx="191.001" cy="207" rx="109" ry="109" transform="rotate(180 191.001 207)" fill="url(#paint2_linear_1_397)" fill-opacity="0.4"/>
</g>
<g filter="url(#filter3_b_1_397)">
<ellipse cx="191.001" cy="207" rx="72" ry="72" transform="rotate(180 191.001 207)" fill="url(#paint3_linear_1_397)" fill-opacity="0.4"/>
</g>
<circle cx="351.494" cy="208.047" r="22.5483" fill="url(#paint4_radial_1_397)" fill-opacity="0.9"/>
<ellipse cx="351.501" cy="208.5" rx="94.5" ry="94.5" transform="rotate(90 351.501 208.5)" fill="url(#paint5_linear_1_397)" fill-opacity="0.3"/>
<circle cx="351.495" cy="208.047" r="55.8041" transform="rotate(90 351.495 208.047)" fill="url(#paint6_linear_1_397)" fill-opacity="0.3"/>
<circle cx="50.8499" cy="437.288" r="9.39511" fill="url(#paint7_radial_1_397)" fill-opacity="0.9"/>
<path d="M46.0006 289.261L108.977 352L191.025 270.217L254.001 207.522L191.025 144.783L108.977 63L46.0006 125.739L128.092 207.522L46.0006 289.261Z" fill="url(#paint8_linear_1_397)"/>
<path d="M148.708 125.739L210.975 63.7059L292.67 145.137L292.67 145.137L355.291 207.522L292.671 269.863L292.67 269.863L210.975 351.294L148.708 289.261L230.444 207.876L230.799 207.522L230.444 207.168L148.708 125.739Z" fill="url(#paint9_linear_1_397)" stroke="url(#paint10_linear_1_397)"/>
<circle r="38.704" transform="matrix(1 0 0 -1 191.705 206.704)" fill="url(#paint11_linear_1_397)"/>
<circle r="19.7696" transform="matrix(1 0 0 -1 191.705 206.704)" fill="url(#paint12_linear_1_397)"/>
<path d="M339.969 63.2575L323.042 80.0927L300.417 57.579L300.417 57.5789L283.138 40.393L300.417 23.2192L300.417 23.219L323.042 0.705282L339.969 17.5404L317.336 40.0383L316.979 40.3928L317.336 40.7474L339.969 63.2575Z" stroke="url(#paint13_linear_1_397)"/>
<circle r="26.7761" transform="matrix(1 0 0 -1 284.777 39.9295)" fill="url(#paint14_linear_1_397)"/>
<defs>
<filter id="filter0_b_1_397" x="-29.9994" y="-14" width="443" height="443" filterUnits="userSpaceOnUse" color-interpolation-filters="sRGB">
<feFlood flood-opacity="0" result="BackgroundImageFix"/>
<feGaussianBlur in="BackgroundImage" stdDeviation="15"/>
<feComposite in2="SourceAlpha" operator="in" result="effect1_backgroundBlur_1_397"/>
<feBlend mode="normal" in="SourceGraphic" in2="effect1_backgroundBlur_1_397" result="shape"/>
</filter>
<filter id="filter1_b_1_397" x="281" y="136" width="141.737" height="141.737" filterUnits="userSpaceOnUse" color-interpolation-filters="sRGB">
<feFlood flood-opacity="0" result="BackgroundImageFix"/>
<feGaussianBlur in="BackgroundImage" stdDeviation="15"/>
<feComposite in2="SourceAlpha" operator="in" result="effect1_backgroundBlur_1_397"/>
<feBlend mode="normal" in="SourceGraphic" in2="effect1_backgroundBlur_1_397" result="shape"/>
</filter>
<filter id="filter2_b_1_397" x="52.0006" y="68" width="278" height="278" filterUnits="userSpaceOnUse" color-interpolation-filters="sRGB">
<feFlood flood-opacity="0" result="BackgroundImageFix"/>
<feGaussianBlur in="BackgroundImage" stdDeviation="15"/>
<feComposite in2="SourceAlpha" operator="in" result="effect1_backgroundBlur_1_397"/>
<feBlend mode="normal" in="SourceGraphic" in2="effect1_backgroundBlur_1_397" result="shape"/>
</filter>
<filter id="filter3_b_1_397" x="89.0006" y="105" width="204" height="204" filterUnits="userSpaceOnUse" color-interpolation-filters="sRGB">
<feFlood flood-opacity="0" result="BackgroundImageFix"/>
<feGaussianBlur in="BackgroundImage" stdDeviation="15"/>
<feComposite in2="SourceAlpha" operator="in" result="effect1_backgroundBlur_1_397"/>
<feBlend mode="normal" in="SourceGraphic" in2="effect1_backgroundBlur_1_397" result="shape"/>
</filter>
<linearGradient id="paint0_linear_1_397" x1="-249.561" y1="-118.457" x2="532.737" y2="326.678" gradientUnits="userSpaceOnUse">
<stop stop-color="#CB00FE"/>
<stop offset="0.380429" stop-color="#001AFF" stop-opacity="0"/>
<stop offset="1" stop-color="#EE7505"/>
</linearGradient>
<linearGradient id="paint1_linear_1_397" x1="257.741" y1="137.305" x2="424.694" y2="232.303" gradientUnits="userSpaceOnUse">
<stop stop-color="#CB00FE"/>
<stop offset="0.380429" stop-color="#001AFF" stop-opacity="0"/>
<stop offset="1" stop-color="#EE7505"/>
</linearGradient>
<linearGradient id="paint2_linear_1_397" x1="-60.0472" y1="21.4681" x2="385.229" y2="274.835" gradientUnits="userSpaceOnUse">
<stop stop-color="#CB00FE"/>
<stop offset="0.380429" stop-color="#001AFF" stop-opacity="0"/>
<stop offset="1" stop-color="#EE7505"/>
</linearGradient>
<linearGradient id="paint3_linear_1_397" x1="25.1708" y1="84.4468" x2="319.299" y2="251.808" gradientUnits="userSpaceOnUse">
<stop stop-color="#CB00FE"/>
<stop offset="0.380429" stop-color="#001AFF" stop-opacity="0"/>
<stop offset="1" stop-color="#EE7505"/>
</linearGradient>
<radialGradient id="paint4_radial_1_397" cx="0" cy="0" r="1" gradientUnits="userSpaceOnUse" gradientTransform="translate(360.966 201.569) rotate(173.439) scale(32.7091 33.0354)">
<stop stop-color="#CB00FE"/>
<stop offset="1" stop-color="#05068D"/>
</radialGradient>
<linearGradient id="paint5_linear_1_397" x1="351.501" y1="114" x2="351.501" y2="303" gradientUnits="userSpaceOnUse">
<stop stop-color="#EE7505"/>
<stop offset="1" stop-color="#B200FE" stop-opacity="0"/>
</linearGradient>
<linearGradient id="paint6_linear_1_397" x1="351.495" y1="152.243" x2="351.495" y2="263.851" gradientUnits="userSpaceOnUse">
<stop stop-color="#EE7505"/>
<stop offset="1" stop-color="#B200FE" stop-opacity="0"/>
</linearGradient>
<radialGradient id="paint7_radial_1_397" cx="0" cy="0" r="1" gradientUnits="userSpaceOnUse" gradientTransform="translate(54.7967 434.588) rotate(173.439) scale(13.6288 13.7647)">
<stop stop-color="#9709BB"/>
<stop offset="1" stop-color="#05068D"/>
</radialGradient>
<linearGradient id="paint8_linear_1_397" x1="-435.999" y1="460" x2="150.001" y2="63" gradientUnits="userSpaceOnUse">
<stop stop-color="#FE0000"/>
<stop offset="1" stop-color="#B200FE" stop-opacity="0"/>
</linearGradient>
<linearGradient id="paint9_linear_1_397" x1="140.999" y1="524" x2="251.999" y2="63" gradientUnits="userSpaceOnUse">
<stop stop-color="#FF3D23" stop-opacity="0.39"/>
<stop offset="1" stop-color="#B200FE" stop-opacity="0"/>
</linearGradient>
<linearGradient id="paint10_linear_1_397" x1="531.001" y1="103" x2="102.655" y2="195.394" gradientUnits="userSpaceOnUse">
<stop stop-color="#8F37FF"/>
<stop offset="1" stop-color="#9709BB" stop-opacity="0"/>
</linearGradient>
<linearGradient id="paint11_linear_1_397" x1="16.9243" y1="-52.1602" x2="107.372" y2="42.4495" gradientUnits="userSpaceOnUse">
<stop stop-color="#D60B52"/>
<stop offset="1" stop-color="#DD3D3D" stop-opacity="0"/>
</linearGradient>
<linearGradient id="paint12_linear_1_397" x1="8.64479" y1="-26.643" x2="54.8448" y2="21.6828" gradientUnits="userSpaceOnUse">
<stop stop-color="#D60B52"/>
<stop offset="1" stop-color="#DD3D3D" stop-opacity="0"/>
</linearGradient>
<linearGradient id="paint13_linear_1_397" x1="271.429" y1="-27.9578" x2="385.757" y2="77.5119" gradientUnits="userSpaceOnUse">
<stop stop-color="#EE7505"/>
<stop offset="1" stop-color="#9709BB" stop-opacity="0"/>
</linearGradient>
<linearGradient id="paint14_linear_1_397" x1="11.7085" y1="-36.0853" x2="74.282" y2="29.3673" gradientUnits="userSpaceOnUse">
<stop stop-color="#D60B52"/>
<stop offset="1" stop-color="#DD3D3D" stop-opacity="0"/>
</linearGradient>
</defs>
</svg>
