<svg width="91" height="93" viewBox="0 0 91 93" fill="none" xmlns="http://www.w3.org/2000/svg">
<path fill-rule="evenodd" clip-rule="evenodd" d="M56.2378 27.7336H37.7745V27.7388L37.7676 27.7337L29.2237 39.2248L36.1631 44.3844L42.1138 36.381H60.6784L63.2492 32.8753L56.2378 27.7336Z" fill="url(#paint0_linear_1_985)"/>
<path fill-rule="evenodd" clip-rule="evenodd" d="M35.1244 71.7233L8.38879 67.5839L9.7119 59.0383L31.3235 62.3844L41.7645 47.8717L48.784 52.9218L35.4532 71.4514L35.4044 71.7667L35.2442 71.7419L35.2121 71.7864L35.1244 71.7233Z" fill="#0001FE"/>
<path fill-rule="evenodd" clip-rule="evenodd" d="M56.2006 27.7336L46.8897 40.6756L53.9092 45.7257L53.9113 45.7228V45.7296H76.5815V37.0822H60.1277L63.2201 32.7838L56.2006 27.7336Z" fill="#0001FE"/>
<path fill-rule="evenodd" clip-rule="evenodd" d="M55.0388 68.1734L55.0389 68.1736L60.1177 61.1747L41.7694 47.8601L36.6906 54.859L48.0399 63.0947L35.2872 80.6687L42.286 85.7475L55.0388 68.1734Z" fill="url(#paint1_linear_1_985)"/>
<g filter="url(#filter0_f_1_985)">
<ellipse rx="10.9701" ry="11.2085" transform="matrix(1 0 0 -1 71.3434 48.6705)" fill="#EA00FE"/>
</g>
<circle r="6.67743" transform="matrix(1 0 0 -1 71.3436 48.432)" fill="white" fill-opacity="0.4"/>
<circle r="9.53919" transform="matrix(1 0 0 -1 71.3431 48.4321)" fill="white" fill-opacity="0.2"/>
<circle r="3.33872" transform="matrix(1 0 0 -1 71.3435 48.4321)" fill="white"/>
<g filter="url(#filter1_f_1_985)">
<ellipse rx="10.6736" ry="10.9056" transform="matrix(1 0 0 -1 66.8961 18.9335)" fill="#0001FE"/>
</g>
<circle r="6.49696" transform="matrix(1 0 0 -1 66.8962 18.8937)" fill="white" fill-opacity="0.4"/>
<circle r="9.28137" transform="matrix(1 0 0 -1 66.8956 18.8937)" fill="white" fill-opacity="0.2"/>
<circle r="3.24848" transform="matrix(1 0 0 -1 66.9272 18.8175)" fill="white"/>
<defs>
<filter id="filter0_f_1_985" x="52.4669" y="29.5556" width="37.7528" height="38.2298" filterUnits="userSpaceOnUse" color-interpolation-filters="sRGB">
<feFlood flood-opacity="0" result="BackgroundImageFix"/>
<feBlend mode="normal" in="SourceGraphic" in2="BackgroundImageFix" result="shape"/>
<feGaussianBlur stdDeviation="3.95318" result="effect1_foregroundBlur_1_985"/>
</filter>
<filter id="filter1_f_1_985" x="48.3161" y="0.121537" width="37.1599" height="37.6239" filterUnits="userSpaceOnUse" color-interpolation-filters="sRGB">
<feFlood flood-opacity="0" result="BackgroundImageFix"/>
<feBlend mode="normal" in="SourceGraphic" in2="BackgroundImageFix" result="shape"/>
<feGaussianBlur stdDeviation="3.95318" result="effect1_foregroundBlur_1_985"/>
</filter>
<linearGradient id="paint0_linear_1_985" x1="28.1544" y1="33.5088" x2="106.032" y2="31.5322" gradientUnits="userSpaceOnUse">
<stop stop-color="#0707B5"/>
<stop offset="1" stop-color="#0707B5" stop-opacity="0"/>
</linearGradient>
<linearGradient id="paint1_linear_1_985" x1="79.7437" y1="76.0056" x2="12.3417" y2="30.9387" gradientUnits="userSpaceOnUse">
<stop stop-color="#0001FE"/>
<stop offset="1" stop-color="#0001FE" stop-opacity="0"/>
</linearGradient>
</defs>
</svg>
