<svg width="90" height="90" viewBox="0 0 90 90" fill="none" xmlns="http://www.w3.org/2000/svg">
<path fill-rule="evenodd" clip-rule="evenodd" d="M44.9995 26.3672C59.8912 26.3672 73.1821 34.1795 81.9141 46.4062C73.1821 58.634 59.8912 66.4453 44.9995 66.4453C30.1088 66.4453 16.8179 58.634 8.08594 46.4062C16.8179 34.1795 30.1088 26.3672 44.9995 26.3672Z" fill="#EA00FE"/>
<path fill-rule="evenodd" clip-rule="evenodd" d="M64.7318 46.4066C64.7318 35.3387 55.7597 26.3674 44.6931 26.3674C33.6254 26.3674 24.6533 35.3387 24.6533 46.4066C24.6533 57.4745 33.6254 66.4458 44.6931 66.4458C55.7597 66.4458 64.7318 57.4745 64.7318 46.4066Z" fill="#0909AC"/>
<path fill-rule="evenodd" clip-rule="evenodd" d="M60.1172 46.4062C60.1172 37.8627 53.1914 30.9375 44.6488 30.9375C36.1055 30.9375 29.1797 37.8627 29.1797 46.4062C29.1797 54.9498 36.1055 61.875 44.6488 61.875C53.1914 61.875 60.1172 54.9498 60.1172 46.4062Z" fill="url(#paint0_linear_1_1085)"/>
<path fill-rule="evenodd" clip-rule="evenodd" d="M40.1489 54.4692C44.7494 57.1253 50.6319 55.5498 53.2879 50.9494C55.9445 46.348 54.3682 40.465 49.7677 37.8089C45.1672 35.1528 39.2842 36.7292 36.6276 41.3305C33.9716 45.931 35.5484 51.8131 40.1489 54.4692Z" fill="black"/>
<g filter="url(#filter0_f_1_1085)">
<ellipse rx="7.82788" ry="7.99805" transform="matrix(1 0 0 -1 60.0349 38.9355)" fill="#EA00FE"/>
</g>
<circle r="4.76479" transform="matrix(1 0 0 -1 60.0351 38.9065)" fill="white" fill-opacity="0.4"/>
<circle r="6.80685" transform="matrix(1 0 0 -1 60.0351 38.9064)" fill="white" fill-opacity="0.2"/>
<circle r="2.3824" transform="matrix(1 0 0 -1 60.0348 38.9064)" fill="white"/>
<path d="M44.9999 39.9023L50.6325 49.6582H39.3674L44.9999 39.9023Z" fill="#EA00FE"/>
<defs>
<filter id="filter0_f_1_1085" x="45.1758" y="23.9062" width="29.7183" height="30.0586" filterUnits="userSpaceOnUse" color-interpolation-filters="sRGB">
<feFlood flood-opacity="0" result="BackgroundImageFix"/>
<feBlend mode="normal" in="SourceGraphic" in2="BackgroundImageFix" result="shape"/>
<feGaussianBlur stdDeviation="3.51562" result="effect1_foregroundBlur_1_1085"/>
</filter>
<linearGradient id="paint0_linear_1_1085" x1="37.9687" y1="40.6055" x2="93.5156" y2="67.3242" gradientUnits="userSpaceOnUse">
<stop stop-color="#0001FE"/>
<stop offset="0.478855" stop-color="#0001FE" stop-opacity="0"/>
</linearGradient>
</defs>
</svg>
