<svg width="94" height="94" viewBox="0 0 94 94" fill="none" xmlns="http://www.w3.org/2000/svg">
<ellipse cx="47.0054" cy="47.0092" rx="34.3981" ry="34.5892" fill="url(#paint0_linear_1_918)"/>
<ellipse cx="47.0064" cy="47.0092" rx="25.7986" ry="25.9897" fill="#050683"/>
<ellipse cx="47.0063" cy="47.0095" rx="17.3902" ry="17.5813" fill="black"/>
<g filter="url(#filter0_f_1_918)">
<ellipse rx="9.65059" ry="9.86038" transform="matrix(-4.37114e-08 -1 -1 4.37114e-08 46.9294 47.1049)" fill="#EA00FE"/>
</g>
<circle r="5.87427" transform="matrix(-4.37114e-08 -1 -1 4.37114e-08 46.8932 47.1051)" fill="white" fill-opacity="0.4"/>
<circle r="8.39182" transform="matrix(-4.37114e-08 -1 -1 4.37114e-08 46.8922 47.1048)" fill="white" fill-opacity="0.2"/>
<circle r="2.93714" transform="matrix(-4.37114e-08 -1 -1 4.37114e-08 46.8929 47.1051)" fill="white"/>
<g filter="url(#filter1_f_1_918)">
<ellipse rx="9.9535" ry="10.1699" transform="matrix(1 0 0 -1 76.0696 47.0509)" fill="#0001FE"/>
</g>
<circle r="6.05865" transform="matrix(1 0 0 -1 76.0702 47.0137)" fill="white" fill-opacity="0.4"/>
<circle r="8.65522" transform="matrix(1 0 0 -1 76.0692 47.0138)" fill="white" fill-opacity="0.2"/>
<circle r="3.02933" transform="matrix(1 0 0 -1 76.0985 46.943)" fill="white"/>
<g filter="url(#filter2_f_1_918)">
<ellipse rx="9.9535" ry="10.1699" transform="matrix(1 0 0 -1 17.7842 47.0509)" fill="#0001FE"/>
</g>
<circle r="6.05865" transform="matrix(1 0 0 -1 17.7841 47.0137)" fill="white" fill-opacity="0.4"/>
<circle r="8.65522" transform="matrix(1 0 0 -1 17.7839 47.0138)" fill="white" fill-opacity="0.2"/>
<circle r="3.02933" transform="matrix(1 0 0 -1 17.8123 46.943)" fill="white"/>
<g filter="url(#filter3_f_1_918)">
<ellipse rx="9.9535" ry="10.1699" transform="matrix(-4.37114e-08 -1 -1 4.37114e-08 47.0481 17.2135)" fill="#0001FE"/>
</g>
<circle r="6.05865" transform="matrix(-4.37114e-08 -1 -1 4.37114e-08 47.0109 17.2136)" fill="white" fill-opacity="0.4"/>
<circle r="8.65522" transform="matrix(-4.37114e-08 -1 -1 4.37114e-08 47.0109 17.2136)" fill="white" fill-opacity="0.2"/>
<circle r="3.02933" transform="matrix(-4.37114e-08 -1 -1 4.37114e-08 46.9395 17.1847)" fill="white"/>
<g filter="url(#filter4_f_1_918)">
<ellipse rx="9.9535" ry="10.1699" transform="matrix(-4.37114e-08 -1 -1 4.37114e-08 47.0481 76.5758)" fill="#0001FE"/>
</g>
<circle r="6.05865" transform="matrix(-4.37114e-08 -1 -1 4.37114e-08 47.0109 76.5761)" fill="white" fill-opacity="0.4"/>
<circle r="8.65522" transform="matrix(-4.37114e-08 -1 -1 4.37114e-08 47.0109 76.5761)" fill="white" fill-opacity="0.2"/>
<circle r="3.02933" transform="matrix(-4.37114e-08 -1 -1 4.37114e-08 46.9395 76.5465)" fill="white"/>
<defs>
<filter id="filter0_f_1_918" x="30.0378" y="30.4231" width="33.7833" height="33.3636" filterUnits="userSpaceOnUse" color-interpolation-filters="sRGB">
<feFlood flood-opacity="0" result="BackgroundImageFix"/>
<feBlend mode="normal" in="SourceGraphic" in2="BackgroundImageFix" result="shape"/>
<feGaussianBlur stdDeviation="3.51562" result="effect1_foregroundBlur_1_918"/>
</filter>
<filter id="filter1_f_1_918" x="59.0848" y="29.8499" width="33.9695" height="34.4022" filterUnits="userSpaceOnUse" color-interpolation-filters="sRGB">
<feFlood flood-opacity="0" result="BackgroundImageFix"/>
<feBlend mode="normal" in="SourceGraphic" in2="BackgroundImageFix" result="shape"/>
<feGaussianBlur stdDeviation="3.51562" result="effect1_foregroundBlur_1_918"/>
</filter>
<filter id="filter2_f_1_918" x="0.799438" y="29.8499" width="33.9695" height="34.4022" filterUnits="userSpaceOnUse" color-interpolation-filters="sRGB">
<feFlood flood-opacity="0" result="BackgroundImageFix"/>
<feBlend mode="normal" in="SourceGraphic" in2="BackgroundImageFix" result="shape"/>
<feGaussianBlur stdDeviation="3.51562" result="effect1_foregroundBlur_1_918"/>
</filter>
<filter id="filter3_f_1_918" x="29.8469" y="0.22876" width="34.4023" height="33.9695" filterUnits="userSpaceOnUse" color-interpolation-filters="sRGB">
<feFlood flood-opacity="0" result="BackgroundImageFix"/>
<feBlend mode="normal" in="SourceGraphic" in2="BackgroundImageFix" result="shape"/>
<feGaussianBlur stdDeviation="3.51562" result="effect1_foregroundBlur_1_918"/>
</filter>
<filter id="filter4_f_1_918" x="29.8469" y="59.5911" width="34.4023" height="33.9695" filterUnits="userSpaceOnUse" color-interpolation-filters="sRGB">
<feFlood flood-opacity="0" result="BackgroundImageFix"/>
<feBlend mode="normal" in="SourceGraphic" in2="BackgroundImageFix" result="shape"/>
<feGaussianBlur stdDeviation="3.51562" result="effect1_foregroundBlur_1_918"/>
</filter>
<linearGradient id="paint0_linear_1_918" x1="73.3773" y1="7.83351" x2="21.7802" y2="77.012" gradientUnits="userSpaceOnUse">
<stop stop-color="#EA01FE"/>
<stop offset="0.473958" stop-color="#2401FE"/>
<stop offset="1" stop-color="#0001FE"/>
</linearGradient>
</defs>
</svg>
