<svg width="552" height="531" viewBox="0 0 552 531" fill="none" xmlns="http://www.w3.org/2000/svg">
<path d="M434.684 262.185L434.697 173.338L275.626 81.4981L193.341 129.022L116.532 173.377L116.518 268.317L116.509 357.096L275.581 448.936L357.865 401.412L434.674 357.057L434.684 262.185Z" fill="url(#paint0_linear_1_1229)"/>
<path d="M459.33 261.715L459.345 159.103L275.628 53.0344L180.595 107.921L91.8852 159.148L91.8691 268.798L91.8592 371.331L275.576 477.4L370.609 422.513L459.319 371.286L459.33 261.715Z" fill="url(#paint1_linear_1_1229)"/>
<path d="M383.868 263.154L383.876 202.688L275.618 140.185L219.617 172.528L167.344 202.715L167.334 267.328L167.328 327.748L275.587 390.251L331.587 357.908L383.861 327.721L383.868 263.154Z" fill="url(#paint2_linear_1_1229)"/>
<path d="M403.844 262.771L403.854 191.145L275.614 117.105L209.278 155.418L147.356 191.176L147.345 267.715L147.338 339.286L275.578 413.326L341.914 375.013L403.836 339.255L403.844 262.771Z" fill="url(#paint3_linear_1_1229)"/>
<path d="M345.875 262.867L345.881 223.923L276.156 183.668L240.089 204.499L206.422 223.941L206.416 265.555L206.412 304.469L276.137 344.724L312.204 323.893L345.871 304.451L345.875 262.867Z" fill="url(#paint4_linear_1_1229)"/>
<path d="M345.875 262.867L345.375 262.867V262.867L345.875 262.867ZM345.881 223.923L346.381 223.924L346.381 223.635L346.131 223.49L345.881 223.923ZM276.156 183.668L276.406 183.235L276.156 183.091L275.906 183.235L276.156 183.668ZM240.089 204.499L240.339 204.932L240.339 204.932L240.089 204.499ZM206.422 223.941L206.172 223.508L205.922 223.652L205.922 223.94L206.422 223.941ZM206.416 265.555L205.916 265.555V265.555L206.416 265.555ZM206.412 304.469L205.912 304.468L205.912 304.757L206.162 304.902L206.412 304.469ZM276.137 344.724L275.887 345.157L276.137 345.301L276.387 345.157L276.137 344.724ZM312.204 323.893L311.954 323.46L311.954 323.46L312.204 323.893ZM345.871 304.451L346.121 304.884L346.371 304.74L346.371 304.451L345.871 304.451ZM346.375 262.867L346.381 223.924L345.381 223.923L345.375 262.867L346.375 262.867ZM346.131 223.49L276.406 183.235L275.906 184.101L345.631 224.356L346.131 223.49ZM275.906 183.235L239.839 204.066L240.339 204.932L276.406 184.101L275.906 183.235ZM239.839 204.066L206.172 223.508L206.672 224.373L240.339 204.932L239.839 204.066ZM205.922 223.94L205.916 265.555L206.916 265.555L206.922 223.941L205.922 223.94ZM205.916 265.555L205.912 304.468L206.912 304.469L206.916 265.555L205.916 265.555ZM206.162 304.902L275.887 345.157L276.387 344.291L206.662 304.035L206.162 304.902ZM276.387 345.157L312.454 324.326L311.954 323.46L275.887 344.291L276.387 345.157ZM312.454 324.326L346.121 304.884L345.621 304.018L311.954 323.46L312.454 324.326ZM346.371 304.451L346.375 262.867L345.375 262.867L345.371 304.451L346.371 304.451Z" fill="url(#paint5_linear_1_1229)"/>
<path d="M325.47 264.12L325.474 236.524L276.066 207.999L250.508 222.759L226.651 236.536L226.647 266.025L226.644 293.6L276.052 322.125L301.61 307.364L325.467 293.588L325.47 264.12Z" fill="url(#paint6_linear_1_1229)"/>
<path d="M308.638 264.443L308.64 246.246L276.062 227.437L259.209 237.17L243.478 246.254L243.475 265.699L243.474 283.881L276.052 302.691L292.905 292.957L308.636 283.873L308.638 264.443Z" fill="url(#paint7_linear_1_1229)"/>
<path d="M474.866 340.747L474.869 320.925L439.38 300.436L421.022 311.038L403.886 320.934L403.883 342.115L403.881 361.922L439.37 382.411L457.728 371.809L474.864 361.913L474.866 340.747Z" fill="url(#paint8_linear_1_1229)"/>
<path d="M474.866 340.747L474.366 340.747V340.747L474.866 340.747ZM474.869 320.925L475.369 320.925L475.369 320.637L475.119 320.492L474.869 320.925ZM439.38 300.436L439.63 300.003L439.38 299.858L439.13 300.003L439.38 300.436ZM421.022 311.038L421.272 311.471L421.272 311.471L421.022 311.038ZM403.886 320.934L403.636 320.501L403.386 320.645L403.386 320.934L403.886 320.934ZM403.883 342.115L403.383 342.115V342.115L403.883 342.115ZM403.881 361.922L403.381 361.922L403.381 362.211L403.631 362.355L403.881 361.922ZM439.37 382.411L439.12 382.844L439.37 382.989L439.62 382.844L439.37 382.411ZM457.728 371.809L457.478 371.376L457.478 371.376L457.728 371.809ZM474.864 361.913L475.114 362.346L475.364 362.202L475.364 361.913L474.864 361.913ZM475.366 340.747L475.369 320.925L474.369 320.925L474.366 340.747L475.366 340.747ZM475.119 320.492L439.63 300.003L439.13 300.869L474.619 321.358L475.119 320.492ZM439.13 300.003L420.772 310.605L421.272 311.471L439.63 300.869L439.13 300.003ZM420.772 310.605L403.636 320.501L404.136 321.367L421.272 311.471L420.772 310.605ZM403.386 320.934L403.383 342.115L404.383 342.115L404.386 320.934L403.386 320.934ZM403.383 342.115L403.381 361.922L404.381 361.922L404.383 342.115L403.383 342.115ZM403.631 362.355L439.12 382.844L439.62 381.978L404.131 361.489L403.631 362.355ZM439.62 382.844L457.978 372.242L457.478 371.376L439.12 381.979L439.62 382.844ZM457.978 372.242L475.114 362.346L474.614 361.48L457.478 371.376L457.978 372.242ZM475.364 361.913L475.366 340.747L474.366 340.747L474.364 361.913L475.364 361.913Z" fill="url(#paint9_linear_1_1229)"/>
<path d="M460.67 341.81L460.672 329.65L438.902 317.081L427.64 323.585L417.128 329.655L417.126 342.649L417.125 354.799L438.895 367.368L450.157 360.864L460.669 354.794L460.67 341.81Z" fill="url(#paint10_linear_1_1229)"/>
<path d="M460.67 341.81L460.17 341.81V341.81L460.67 341.81ZM460.672 329.65L461.172 329.65L461.172 329.361L460.922 329.217L460.672 329.65ZM438.902 317.081L439.152 316.648L438.902 316.504L438.652 316.648L438.902 317.081ZM427.64 323.585L427.89 324.018L427.89 324.018L427.64 323.585ZM417.128 329.655L416.878 329.222L416.628 329.367L416.628 329.655L417.128 329.655ZM417.126 342.649L416.626 342.649V342.649L417.126 342.649ZM417.125 354.799L416.625 354.799L416.625 355.088L416.875 355.232L417.125 354.799ZM438.895 367.368L438.645 367.801L438.896 367.946L439.146 367.801L438.895 367.368ZM450.157 360.864L449.907 360.431L449.907 360.431L450.157 360.864ZM460.669 354.794L460.919 355.227L461.169 355.083L461.169 354.794L460.669 354.794ZM461.17 341.81L461.172 329.65L460.172 329.65L460.17 341.81L461.17 341.81ZM460.922 329.217L439.152 316.648L438.652 317.514L460.422 330.083L460.922 329.217ZM438.652 316.648L427.39 323.152L427.89 324.018L439.152 317.514L438.652 316.648ZM427.39 323.152L416.878 329.222L417.378 330.088L427.89 324.018L427.39 323.152ZM416.628 329.655L416.626 342.649L417.626 342.649L417.628 329.656L416.628 329.655ZM416.626 342.649L416.625 354.799L417.625 354.799L417.626 342.649L416.626 342.649ZM416.875 355.232L438.645 367.801L439.145 366.935L417.375 354.366L416.875 355.232ZM439.146 367.801L450.407 361.297L449.907 360.431L438.645 366.935L439.146 367.801ZM450.407 361.297L460.919 355.227L460.419 354.361L449.907 360.431L450.407 361.297ZM461.169 354.794L461.17 341.81L460.17 341.81L460.169 354.794L461.169 354.794Z" fill="url(#paint11_linear_1_1229)"/>
<path d="M474.611 167.992L474.614 148.17L439.124 127.68L420.767 138.283L403.63 148.179L403.627 169.36L403.625 189.167L439.114 209.656L457.472 199.054L474.609 189.158L474.611 167.992Z" fill="url(#paint12_linear_1_1229)"/>
<path d="M474.611 167.992L474.111 167.992V167.992L474.611 167.992ZM474.614 148.17L475.114 148.17L475.114 147.881L474.864 147.737L474.614 148.17ZM439.124 127.68L439.374 127.247L439.124 127.103L438.874 127.247L439.124 127.68ZM420.767 138.283L421.017 138.716L421.017 138.716L420.767 138.283ZM403.63 148.179L403.38 147.746L403.13 147.89L403.13 148.179L403.63 148.179ZM403.627 169.36L403.127 169.36V169.36L403.627 169.36ZM403.625 189.167L403.125 189.167L403.125 189.455L403.375 189.6L403.625 189.167ZM439.114 209.656L438.864 210.089L439.114 210.234L439.365 210.089L439.114 209.656ZM457.472 199.054L457.222 198.621L457.222 198.621L457.472 199.054ZM474.609 189.158L474.859 189.591L475.109 189.447L475.109 189.158L474.609 189.158ZM475.111 167.992L475.114 148.17L474.114 148.17L474.111 167.992L475.111 167.992ZM474.864 147.737L439.374 127.247L438.874 128.113L474.364 148.603L474.864 147.737ZM438.874 127.247L420.517 137.85L421.017 138.716L439.375 128.113L438.874 127.247ZM420.517 137.85L403.38 147.746L403.88 148.612L421.017 138.716L420.517 137.85ZM403.13 148.179L403.127 169.36L404.127 169.36L404.13 148.179L403.13 148.179ZM403.127 169.36L403.125 189.167L404.125 189.167L404.127 169.36L403.127 169.36ZM403.375 189.6L438.864 210.089L439.364 209.223L403.875 188.734L403.375 189.6ZM439.365 210.089L457.722 199.487L457.222 198.621L438.864 209.223L439.365 210.089ZM457.722 199.487L474.859 189.591L474.359 188.725L457.222 198.621L457.722 199.487ZM475.109 189.158L475.111 167.992L474.111 167.992L474.109 189.158L475.109 189.158Z" fill="url(#paint13_linear_1_1229)"/>
<path d="M460.415 169.055L460.417 156.895L438.646 144.326L427.385 150.83L416.873 156.9L416.871 169.894L416.87 182.044L438.64 194.613L449.901 188.109L460.414 182.039L460.415 169.055Z" fill="url(#paint14_linear_1_1229)"/>
<path d="M460.415 169.055L459.915 169.054V169.054L460.415 169.055ZM460.417 156.895L460.917 156.895L460.917 156.606L460.667 156.462L460.417 156.895ZM438.646 144.326L438.896 143.893L438.646 143.748L438.396 143.893L438.646 144.326ZM427.385 150.83L427.635 151.263L427.635 151.263L427.385 150.83ZM416.873 156.9L416.623 156.467L416.373 156.612L416.373 156.9L416.873 156.9ZM416.871 169.894L416.371 169.894V169.894L416.871 169.894ZM416.87 182.044L416.37 182.044L416.369 182.333L416.62 182.477L416.87 182.044ZM438.64 194.613L438.39 195.046L438.64 195.191L438.89 195.046L438.64 194.613ZM449.901 188.109L449.651 187.676L449.651 187.676L449.901 188.109ZM460.414 182.039L460.664 182.472L460.914 182.327L460.914 182.039L460.414 182.039ZM460.915 169.055L460.917 156.895L459.917 156.895L459.915 169.054L460.915 169.055ZM460.667 156.462L438.896 143.893L438.396 144.759L460.167 157.328L460.667 156.462ZM438.396 143.893L427.135 150.397L427.635 151.263L438.896 144.759L438.396 143.893ZM427.135 150.397L416.623 156.467L417.123 157.333L427.635 151.263L427.135 150.397ZM416.373 156.9L416.371 169.894L417.371 169.894L417.373 156.9L416.373 156.9ZM416.371 169.894L416.37 182.044L417.37 182.044L417.371 169.894L416.371 169.894ZM416.62 182.477L438.39 195.046L438.89 194.18L417.12 181.611L416.62 182.477ZM438.89 195.046L450.152 188.542L449.651 187.676L438.39 194.18L438.89 195.046ZM450.152 188.542L460.664 182.472L460.164 181.606L449.651 187.676L450.152 188.542ZM460.914 182.039L460.915 169.055L459.915 169.054L459.914 182.039L460.914 182.039Z" fill="url(#paint15_linear_1_1229)"/>
<path d="M145.611 167.992L145.614 148.17L110.124 127.68L91.7666 138.283L74.6304 148.179L74.6273 169.36L74.6254 189.167L110.114 209.656L128.472 199.054L145.609 189.158L145.611 167.992Z" fill="url(#paint16_linear_1_1229)"/>
<path d="M145.611 167.992L145.111 167.992V167.992L145.611 167.992ZM145.614 148.17L146.114 148.17L146.114 147.881L145.864 147.737L145.614 148.17ZM110.124 127.68L110.374 127.247L110.124 127.103L109.874 127.247L110.124 127.68ZM91.7666 138.283L92.0167 138.716L92.0167 138.716L91.7666 138.283ZM74.6304 148.179L74.3804 147.746L74.1304 147.89L74.1304 148.179L74.6304 148.179ZM74.6273 169.36L74.1273 169.36V169.36L74.6273 169.36ZM74.6254 189.167L74.1254 189.167L74.1253 189.455L74.3754 189.6L74.6254 189.167ZM110.114 209.656L109.864 210.089L110.114 210.234L110.365 210.089L110.114 209.656ZM128.472 199.054L128.222 198.621L128.222 198.621L128.472 199.054ZM145.609 189.158L145.859 189.591L146.109 189.447L146.109 189.158L145.609 189.158ZM146.111 167.992L146.114 148.17L145.114 148.17L145.111 167.992L146.111 167.992ZM145.864 147.737L110.374 127.247L109.874 128.113L145.364 148.603L145.864 147.737ZM109.874 127.247L91.5166 137.85L92.0167 138.716L110.375 128.113L109.874 127.247ZM91.5166 137.85L74.3804 147.746L74.8804 148.612L92.0167 138.716L91.5166 137.85ZM74.1304 148.179L74.1273 169.36L75.1273 169.36L75.1304 148.179L74.1304 148.179ZM74.1273 169.36L74.1254 189.167L75.1254 189.167L75.1273 169.36L74.1273 169.36ZM74.3754 189.6L109.864 210.089L110.364 209.223L74.8754 188.734L74.3754 189.6ZM110.365 210.089L128.722 199.487L128.222 198.621L109.864 209.223L110.365 210.089ZM128.722 199.487L145.859 189.591L145.359 188.725L128.222 198.621L128.722 199.487ZM146.109 189.158L146.111 167.992L145.111 167.992L145.109 189.158L146.109 189.158Z" fill="url(#paint17_linear_1_1229)"/>
<path d="M131.415 169.055L131.417 156.895L109.646 144.326L98.3847 150.83L87.8726 156.9L87.8707 169.894L87.8695 182.044L109.64 194.613L120.901 188.109L131.414 182.039L131.415 169.055Z" fill="url(#paint18_linear_1_1229)"/>
<path d="M131.415 169.055L130.915 169.054V169.054L131.415 169.055ZM131.417 156.895L131.917 156.895L131.917 156.606L131.667 156.462L131.417 156.895ZM109.646 144.326L109.896 143.893L109.646 143.748L109.396 143.893L109.646 144.326ZM98.3847 150.83L98.6347 151.263L98.6347 151.263L98.3847 150.83ZM87.8726 156.9L87.6225 156.467L87.3726 156.612L87.3726 156.9L87.8726 156.9ZM87.8707 169.894L87.3707 169.894V169.894L87.8707 169.894ZM87.8695 182.044L87.3695 182.044L87.3695 182.333L87.6195 182.477L87.8695 182.044ZM109.64 194.613L109.39 195.046L109.64 195.191L109.89 195.046L109.64 194.613ZM120.901 188.109L120.651 187.676L120.651 187.676L120.901 188.109ZM131.414 182.039L131.664 182.472L131.914 182.327L131.914 182.039L131.414 182.039ZM131.915 169.055L131.917 156.895L130.917 156.895L130.915 169.054L131.915 169.055ZM131.667 156.462L109.896 143.893L109.396 144.759L131.167 157.328L131.667 156.462ZM109.396 143.893L98.1346 150.397L98.6347 151.263L109.896 144.759L109.396 143.893ZM98.1346 150.397L87.6225 156.467L88.1226 157.333L98.6347 151.263L98.1346 150.397ZM87.3726 156.9L87.3707 169.894L88.3707 169.894L88.3726 156.9L87.3726 156.9ZM87.3707 169.894L87.3695 182.044L88.3695 182.044L88.3707 169.894L87.3707 169.894ZM87.6195 182.477L109.39 195.046L109.89 194.18L88.1195 181.611L87.6195 182.477ZM109.89 195.046L121.152 188.542L120.651 187.676L109.39 194.18L109.89 195.046ZM121.152 188.542L131.664 182.472L131.164 181.606L120.651 187.676L121.152 188.542ZM131.914 182.039L131.915 169.055L130.915 169.054L130.914 182.039L131.914 182.039Z" fill="url(#paint19_linear_1_1229)"/>
<path d="M311.611 73.9919L311.614 54.1701L276.124 33.6804L257.767 44.283L240.63 54.1788L240.627 75.3601L240.625 95.1667L276.114 115.656L294.472 105.054L311.609 95.158L311.611 73.9919Z" fill="url(#paint20_linear_1_1229)"/>
<path d="M311.611 73.9919L311.111 73.9918V73.9918L311.611 73.9919ZM311.614 54.1701L312.114 54.1701L312.114 53.8814L311.864 53.737L311.614 54.1701ZM276.124 33.6804L276.374 33.2474L276.124 33.103L275.874 33.2474L276.124 33.6804ZM257.767 44.283L258.017 44.716L258.017 44.716L257.767 44.283ZM240.63 54.1788L240.38 53.7458L240.13 53.8901L240.13 54.1787L240.63 54.1788ZM240.627 75.3601L240.127 75.36V75.3601L240.627 75.3601ZM240.625 95.1667L240.125 95.1667L240.125 95.4554L240.375 95.5997L240.625 95.1667ZM276.114 115.656L275.864 116.089L276.114 116.234L276.365 116.089L276.114 115.656ZM294.472 105.054L294.222 104.621L294.222 104.621L294.472 105.054ZM311.609 95.158L311.859 95.591L312.109 95.4467L312.109 95.1581L311.609 95.158ZM312.111 73.9919L312.114 54.1701L311.114 54.17L311.111 73.9918L312.111 73.9919ZM311.864 53.737L276.374 33.2474L275.874 34.1134L311.364 54.6031L311.864 53.737ZM275.874 33.2474L257.517 43.8501L258.017 44.716L276.375 34.1134L275.874 33.2474ZM257.517 43.85L240.38 53.7458L240.88 54.6117L258.017 44.716L257.517 43.85ZM240.13 54.1787L240.127 75.36L241.127 75.3602L241.13 54.1788L240.13 54.1787ZM240.127 75.3601L240.125 95.1667L241.125 95.1668L241.127 75.3602L240.127 75.3601ZM240.375 95.5997L275.864 116.089L276.364 115.223L240.875 94.7337L240.375 95.5997ZM276.365 116.089L294.722 105.487L294.222 104.621L275.864 115.223L276.365 116.089ZM294.722 105.487L311.859 95.591L311.359 94.725L294.222 104.621L294.722 105.487ZM312.109 95.1581L312.111 73.9919L311.111 73.9918L311.109 95.158L312.109 95.1581Z" fill="url(#paint21_linear_1_1229)"/>
<path d="M297.415 75.0545L297.417 62.895L275.646 50.3258L264.385 56.8299L253.873 62.9003L253.871 75.8939L253.87 88.0441L275.64 100.613L286.901 94.1092L297.414 88.0387L297.415 75.0545Z" fill="url(#paint22_linear_1_1229)"/>
<path d="M297.415 75.0545L296.915 75.0545V75.0545L297.415 75.0545ZM297.417 62.895L297.917 62.8951L297.917 62.6064L297.667 62.462L297.417 62.895ZM275.646 50.3258L275.896 49.8928L275.646 49.7484L275.396 49.8928L275.646 50.3258ZM264.385 56.8299L264.635 57.2629L264.635 57.2629L264.385 56.8299ZM253.873 62.9003L253.623 62.4673L253.373 62.6117L253.373 62.9003L253.873 62.9003ZM253.871 75.8939L253.371 75.8938V75.8938L253.871 75.8939ZM253.87 88.0441L253.37 88.044L253.369 88.3327L253.62 88.4771L253.87 88.0441ZM275.64 100.613L275.39 101.046L275.64 101.191L275.89 101.046L275.64 100.613ZM286.901 94.1092L286.651 93.6762L286.651 93.6762L286.901 94.1092ZM297.414 88.0387L297.664 88.4717L297.914 88.3274L297.914 88.0388L297.414 88.0387ZM297.915 75.0546L297.917 62.8951L296.917 62.8949L296.915 75.0545L297.915 75.0546ZM297.667 62.462L275.896 49.8928L275.396 50.7588L297.167 63.328L297.667 62.462ZM275.396 49.8928L264.135 56.3969L264.635 57.2629L275.896 50.7588L275.396 49.8928ZM264.135 56.3969L253.623 62.4673L254.123 63.3333L264.635 57.2629L264.135 56.3969ZM253.373 62.9003L253.371 75.8938L254.371 75.8939L254.373 62.9004L253.373 62.9003ZM253.371 75.8938L253.37 88.044L254.37 88.0441L254.371 75.8939L253.371 75.8938ZM253.62 88.4771L275.39 101.046L275.89 100.18L254.12 87.611L253.62 88.4771ZM275.89 101.046L287.152 94.5421L286.651 93.6762L275.39 100.18L275.89 101.046ZM287.152 94.5422L297.664 88.4717L297.164 87.6057L286.651 93.6762L287.152 94.5422ZM297.914 88.0388L297.915 75.0546L296.915 75.0545L296.914 88.0387L297.914 88.0388Z" fill="url(#paint23_linear_1_1229)"/>
<defs>
<linearGradient id="paint0_linear_1_1229" x1="446.376" y1="-52.2282" x2="376.688" y2="351.34" gradientUnits="userSpaceOnUse">
<stop stop-color="#31003D"/>
<stop offset="1" stop-color="#AD04D7" stop-opacity="0"/>
</linearGradient>
<linearGradient id="paint1_linear_1_1229" x1="472.833" y1="-101.41" x2="301.136" y2="433.364" gradientUnits="userSpaceOnUse">
<stop stop-color="#31003D"/>
<stop offset="1" stop-color="#AD04D7" stop-opacity="0"/>
</linearGradient>
<linearGradient id="paint2_linear_1_1229" x1="391.824" y1="49.1756" x2="191.567" y2="362.502" gradientUnits="userSpaceOnUse">
<stop stop-color="#31003D"/>
<stop offset="1" stop-color="#AD04D7" stop-opacity="0"/>
</linearGradient>
<linearGradient id="paint3_linear_1_1229" x1="325.438" y1="84.5199" x2="148.578" y2="578.822" gradientUnits="userSpaceOnUse">
<stop/>
<stop offset="1" stop-opacity="0"/>
</linearGradient>
<linearGradient id="paint4_linear_1_1229" x1="358.561" y1="218.76" x2="276.146" y2="344.724" gradientUnits="userSpaceOnUse">
<stop stop-color="#EA00FE"/>
<stop offset="1" stop-color="#EA00FE" stop-opacity="0"/>
</linearGradient>
<linearGradient id="paint5_linear_1_1229" x1="276.146" y1="183.668" x2="182.382" y2="399.274" gradientUnits="userSpaceOnUse">
<stop stop-color="#EA00FE"/>
<stop offset="1" stop-color="#8E00FE" stop-opacity="0"/>
</linearGradient>
<linearGradient id="paint6_linear_1_1229" x1="193.758" y1="117.94" x2="331.672" y2="309.057" gradientUnits="userSpaceOnUse">
<stop stop-color="#350362"/>
<stop offset="1" stop-opacity="0"/>
</linearGradient>
<linearGradient id="paint7_linear_1_1229" x1="221.789" y1="168.054" x2="312.728" y2="294.074" gradientUnits="userSpaceOnUse">
<stop stop-color="#350362"/>
<stop offset="1" stop-opacity="0"/>
</linearGradient>
<linearGradient id="paint8_linear_1_1229" x1="439.375" y1="300.436" x2="439.375" y2="382.411" gradientUnits="userSpaceOnUse">
<stop stop-color="#EA00FE"/>
<stop offset="1" stop-color="#EA00FE" stop-opacity="0"/>
</linearGradient>
<linearGradient id="paint9_linear_1_1229" x1="439.375" y1="300.436" x2="391.65" y2="410.177" gradientUnits="userSpaceOnUse">
<stop stop-color="#EA00FE"/>
<stop offset="1" stop-color="#8E00FE" stop-opacity="0"/>
</linearGradient>
<linearGradient id="paint10_linear_1_1229" x1="438.899" y1="317.081" x2="438.899" y2="367.368" gradientUnits="userSpaceOnUse">
<stop stop-color="#EA00FE"/>
<stop offset="1" stop-color="#EA00FE" stop-opacity="0"/>
</linearGradient>
<linearGradient id="paint11_linear_1_1229" x1="438.899" y1="317.081" x2="409.622" y2="384.401" gradientUnits="userSpaceOnUse">
<stop stop-color="#EA00FE"/>
<stop offset="1" stop-color="#8E00FE" stop-opacity="0"/>
</linearGradient>
<linearGradient id="paint12_linear_1_1229" x1="439.119" y1="127.68" x2="439.119" y2="209.656" gradientUnits="userSpaceOnUse">
<stop stop-color="#EA00FE"/>
<stop offset="1" stop-color="#EA00FE" stop-opacity="0"/>
</linearGradient>
<linearGradient id="paint13_linear_1_1229" x1="439.119" y1="127.68" x2="391.394" y2="237.422" gradientUnits="userSpaceOnUse">
<stop stop-color="#EA00FE"/>
<stop offset="1" stop-color="#8E00FE" stop-opacity="0"/>
</linearGradient>
<linearGradient id="paint14_linear_1_1229" x1="438.643" y1="144.326" x2="438.643" y2="194.613" gradientUnits="userSpaceOnUse">
<stop stop-color="#EA00FE"/>
<stop offset="1" stop-color="#EA00FE" stop-opacity="0"/>
</linearGradient>
<linearGradient id="paint15_linear_1_1229" x1="438.643" y1="144.326" x2="409.366" y2="211.646" gradientUnits="userSpaceOnUse">
<stop stop-color="#EA00FE"/>
<stop offset="1" stop-color="#8E00FE" stop-opacity="0"/>
</linearGradient>
<linearGradient id="paint16_linear_1_1229" x1="110.119" y1="127.68" x2="110.119" y2="209.656" gradientUnits="userSpaceOnUse">
<stop stop-color="#EA00FE"/>
<stop offset="1" stop-color="#EA00FE" stop-opacity="0"/>
</linearGradient>
<linearGradient id="paint17_linear_1_1229" x1="110.119" y1="127.68" x2="62.3942" y2="237.422" gradientUnits="userSpaceOnUse">
<stop stop-color="#EA00FE"/>
<stop offset="1" stop-color="#8E00FE" stop-opacity="0"/>
</linearGradient>
<linearGradient id="paint18_linear_1_1229" x1="109.643" y1="144.326" x2="109.643" y2="194.613" gradientUnits="userSpaceOnUse">
<stop stop-color="#EA00FE"/>
<stop offset="1" stop-color="#EA00FE" stop-opacity="0"/>
</linearGradient>
<linearGradient id="paint19_linear_1_1229" x1="109.643" y1="144.326" x2="80.3664" y2="211.646" gradientUnits="userSpaceOnUse">
<stop stop-color="#EA00FE"/>
<stop offset="1" stop-color="#8E00FE" stop-opacity="0"/>
</linearGradient>
<linearGradient id="paint20_linear_1_1229" x1="276.119" y1="33.6804" x2="276.119" y2="115.656" gradientUnits="userSpaceOnUse">
<stop stop-color="#EA00FE"/>
<stop offset="1" stop-color="#EA00FE" stop-opacity="0"/>
</linearGradient>
<linearGradient id="paint21_linear_1_1229" x1="276.119" y1="33.6804" x2="228.394" y2="143.422" gradientUnits="userSpaceOnUse">
<stop stop-color="#EA00FE"/>
<stop offset="1" stop-color="#8E00FE" stop-opacity="0"/>
</linearGradient>
<linearGradient id="paint22_linear_1_1229" x1="275.643" y1="50.3258" x2="275.643" y2="100.613" gradientUnits="userSpaceOnUse">
<stop stop-color="#EA00FE"/>
<stop offset="1" stop-color="#EA00FE" stop-opacity="0"/>
</linearGradient>
<linearGradient id="paint23_linear_1_1229" x1="275.643" y1="50.3258" x2="246.366" y2="117.646" gradientUnits="userSpaceOnUse">
<stop stop-color="#EA00FE"/>
<stop offset="1" stop-color="#8E00FE" stop-opacity="0"/>
</linearGradient>
</defs>
</svg>
