<svg width="574" height="556" viewBox="0 0 574 556" fill="none" xmlns="http://www.w3.org/2000/svg">
<circle opacity="0.6" cx="76.4984" cy="161.3" r="37.5276" fill="url(#paint0_radial_1_1200)"/>
<g filter="url(#filter0_b_1_1200)">
<rect x="477.122" y="239.559" width="337.376" height="337.376" transform="rotate(135 477.122 239.559)" fill="url(#paint1_linear_1_1200)"/>
</g>
<path d="M30.2808 361.254L49.916 341.619L50.6233 340.912L49.9159 340.205L30.2807 320.579L44.6179 306.242L64.2433 325.877L64.9504 326.585L65.6577 325.877L85.293 306.242L99.6209 320.579L79.9952 340.205L79.2882 340.912L79.995 341.619L99.6208 361.254L85.293 375.582L65.6575 355.956L64.9504 355.25L64.2435 355.956L44.6178 375.582L30.2808 361.254Z" stroke="url(#paint2_linear_1_1200)" stroke-width="2"/>
<g filter="url(#filter1_b_1_1200)">
<rect x="375.998" y="102.122" width="274.962" height="274.962" rx="137.481" transform="rotate(90 375.998 102.122)" fill="url(#paint3_linear_1_1200)"/>
<rect x="374.998" y="103.122" width="272.962" height="272.962" rx="136.481" transform="rotate(90 374.998 103.122)" stroke="url(#paint4_linear_1_1200)" stroke-opacity="0.5" stroke-width="2"/>
</g>
<circle cx="428.682" cy="196.575" r="35.3626" fill="url(#paint5_radial_1_1200)"/>
<circle cx="339.553" cy="102.395" r="14.7945" fill="url(#paint6_linear_1_1200)"/>
<circle cx="324.397" cy="204.874" r="14.7945" fill="url(#paint7_radial_1_1200)"/>
<ellipse cx="238.518" cy="239.155" rx="93.4582" ry="93.0974" fill="url(#paint8_linear_1_1200)"/>
<path d="M238.43 188.29L194.855 240.721C194.486 241.163 194.25 241.702 194.177 242.274C194.103 242.846 194.194 243.427 194.438 243.949C194.683 244.471 195.072 244.912 195.558 245.221C196.045 245.53 196.61 245.694 197.186 245.693H226.559C227.362 245.695 228.132 246.015 228.7 246.583C229.268 247.151 229.588 247.921 229.59 248.724V288.554C229.591 289.174 229.783 289.778 230.138 290.286C230.494 290.793 230.997 291.18 231.578 291.393C232.16 291.606 232.794 291.636 233.393 291.478C233.992 291.32 234.529 290.982 234.93 290.51L282.229 234.767C282.604 234.326 282.845 233.787 282.923 233.214C283.001 232.641 282.914 232.057 282.671 231.532C282.428 231.007 282.04 230.562 281.553 230.25C281.065 229.938 280.499 229.773 279.92 229.773H246.001C245.597 229.774 245.197 229.694 244.825 229.538C244.452 229.382 244.115 229.153 243.832 228.864C243.549 228.576 243.328 228.234 243.18 227.858C243.031 227.482 242.96 227.081 242.97 226.677L243.792 190.297C243.807 189.667 243.625 189.049 243.273 188.528C242.92 188.007 242.414 187.608 241.824 187.388C241.235 187.167 240.592 187.136 239.983 187.298C239.375 187.459 238.832 187.806 238.43 188.29Z" fill="url(#paint9_linear_1_1200)"/>
<path d="M371.639 102.201L381.345 92.5013L381.345 92.5009L394.206 79.6335L403.205 88.6328L390.338 101.493L389.63 102.2L390.338 102.908L403.205 115.776L394.206 124.775L381.345 111.908L381.345 111.907L371.639 102.201Z" stroke="url(#paint10_linear_1_1200)" stroke-width="2"/>
<path d="M350.93 470.698L323.636 411.147L378.225 411.147L350.93 470.698Z" fill="#EA00FE"/>
<path d="M283.174 399.304L306.594 313.812H395.269L418.69 399.304H283.174Z" fill="url(#paint11_linear_1_1200)" stroke="url(#paint12_linear_1_1200)"/>
<path fill-rule="evenodd" clip-rule="evenodd" d="M355.04 225.254C353.166 221.869 348.3 221.869 346.426 225.254L296.109 316.149L295.987 316.149L296.021 316.307L295.79 316.725H296.111L316.373 410.438L383.498 410.438L405.873 316.149L405.357 316.149L355.04 225.254Z" fill="url(#paint13_linear_1_1200)"/>
<path d="M346.426 225.254L346.863 225.496L346.426 225.254ZM355.04 225.254L354.603 225.496L355.04 225.254ZM296.109 316.149V316.649L296.404 316.649L296.546 316.391L296.109 316.149ZM295.987 316.149L295.987 315.649L295.367 315.649L295.498 316.254L295.987 316.149ZM296.021 316.307L296.458 316.55L296.549 316.385L296.51 316.202L296.021 316.307ZM295.79 316.725L295.352 316.483L294.941 317.225H295.79L295.79 316.725ZM296.111 316.725L296.6 316.62L296.515 316.225L296.111 316.225L296.111 316.725ZM316.373 410.438L315.884 410.544L315.969 410.938H316.373L316.373 410.438ZM383.498 410.438L383.498 410.938L383.893 410.938L383.985 410.554L383.498 410.438ZM405.873 316.149L406.36 316.264L406.506 315.649H405.873L405.873 316.149ZM405.357 316.149L404.92 316.391L405.062 316.649L405.357 316.649V316.149ZM346.863 225.496C348.547 222.454 352.919 222.454 354.603 225.496L355.478 225.011C353.413 221.283 348.052 221.283 345.988 225.011L346.863 225.496ZM296.546 316.391L346.863 225.496L345.988 225.011L295.671 315.906L296.546 316.391ZM295.987 316.649L296.109 316.649L296.109 315.649L295.987 315.649L295.987 316.649ZM296.51 316.202L296.475 316.043L295.498 316.254L295.532 316.413L296.51 316.202ZM296.227 316.967L296.458 316.55L295.583 316.065L295.352 316.483L296.227 316.967ZM296.111 316.225H295.79V317.225H296.111V316.225ZM316.861 410.333L296.6 316.62L295.623 316.831L315.884 410.544L316.861 410.333ZM383.498 409.938L316.373 409.938V410.938L383.498 410.938V409.938ZM405.387 316.033L383.012 410.323L383.985 410.554L406.36 316.264L405.387 316.033ZM405.357 316.649H405.873L405.873 315.649L405.357 315.649L405.357 316.649ZM354.603 225.496L404.92 316.391L405.794 315.906L355.478 225.011L354.603 225.496Z" fill="url(#paint14_linear_1_1200)"/>
<path d="M320.833 419.863L350.932 345.135L381.03 419.863H320.833Z" fill="#0909AC" stroke="url(#paint15_linear_1_1200)"/>
<g filter="url(#filter2_f_1_1200)">
<ellipse rx="30.4482" ry="31.1101" transform="matrix(0.707107 -0.707107 -0.707107 -0.707107 351.796 423.257)" fill="#EA00FE"/>
</g>
<circle r="18.5337" transform="matrix(0.707107 -0.707107 -0.707107 -0.707107 351.327 422.789)" fill="white" fill-opacity="0.4"/>
<circle r="26.4767" transform="matrix(0.707107 -0.707107 -0.707107 -0.707107 351.329 422.789)" fill="white" fill-opacity="0.2"/>
<circle r="9.26685" transform="matrix(0.707107 -0.707107 -0.707107 -0.707107 351.329 422.789)" fill="white"/>
<g filter="url(#filter3_f_1_1200)">
<ellipse rx="33.5915" ry="34.3218" transform="matrix(0.5 -0.866025 -0.866025 -0.5 350.372 308.672)" fill="#6D0687"/>
</g>
<circle r="20.447" transform="matrix(0.5 -0.866025 -0.866025 -0.5 350.264 308.609)" fill="white" fill-opacity="0.4"/>
<circle r="29.21" transform="matrix(0.5 -0.866025 -0.866025 -0.5 350.265 308.609)" fill="white" fill-opacity="0.2"/>
<circle r="10.2235" transform="matrix(0.5 -0.866025 -0.866025 -0.5 350.107 308.404)" fill="white"/>
<defs>
<filter id="filter0_b_1_1200" x="-40" y="-39.0014" width="557.122" height="557.122" filterUnits="userSpaceOnUse" color-interpolation-filters="sRGB">
<feFlood flood-opacity="0" result="BackgroundImageFix"/>
<feGaussianBlur in="BackgroundImage" stdDeviation="20"/>
<feComposite in2="SourceAlpha" operator="in" result="effect1_backgroundBlur_1_1200"/>
<feBlend mode="normal" in="SourceGraphic" in2="effect1_backgroundBlur_1_1200" result="shape"/>
</filter>
<filter id="filter1_b_1_1200" x="61.0363" y="62.1221" width="354.962" height="354.962" filterUnits="userSpaceOnUse" color-interpolation-filters="sRGB">
<feFlood flood-opacity="0" result="BackgroundImageFix"/>
<feGaussianBlur in="BackgroundImage" stdDeviation="20"/>
<feComposite in2="SourceAlpha" operator="in" result="effect1_backgroundBlur_1_1200"/>
<feBlend mode="normal" in="SourceGraphic" in2="effect1_backgroundBlur_1_1200" result="shape"/>
</filter>
<filter id="filter2_f_1_1200" x="281.63" y="353.091" width="140.332" height="140.332" filterUnits="userSpaceOnUse" color-interpolation-filters="sRGB">
<feFlood flood-opacity="0" result="BackgroundImageFix"/>
<feBlend mode="normal" in="SourceGraphic" in2="BackgroundImageFix" result="shape"/>
<feGaussianBlur stdDeviation="19.6926" result="effect1_foregroundBlur_1_1200"/>
</filter>
<filter id="filter3_f_1_1200" x="276.84" y="235.506" width="147.064" height="146.332" filterUnits="userSpaceOnUse" color-interpolation-filters="sRGB">
<feFlood flood-opacity="0" result="BackgroundImageFix"/>
<feBlend mode="normal" in="SourceGraphic" in2="BackgroundImageFix" result="shape"/>
<feGaussianBlur stdDeviation="19.6926" result="effect1_foregroundBlur_1_1200"/>
</filter>
<radialGradient id="paint0_radial_1_1200" cx="0" cy="0" r="1" gradientUnits="userSpaceOnUse" gradientTransform="translate(96.7983 140.373) rotate(109.151) scale(61.8792)">
<stop stop-color="#FF7A00"/>
<stop offset="1" stop-color="#E71D73"/>
</radialGradient>
<linearGradient id="paint1_linear_1_1200" x1="653.112" y1="-158.943" x2="662.85" y2="673.585" gradientUnits="userSpaceOnUse">
<stop stop-color="#AD00FE"/>
<stop offset="1" stop-color="#1D1D1D" stop-opacity="0"/>
</linearGradient>
<linearGradient id="paint2_linear_1_1200" x1="-20.2083" y1="291.116" x2="95.2614" y2="404.42" gradientUnits="userSpaceOnUse">
<stop stop-color="#6D0687"/>
<stop offset="1" stop-color="#AD00FE" stop-opacity="0"/>
</linearGradient>
<linearGradient id="paint3_linear_1_1200" x1="519.431" y1="-222.658" x2="527.367" y2="455.854" gradientUnits="userSpaceOnUse">
<stop stop-color="#AD00FE"/>
<stop offset="1" stop-color="#1D1D1D" stop-opacity="0"/>
</linearGradient>
<linearGradient id="paint4_linear_1_1200" x1="433.636" y1="149.839" x2="725.762" y2="348.721" gradientUnits="userSpaceOnUse">
<stop stop-color="#9709BB"/>
<stop offset="1" stop-color="#33004A" stop-opacity="0"/>
</linearGradient>
<radialGradient id="paint5_radial_1_1200" cx="0" cy="0" r="1" gradientUnits="userSpaceOnUse" gradientTransform="translate(455.793 161.212) rotate(131.836) scale(83.0602)">
<stop stop-color="#AD00FE"/>
<stop offset="1" stop-color="#1D1D1D" stop-opacity="0"/>
</radialGradient>
<linearGradient id="paint6_linear_1_1200" x1="362.802" y1="80.8374" x2="257.972" y2="247.382" gradientUnits="userSpaceOnUse">
<stop offset="0.10597" stop-color="#9709BB"/>
<stop offset="1" stop-color="#1D1D1D" stop-opacity="0"/>
</linearGradient>
<radialGradient id="paint7_radial_1_1200" cx="0" cy="0" r="1" gradientUnits="userSpaceOnUse" gradientTransform="translate(335.74 190.08) rotate(131.836) scale(34.7497)">
<stop stop-color="#AD00FE"/>
<stop offset="1" stop-color="#1D1D1D" stop-opacity="0"/>
</radialGradient>
<linearGradient id="paint8_linear_1_1200" x1="148.421" y1="138.663" x2="332.322" y2="314.413" gradientUnits="userSpaceOnUse">
<stop stop-color="#EE7505"/>
<stop offset="0.635417" stop-color="#5700C5" stop-opacity="0"/>
</linearGradient>
<linearGradient id="paint9_linear_1_1200" x1="231.999" y1="155" x2="264.999" y2="292" gradientUnits="userSpaceOnUse">
<stop stop-color="#FF7A00"/>
<stop offset="1" stop-color="#AD00FE" stop-opacity="0"/>
</linearGradient>
<linearGradient id="paint10_linear_1_1200" x1="363.729" y1="61.6203" x2="464.765" y2="136.676" gradientUnits="userSpaceOnUse">
<stop stop-color="#9709BB"/>
<stop offset="1" stop-color="#9709BB" stop-opacity="0"/>
</linearGradient>
<linearGradient id="paint11_linear_1_1200" x1="356.103" y1="263.277" x2="359.7" y2="403.475" gradientUnits="userSpaceOnUse">
<stop stop-color="#6B01FE"/>
<stop offset="1" stop-color="#0909AC" stop-opacity="0"/>
</linearGradient>
<linearGradient id="paint12_linear_1_1200" x1="351.098" y1="340.597" x2="350.932" y2="399.804" gradientUnits="userSpaceOnUse">
<stop offset="0.267771" stop-color="#6B01FE"/>
<stop offset="1" stop-color="#6B01FE" stop-opacity="0"/>
</linearGradient>
<linearGradient id="paint13_linear_1_1200" x1="299.233" y1="186.259" x2="287.099" y2="458.728" gradientUnits="userSpaceOnUse">
<stop stop-color="#EA00FE" stop-opacity="0.72"/>
<stop offset="1" stop-color="#2401FE" stop-opacity="0"/>
</linearGradient>
<linearGradient id="paint14_linear_1_1200" x1="289.717" y1="170.729" x2="493.94" y2="517.097" gradientUnits="userSpaceOnUse">
<stop stop-color="#EA00FE"/>
<stop offset="1" stop-color="#6B01FE" stop-opacity="0"/>
</linearGradient>
<linearGradient id="paint15_linear_1_1200" x1="351.097" y1="368.954" x2="350.932" y2="420.363" gradientUnits="userSpaceOnUse">
<stop stop-color="#6B01FE"/>
<stop offset="1" stop-color="#6B01FE" stop-opacity="0"/>
</linearGradient>
</defs>
</svg>
