<svg width="90" height="90" viewBox="0 0 90 90" fill="none" xmlns="http://www.w3.org/2000/svg">
<mask id="mask0_1_1063" style="mask-type:alpha" maskUnits="userSpaceOnUse" x="0" y="0" width="90" height="90">
<rect width="90" height="90" fill="#D9D9D9"/>
</mask>
<g mask="url(#mask0_1_1063)">
<path d="M10.8847 78.6652L19.594 55.2173L34.3327 69.956L10.8847 78.6652Z" fill="#EA00FE"/>
<path d="M41.3047 24.098L65.4525 48.2458L48.4976 77.9954L11.5552 41.0529L41.3047 24.098Z" fill="url(#paint0_linear_1_1063)"/>
<path fill-rule="evenodd" clip-rule="evenodd" d="M78.9782 11.6424C79.1661 10.9887 78.5611 10.3838 77.9075 10.5716L37.7787 22.1029L37.7786 22.1027L37.7784 22.103L37.7779 22.1031L37.7782 22.1033L17.825 53.0647L35.9485 71.1881L67.4467 51.7719L67.4474 51.7716L67.447 51.7711L78.9782 11.6424Z" fill="#0001FE"/>
<path d="M45.1476 44.4026L32.8016 73.4014L16.1488 56.7486L45.1476 44.4026Z" fill="#0909AC"/>
<g filter="url(#filter0_f_1_1063)">
<ellipse rx="11.626" ry="11.8788" transform="matrix(1 0 0 -1 23.9277 66.0898)" fill="#EA00FE"/>
</g>
<circle r="7.07672" transform="matrix(1 0 0 -1 23.9275 65.8371)" fill="white" fill-opacity="0.4"/>
<circle r="10.1096" transform="matrix(1 0 0 -1 23.9279 65.8373)" fill="white" fill-opacity="0.2"/>
<circle r="3.53836" transform="matrix(1 0 0 -1 23.927 65.8372)" fill="white"/>
<g filter="url(#filter1_f_1_1063)">
<ellipse rx="12.8262" ry="13.1051" transform="matrix(1 0 0 -1 54.4805 34.7682)" fill="#0001FE"/>
</g>
<circle r="7.80728" transform="matrix(1 0 0 -1 54.4802 34.7204)" fill="white" fill-opacity="0.4"/>
<circle r="11.1533" transform="matrix(1 0 0 -1 54.4804 34.7205)" fill="white" fill-opacity="0.2"/>
<circle r="3.90364" transform="matrix(1 0 0 -1 54.5178 34.6288)" fill="white"/>
</g>
<defs>
<filter id="filter0_f_1_1063" x="5.37853" y="47.2879" width="37.0984" height="37.6039" filterUnits="userSpaceOnUse" color-interpolation-filters="sRGB">
<feFlood flood-opacity="0" result="BackgroundImageFix"/>
<feBlend mode="normal" in="SourceGraphic" in2="BackgroundImageFix" result="shape"/>
<feGaussianBlur stdDeviation="3.46158" result="effect1_foregroundBlur_1_1063"/>
</filter>
<filter id="filter1_f_1_1063" x="34.7311" y="14.7399" width="39.4988" height="40.0565" filterUnits="userSpaceOnUse" color-interpolation-filters="sRGB">
<feFlood flood-opacity="0" result="BackgroundImageFix"/>
<feBlend mode="normal" in="SourceGraphic" in2="BackgroundImageFix" result="shape"/>
<feGaussianBlur stdDeviation="3.46158" result="effect1_foregroundBlur_1_1063"/>
</filter>
<linearGradient id="paint0_linear_1_1063" x1="38.6595" y1="47.8213" x2="7.50943" y2="77.973" gradientUnits="userSpaceOnUse">
<stop stop-color="#0909AC"/>
<stop offset="1" stop-color="#0909AC" stop-opacity="0"/>
</linearGradient>
</defs>
</svg>
