<svg width="90" height="90" viewBox="0 0 90 90" fill="none" xmlns="http://www.w3.org/2000/svg">
<path d="M44.9121 32.7664L8.96484 57.1213L44.9121 81.4744L80.8594 57.1213L44.9121 32.7664Z" fill="url(#paint0_linear_1_1142)"/>
<path d="M44.9121 21.6655L8.96484 45.9062L44.9121 70.1469L80.8594 45.9062L44.9121 21.6655Z" fill="url(#paint1_linear_1_1142)"/>
<path d="M44.9121 8.52565L8.96484 32.8796L44.9121 57.2336L80.8594 32.8796L44.9121 8.52565Z" fill="#0001FE"/>
<g filter="url(#filter0_f_1_1142)">
<path d="M44.9121 17.0923L21.8243 32.8796L44.9121 48.667L68 32.8796L44.9121 17.0923Z" fill="#EA01FE"/>
</g>
<path d="M44.9117 19.8528L26.042 32.8794L44.9117 45.9059L63.7813 32.8794L44.9117 19.8528Z" fill="white" fill-opacity="0.2"/>
<path d="M44.9121 24.6106L32.5783 32.8797L44.9121 41.1487L57.2459 32.8797L44.9121 24.6106Z" fill="white" fill-opacity="0.4"/>
<path d="M44.9121 28.915L39.1142 32.8796L44.9121 36.8442L50.7101 32.8796L44.9121 28.915Z" fill="white"/>
<defs>
<filter id="filter0_f_1_1142" x="15.7375" y="11.0055" width="58.3492" height="43.7482" filterUnits="userSpaceOnUse" color-interpolation-filters="sRGB">
<feFlood flood-opacity="0" result="BackgroundImageFix"/>
<feBlend mode="normal" in="SourceGraphic" in2="BackgroundImageFix" result="shape"/>
<feGaussianBlur stdDeviation="3.04337" result="effect1_foregroundBlur_1_1142"/>
</filter>
<linearGradient id="paint0_linear_1_1142" x1="44.9121" y1="32.7664" x2="44.9121" y2="81.4744" gradientUnits="userSpaceOnUse">
<stop stop-color="#0001FE"/>
<stop offset="1" stop-color="#0001FE"/>
</linearGradient>
<linearGradient id="paint1_linear_1_1142" x1="74.5343" y1="21.6655" x2="-12.2877" y2="54.4654" gradientUnits="userSpaceOnUse">
<stop stop-color="#07088E"/>
<stop offset="1" stop-color="#0001FE"/>
</linearGradient>
</defs>
</svg>
