<svg width="90" height="90" viewBox="0 0 90 90" fill="none" xmlns="http://www.w3.org/2000/svg">
<path d="M84.682 54.9693C84.682 63.7353 77.5712 70.8398 68.8003 70.8398H23.1404C13.2763 70.8398 5.27344 62.8426 5.27344 52.9855C5.27344 45.2446 10.2031 38.6555 17.0878 36.1787C17.16 36.1528 17.2078 36.0833 17.2051 36.0065C17.1951 35.7147 17.1847 35.4229 17.1847 35.1311C17.1847 24.1693 26.0673 15.293 37.0369 15.293C44.3286 15.293 50.6922 19.2129 54.1514 25.0744C54.203 25.162 54.3178 25.1887 54.4031 25.1334C56.2582 23.9317 58.4825 23.2282 60.8594 23.2282C67.4355 23.2282 72.7707 28.5597 72.7707 35.1311C72.7707 36.57 72.5112 37.9539 72.0486 39.2252C72.0115 39.3274 72.0735 39.4396 72.1798 39.4625C79.3248 41.0049 84.682 47.3666 84.682 54.9693Z" fill="#0001FE"/>
<g filter="url(#filter0_f_1_951)">
<path d="M44.978 23.4072L68.253 62.726H21.7031L44.978 23.4072Z" fill="#EA00FE"/>
</g>
<path d="M44.9792 27.9268L63.7347 60.2405H26.2236L44.9792 27.9268Z" fill="#EA00FE"/>
<path d="M44.9781 36.2877L56.2766 55.9471H33.6796L44.9781 36.2877Z" fill="white" fill-opacity="0.6"/>
<path d="M44.9784 43.9707L49.9497 52.3316H40.007L44.9784 43.9707Z" fill="white"/>
<defs>
<filter id="filter0_f_1_951" x="14.6719" y="16.376" width="60.6123" height="53.3813" filterUnits="userSpaceOnUse" color-interpolation-filters="sRGB">
<feFlood flood-opacity="0" result="BackgroundImageFix"/>
<feBlend mode="normal" in="SourceGraphic" in2="BackgroundImageFix" result="shape"/>
<feGaussianBlur stdDeviation="3.51562" result="effect1_foregroundBlur_1_951"/>
</filter>
</defs>
</svg>
