<svg width="90" height="90" viewBox="0 0 90 90" fill="none" xmlns="http://www.w3.org/2000/svg">
<ellipse cx="44.8441" cy="45.1969" rx="35.8148" ry="36.0138" fill="url(#paint0_linear_1_1013)"/>
<ellipse cx="44.8445" cy="45.1971" rx="26.8611" ry="27.0601" fill="#050683"/>
<ellipse cx="44.8442" cy="45.1969" rx="19.3002" ry="19.4992" fill="black"/>
<path d="M57.06 33.5284L51.8543 52.8035L37.7849 38.7341L57.06 33.5284Z" fill="#EA00FE"/>
<path d="M32.5796 58.0091L37.7852 38.734L51.8546 52.8034L32.5796 58.0091Z" fill="#0001FE"/>
<g filter="url(#filter0_f_1_1013)">
<ellipse rx="11.8302" ry="12.0874" transform="matrix(1 0 0 -1 67.1703 22.3091)" fill="#EA00FE"/>
</g>
<circle r="7.84511" transform="matrix(1 0 0 -1 67.1701 22.2612)" fill="white" fill-opacity="0.4"/>
<circle r="11.2073" transform="matrix(1 0 0 -1 67.1701 22.2612)" fill="white" fill-opacity="0.2"/>
<circle r="3.92255" transform="matrix(1 0 0 -1 67.1706 22.261)" fill="white"/>
<g filter="url(#filter1_f_1_1013)">
<ellipse rx="10.3634" ry="10.5887" transform="matrix(1 0 0 -1 23.3392 67.5297)" fill="#0001FE"/>
</g>
<circle r="6.30818" transform="matrix(1 0 0 -1 23.3393 67.4911)" fill="white" fill-opacity="0.4"/>
<circle r="9.01169" transform="matrix(1 0 0 -1 23.3388 67.4912)" fill="white" fill-opacity="0.2"/>
<circle r="3.15409" transform="matrix(1 0 0 -1 23.3697 67.4171)" fill="white"/>
<defs>
<filter id="filter0_f_1_1013" x="49.5125" y="4.39413" width="35.3156" height="35.83" filterUnits="userSpaceOnUse" color-interpolation-filters="sRGB">
<feFlood flood-opacity="0" result="BackgroundImageFix"/>
<feBlend mode="normal" in="SourceGraphic" in2="BackgroundImageFix" result="shape"/>
<feGaussianBlur stdDeviation="2.91378" result="effect1_foregroundBlur_1_1013"/>
</filter>
<filter id="filter1_f_1_1013" x="5.01691" y="48.9821" width="36.6446" height="37.0952" filterUnits="userSpaceOnUse" color-interpolation-filters="sRGB">
<feFlood flood-opacity="0" result="BackgroundImageFix"/>
<feBlend mode="normal" in="SourceGraphic" in2="BackgroundImageFix" result="shape"/>
<feGaussianBlur stdDeviation="3.97943" result="effect1_foregroundBlur_1_1013"/>
</filter>
<linearGradient id="paint0_linear_1_1013" x1="72.3022" y1="4.4078" x2="18.5799" y2="76.4354" gradientUnits="userSpaceOnUse">
<stop stop-color="#EA01FE"/>
<stop offset="0.473958" stop-color="#2401FE"/>
<stop offset="1" stop-color="#0001FE"/>
</linearGradient>
</defs>
</svg>
