<svg width="188" height="204" viewBox="0 0 188 204" fill="none" xmlns="http://www.w3.org/2000/svg">
<g filter="url(#filter0_f_1_154)">
<path d="M147.561 100.825L147.565 70.9162L94.0169 40L66.3173 55.998L40.4609 70.9293L40.4562 102.889L40.4534 132.775L94.0017 163.691L121.701 147.693L147.558 132.762L147.561 100.825Z" fill="#4B0980"/>
</g>
<path d="M136.561 101.035L136.564 77.269L94.0144 52.7028L72.0041 65.4149L51.4584 77.2794L51.4547 102.675L51.4524 126.422L94.0023 150.989L116.013 138.276L136.558 126.412L136.561 101.035Z" fill="url(#paint0_linear_1_154)"/>
<path d="M123.711 101.28L123.714 84.6908L94.0123 67.5428L78.6484 76.4163L64.3069 84.6981L64.3043 102.425L64.3027 119.001L94.0039 136.149L109.368 127.276L123.709 118.994L123.711 101.28Z" fill="#8F37FF"/>
<path d="M109.714 101.546L109.715 92.7759L94.0128 83.7101L85.8902 88.4013L78.3081 92.7798L78.3067 102.152L78.3059 110.915L94.0084 119.981L102.131 115.29L109.713 110.911L109.714 101.546Z" fill="white"/>
<defs>
<filter id="filter0_f_1_154" x="0.453369" y="0" width="187.112" height="203.691" filterUnits="userSpaceOnUse" color-interpolation-filters="sRGB">
<feFlood flood-opacity="0" result="BackgroundImageFix"/>
<feBlend mode="normal" in="SourceGraphic" in2="BackgroundImageFix" result="shape"/>
<feGaussianBlur stdDeviation="20" result="effect1_foregroundBlur_1_154"/>
</filter>
<linearGradient id="paint0_linear_1_154" x1="131.151" y1="16.3516" x2="60.5856" y2="152.959" gradientUnits="userSpaceOnUse">
<stop stop-color="#8E00FE"/>
<stop offset="1" stop-color="#8E00FE" stop-opacity="0"/>
</linearGradient>
</defs>
</svg>
