<svg width="153" height="165" viewBox="0 0 153 165" fill="none" xmlns="http://www.w3.org/2000/svg">
<g filter="url(#filter0_f_1_181)">
<path d="M112.894 81.3952L112.897 61.0405L76.4535 40L57.6021 50.8876L40.0052 61.0494L40.002 82.8002L40 103.139L76.4431 124.18L95.2945 113.292L112.891 103.13L112.894 81.3952Z" fill="#4B0980"/>
</g>
<path d="M105.408 81.5379L105.41 65.3639L76.4523 48.645L61.4728 57.2964L47.4902 65.371L47.4876 82.6544L47.4861 98.816L76.4441 115.535L91.4236 106.883L105.406 98.8089L105.408 81.5379Z" fill="url(#paint0_linear_1_181)"/>
<path d="M96.6632 81.7045L96.6648 70.4146L76.4512 58.7443L65.9951 64.7832L56.2348 70.4195L56.233 82.4838L56.2319 93.7651L76.4455 105.435L86.9016 99.3965L96.662 93.7602L96.6632 81.7045Z" fill="#8F37FF"/>
<path d="M87.1356 81.8861L87.1364 75.9173L76.4498 69.7474L70.9219 72.9401L65.7618 75.9199L65.7608 82.2981L65.7603 88.2623L76.4468 94.4322L81.9748 91.2395L87.1349 88.2597L87.1356 81.8861Z" fill="white"/>
<defs>
<filter id="filter0_f_1_181" x="0" y="0" width="152.896" height="164.18" filterUnits="userSpaceOnUse" color-interpolation-filters="sRGB">
<feFlood flood-opacity="0" result="BackgroundImageFix"/>
<feBlend mode="normal" in="SourceGraphic" in2="BackgroundImageFix" result="shape"/>
<feGaussianBlur stdDeviation="20" result="effect1_foregroundBlur_1_181"/>
</filter>
<linearGradient id="paint0_linear_1_181" x1="101.726" y1="23.9057" x2="53.7019" y2="116.876" gradientUnits="userSpaceOnUse">
<stop stop-color="#8E00FE"/>
<stop offset="1" stop-color="#8E00FE" stop-opacity="0"/>
</linearGradient>
</defs>
</svg>
