<svg width="444" height="422" viewBox="0 0 444 422" fill="none" xmlns="http://www.w3.org/2000/svg">
<ellipse cx="221.499" cy="211.498" rx="210.5" ry="210.5" transform="rotate(90 221.499 211.498)" fill="url(#paint0_linear_1_1154)" fill-opacity="0.4"/>
<ellipse cx="221.499" cy="211.498" rx="112.98" ry="112.98" transform="rotate(90 221.499 211.498)" fill="url(#paint1_linear_1_1154)" fill-opacity="0.4"/>
<ellipse cx="380.499" cy="92.5002" rx="63.5" ry="63.5" transform="rotate(90 380.499 92.5002)" fill="url(#paint2_linear_1_1154)" fill-opacity="0.4"/>
<ellipse cx="160.381" cy="117.382" rx="46.3814" ry="46.3814" transform="rotate(90 160.381 117.382)" fill="url(#paint3_linear_1_1154)" fill-opacity="0.4"/>
<g filter="url(#filter0_f_1_1154)">
<ellipse rx="54.5303" ry="55.7158" transform="matrix(-4.37114e-08 -1 -1 4.37114e-08 143.188 295.183)" fill="#3A0A7D"/>
</g>
<circle r="33.1924" transform="matrix(-4.37114e-08 -1 -1 4.37114e-08 142.985 295.183)" fill="white" fill-opacity="0.4"/>
<circle r="47.4177" transform="matrix(-4.37114e-08 -1 -1 4.37114e-08 142.986 295.183)" fill="white" fill-opacity="0.2"/>
<circle r="16.5962" transform="matrix(-4.37114e-08 -1 -1 4.37114e-08 142.986 295.183)" fill="white"/>
<g filter="url(#filter1_f_1_1154)">
<ellipse rx="27.4697" ry="28.0668" transform="matrix(-4.37114e-08 -1 -1 4.37114e-08 334.066 229.128)" fill="#3A0A7D"/>
</g>
<circle r="16.7207" transform="matrix(-4.37114e-08 -1 -1 4.37114e-08 333.964 229.128)" fill="white" fill-opacity="0.4"/>
<circle r="23.8867" transform="matrix(-4.37114e-08 -1 -1 4.37114e-08 333.964 229.128)" fill="white" fill-opacity="0.2"/>
<circle r="8.36034" transform="matrix(-4.37114e-08 -1 -1 4.37114e-08 333.964 229.128)" fill="white"/>
<g filter="url(#filter2_f_1_1154)">
<ellipse rx="27.4697" ry="28.0668" transform="matrix(-4.37114e-08 -1 -1 4.37114e-08 68.0665 73.1282)" fill="#3A0A7D"/>
</g>
<circle r="16.7207" transform="matrix(-4.37114e-08 -1 -1 4.37114e-08 67.9644 73.1284)" fill="white" fill-opacity="0.4"/>
<circle r="23.8867" transform="matrix(-4.37114e-08 -1 -1 4.37114e-08 67.9644 73.1282)" fill="white" fill-opacity="0.2"/>
<circle r="8.36034" transform="matrix(-4.37114e-08 -1 -1 4.37114e-08 67.9643 73.1282)" fill="white"/>
<defs>
<filter id="filter0_f_1_1154" x="47.4725" y="200.653" width="191.432" height="189.061" filterUnits="userSpaceOnUse" color-interpolation-filters="sRGB">
<feFlood flood-opacity="0" result="BackgroundImageFix"/>
<feBlend mode="normal" in="SourceGraphic" in2="BackgroundImageFix" result="shape"/>
<feGaussianBlur stdDeviation="20" result="effect1_foregroundBlur_1_1154"/>
</filter>
<filter id="filter1_f_1_1154" x="265.999" y="161.658" width="136.134" height="134.939" filterUnits="userSpaceOnUse" color-interpolation-filters="sRGB">
<feFlood flood-opacity="0" result="BackgroundImageFix"/>
<feBlend mode="normal" in="SourceGraphic" in2="BackgroundImageFix" result="shape"/>
<feGaussianBlur stdDeviation="20" result="effect1_foregroundBlur_1_1154"/>
</filter>
<filter id="filter2_f_1_1154" x="-0.000366211" y="5.65845" width="136.134" height="134.939" filterUnits="userSpaceOnUse" color-interpolation-filters="sRGB">
<feFlood flood-opacity="0" result="BackgroundImageFix"/>
<feBlend mode="normal" in="SourceGraphic" in2="BackgroundImageFix" result="shape"/>
<feGaussianBlur stdDeviation="20" result="effect1_foregroundBlur_1_1154"/>
</filter>
<linearGradient id="paint0_linear_1_1154" x1="10.999" y1="100.455" x2="378.891" y2="421.998" gradientUnits="userSpaceOnUse">
<stop stop-color="#0066FF" stop-opacity="0.22"/>
<stop offset="1" stop-color="#D14F4F"/>
</linearGradient>
<linearGradient id="paint1_linear_1_1154" x1="108.519" y1="151.898" x2="305.975" y2="324.478" gradientUnits="userSpaceOnUse">
<stop stop-color="#0066FF" stop-opacity="0.22"/>
<stop offset="1" stop-color="#D14F4F"/>
</linearGradient>
<linearGradient id="paint2_linear_1_1154" x1="316.999" y1="59.0025" x2="427.978" y2="156" gradientUnits="userSpaceOnUse">
<stop stop-color="#0066FF" stop-opacity="0.22"/>
<stop offset="1" stop-color="#FF0202"/>
</linearGradient>
<linearGradient id="paint3_linear_1_1154" x1="114" y1="92.9144" x2="195.061" y2="163.763" gradientUnits="userSpaceOnUse">
<stop stop-color="#0066FF" stop-opacity="0.22"/>
<stop offset="1" stop-color="#FE0098"/>
</linearGradient>
</defs>
</svg>
