<svg width="234" height="209" viewBox="0 0 234 209" fill="none" xmlns="http://www.w3.org/2000/svg">
<path d="M174.306 120.043L174.311 87.4837L116.017 53.8279L85.8632 71.2435L57.7156 87.498L57.7105 122.29L57.7073 154.824L116.001 188.48L146.155 171.064L174.303 154.81L174.306 120.043Z" fill="url(#paint0_linear_185_4)"/>
<path d="M156.7 120.378L156.704 97.6507L116.013 74.158L94.9644 86.3146L75.3165 97.6607L75.313 121.947L75.3108 144.656L116.001 168.149L137.05 155.992L156.698 144.646L156.7 120.378Z" fill="url(#paint1_linear_185_4)"/>
<path d="M137.527 120.743L137.529 108.728L116.016 96.3074L104.888 102.734L94.5008 108.733L94.499 121.572L94.4978 133.579L116.01 145.999L127.138 139.572L137.526 133.573L137.527 120.743Z" fill="#EA00FE"/>
<path d="M137.527 120.743L137.027 120.743V120.743L137.527 120.743ZM137.529 108.728L138.029 108.728L138.029 108.439L137.779 108.295L137.529 108.728ZM116.016 96.3074L116.266 95.8744L116.016 95.73L115.766 95.8744L116.016 96.3074ZM104.888 102.734L105.138 103.167L105.138 103.167L104.888 102.734ZM94.5008 108.733L94.2508 108.3L94.0009 108.444L94.0008 108.733L94.5008 108.733ZM94.499 121.572L93.999 121.572V121.572L94.499 121.572ZM94.4978 133.579L93.9978 133.579L93.9978 133.867L94.2478 134.012L94.4978 133.579ZM116.01 145.999L115.76 146.432L116.01 146.576L116.26 146.432L116.01 145.999ZM127.138 139.572L126.888 139.139L126.888 139.139L127.138 139.572ZM137.526 133.573L137.776 134.006L138.026 133.862L138.026 133.573L137.526 133.573ZM138.027 120.743L138.029 108.728L137.029 108.728L137.027 120.743L138.027 120.743ZM137.779 108.295L116.266 95.8744L115.766 96.7404L137.279 109.161L137.779 108.295ZM115.766 95.8744L104.638 102.301L105.138 103.167L116.266 96.7403L115.766 95.8744ZM104.638 102.301L94.2508 108.3L94.7509 109.166L105.138 103.167L104.638 102.301ZM94.0008 108.733L93.999 121.572L94.999 121.572L95.0008 108.733L94.0008 108.733ZM93.999 121.572L93.9978 133.579L94.9978 133.579L94.999 121.572L93.999 121.572ZM94.2478 134.012L115.76 146.432L116.26 145.566L94.7478 133.146L94.2478 134.012ZM116.26 146.432L127.388 140.005L126.888 139.139L115.76 145.566L116.26 146.432ZM127.388 140.005L137.776 134.006L137.276 133.14L126.888 139.139L127.388 140.005ZM138.026 133.573L138.027 120.743L137.027 120.743L137.026 133.573L138.026 133.573Z" fill="url(#paint2_linear_185_4)"/>
<g filter="url(#filter0_f_185_4)">
<ellipse rx="21.9373" ry="22.4142" transform="matrix(1 0 0 -1 62.4002 146.279)" fill="#EA00FE"/>
</g>
<circle r="13.3531" transform="matrix(1 0 0 -1 62.3998 146.199)" fill="white" fill-opacity="0.4"/>
<circle r="19.0759" transform="matrix(1 0 0 -1 62.3984 146.198)" fill="white" fill-opacity="0.2"/>
<circle r="6.67657" transform="matrix(1 0 0 -1 62.3989 146.198)" fill="white"/>
<g filter="url(#filter1_f_185_4)">
<ellipse rx="21.9373" ry="22.4142" transform="matrix(1 0 0 -1 171.926 146.279)" fill="#EA00FE"/>
</g>
<circle r="13.3531" transform="matrix(1 0 0 -1 171.925 146.199)" fill="white" fill-opacity="0.4"/>
<circle r="19.0759" transform="matrix(1 0 0 -1 171.924 146.198)" fill="white" fill-opacity="0.2"/>
<circle r="6.67657" transform="matrix(1 0 0 -1 171.924 146.198)" fill="white"/>
<g filter="url(#filter2_f_185_4)">
<ellipse rx="21.9373" ry="22.4142" transform="matrix(1 0 0 -1 117.793 63.1906)" fill="#EA00FE"/>
</g>
<circle r="13.3531" transform="matrix(1 0 0 -1 117.792 63.1098)" fill="white" fill-opacity="0.4"/>
<circle r="19.0759" transform="matrix(1 0 0 -1 117.791 63.1087)" fill="white" fill-opacity="0.2"/>
<circle r="6.67657" transform="matrix(1 0 0 -1 117.791 63.1093)" fill="white"/>
<defs>
<filter id="filter0_f_185_4" x="0.462891" y="83.8652" width="123.875" height="124.828" filterUnits="userSpaceOnUse" color-interpolation-filters="sRGB">
<feFlood flood-opacity="0" result="BackgroundImageFix"/>
<feBlend mode="normal" in="SourceGraphic" in2="BackgroundImageFix" result="shape"/>
<feGaussianBlur stdDeviation="20" result="effect1_foregroundBlur_185_4"/>
</filter>
<filter id="filter1_f_185_4" x="109.988" y="83.8652" width="123.875" height="124.828" filterUnits="userSpaceOnUse" color-interpolation-filters="sRGB">
<feFlood flood-opacity="0" result="BackgroundImageFix"/>
<feBlend mode="normal" in="SourceGraphic" in2="BackgroundImageFix" result="shape"/>
<feGaussianBlur stdDeviation="20" result="effect1_foregroundBlur_185_4"/>
</filter>
<filter id="filter2_f_185_4" x="55.8555" y="0.776367" width="123.875" height="124.828" filterUnits="userSpaceOnUse" color-interpolation-filters="sRGB">
<feFlood flood-opacity="0" result="BackgroundImageFix"/>
<feBlend mode="normal" in="SourceGraphic" in2="BackgroundImageFix" result="shape"/>
<feGaussianBlur stdDeviation="20" result="effect1_foregroundBlur_185_4"/>
</filter>
<linearGradient id="paint0_linear_185_4" x1="178.591" y1="4.82236" x2="70.7588" y2="173.538" gradientUnits="userSpaceOnUse">
<stop stop-color="#31003D"/>
<stop offset="1" stop-color="#AD04D7" stop-opacity="0"/>
</linearGradient>
<linearGradient id="paint1_linear_185_4" x1="131.822" y1="63.8185" x2="75.7042" y2="220.661" gradientUnits="userSpaceOnUse">
<stop/>
<stop offset="1" stop-opacity="0"/>
</linearGradient>
<linearGradient id="paint2_linear_185_4" x1="116.013" y1="96.3074" x2="87.0837" y2="162.83" gradientUnits="userSpaceOnUse">
<stop stop-color="#EA00FE"/>
<stop offset="1" stop-color="#8E00FE" stop-opacity="0"/>
</linearGradient>
</defs>
</svg>
