<svg width="23" height="17" viewBox="0 0 23 17" fill="none" xmlns="http://www.w3.org/2000/svg">
<path d="M19.457 2.53223C19.457 2.53223 17.1807 0.748047 14.4873 0.542969L14.248 1.02832C16.6816 1.62305 17.7959 2.47754 18.9648 3.52344C16.9551 2.49805 14.9658 1.53418 11.5068 1.53418C8.04785 1.53418 6.05859 2.49805 4.04883 3.52344C5.21777 2.47754 6.54394 1.52734 8.76562 1.02832L8.52637 0.542969C5.70312 0.80957 3.55664 2.53223 3.55664 2.53223C3.55664 2.53223 1.01367 6.22363 0.576172 13.4697C3.13965 16.4297 7.03613 16.4502 7.03613 16.4502L7.84961 15.3633C6.46875 14.8848 4.90332 14.0234 3.55664 12.4717C5.16309 13.6885 7.59668 14.96 11.5137 14.96C15.4307 14.96 17.8574 13.6953 19.4707 12.4717C18.124 14.0234 16.5586 14.8848 15.1777 15.3633L15.9912 16.4502C15.9912 16.4502 19.8877 16.4297 22.4512 13.4697C22 6.22363 19.457 2.53223 19.457 2.53223ZM8.2666 11.4805C7.30273 11.4805 6.52344 10.5918 6.52344 9.49121C6.52344 8.39063 7.30273 7.50195 8.2666 7.50195C9.23047 7.50195 10.0098 8.39063 10.0098 9.49121C10.0098 10.5918 9.23047 11.4805 8.2666 11.4805ZM14.7334 11.4805C13.7695 11.4805 12.9902 10.5918 12.9902 9.49121C12.9902 8.39063 13.7695 7.50195 14.7334 7.50195C15.6973 7.50195 16.4766 8.39063 16.4766 9.49121C16.4766 10.5918 15.6904 11.4805 14.7334 11.4805Z" fill="black"/>
</svg>
