<svg width="19" height="21" viewBox="0 0 19 21" fill="none" xmlns="http://www.w3.org/2000/svg">
<path d="M5.93357 20.0923C5.85689 20.0923 5.77178 20.0843 5.67765 20.0671L5.71606 19.6445L6.09536 19.6445C6.15834 19.6269 6.20834 19.5988 6.24705 19.5639C6.31334 19.504 6.35161 19.421 6.36731 19.3352C6.37256 19.3064 6.37509 19.2747 6.37509 19.2412C6.37509 19.0118 6.37304 18.7976 6.37032 18.51C6.36726 18.1871 6.36343 17.786 6.36025 17.326C2.90263 17.9537 2.09543 15.5254 2.0623 15.4209C1.51212 14.0302 0.755508 13.6757 0.753315 13.6746L0.724927 13.6588C-1.01777 12.4678 0.928377 12.4925 0.9339 12.4925H0.947265C2.31028 12.5884 3.03619 13.8452 3.07575 13.9154L3.0759 13.9153C3.49021 14.6252 3.99996 14.9752 4.50646 15.1198C5.24117 15.3296 5.98206 15.1174 6.4197 14.9365C6.48041 14.5776 6.5804 14.2674 6.70521 14.0045C6.7893 13.8275 6.88494 13.6713 6.98779 13.5357C5.66741 13.3484 4.3442 12.9658 3.31051 12.0957C2.1636 11.1302 1.38628 9.5793 1.38628 7.05721H1.38711C1.38722 6.35194 1.5093 5.70945 1.73206 5.12891C1.95285 4.5535 2.27284 4.03797 2.67129 3.58156C2.59506 3.36494 2.48919 2.9874 2.45577 2.48761C2.4149 1.87636 2.48159 1.07881 2.84324 0.164422L2.85159 0.147726C2.85181 0.147284 3.00882 0.0135665 3.23077 0.00233057C3.37717 -0.00507017 3.59814 0.00261476 3.89636 0.0629096C4.47715 0.180343 5.36679 0.50241 6.59498 1.32236C7.08023 1.19191 7.58105 1.09278 8.08905 1.02445C8.63871 0.950542 9.19838 0.912623 9.75733 0.91013H9.759C10.3173 0.912624 10.8764 0.950558 11.4257 1.02442C11.9339 1.09278 12.4352 1.19201 12.9214 1.32244C15.3902 -0.326268 16.528 0.0373627 16.5313 0.0383406L16.6308 0.0678328L16.6691 0.164422C17.0322 1.08002 17.0995 1.87681 17.059 2.48677C17.0258 2.98645 16.9203 3.36383 16.8444 3.58063C17.2426 4.03589 17.5616 4.55077 17.7819 5.12597C18.0052 5.70884 18.1269 6.35242 18.1269 7.05721C18.1269 9.58629 17.3484 11.1365 16.1993 12.0985C15.1648 12.9645 13.84 13.3421 12.5168 13.5262C12.6716 13.7286 12.8106 13.9776 12.9192 14.274C13.0654 14.6731 13.157 15.1593 13.157 15.7339C13.157 16.7593 13.1495 17.8261 13.1445 18.5325C13.1426 18.7917 13.1412 18.9853 13.1412 19.2412H13.1404C13.1404 19.2731 13.1437 19.3074 13.1506 19.3431C13.167 19.4285 13.2049 19.5103 13.2695 19.5682C13.3049 19.5999 13.3498 19.6258 13.4056 19.6431L13.8065 19.643L13.8466 20.0655C13.7516 20.0838 13.6618 20.0923 13.5772 20.0924C13.4953 20.0924 13.4198 20.0842 13.3505 20.0689L6.15348 20.0703C6.08595 20.0845 6.01274 20.0922 5.93356 20.0922L5.93357 20.0923Z" fill="black"/>
</svg>
