<svg width="20" height="17" viewBox="0 0 20 17" fill="none" xmlns="http://www.w3.org/2000/svg">
<path d="M19.8327 2.22884C19.1764 2.59342 18.3744 2.81217 17.6452 2.88509C18.4473 2.37467 19.0306 1.57259 19.3223 0.624674C18.5931 1.06217 17.791 1.42676 16.8431 1.64551C16.1139 0.843425 15.166 0.333008 14.0723 0.333008C11.9577 0.333008 10.2077 2.15592 10.2077 4.48926C10.2077 4.78092 10.2077 5.14551 10.2806 5.43717C7.07227 5.29134 4.22852 3.61426 2.33268 1.13509C1.9681 1.71842 1.82227 2.44759 1.82227 3.24967C1.82227 4.70801 2.47852 5.94759 3.49935 6.67676C2.8431 6.67676 2.25977 6.45801 1.74935 6.16634V6.23926C1.74935 8.20801 3.06185 9.88509 4.81185 10.3226C4.52018 10.3955 4.1556 10.4684 3.79102 10.4684C3.57227 10.4684 3.2806 10.4684 3.06185 10.3955C3.57227 12.0726 4.95768 13.2393 6.63477 13.2393C5.32227 14.333 3.64518 14.9893 1.89518 14.9893C1.60352 14.9893 1.31185 14.9893 0.947266 14.9163C2.62435 16.083 4.66602 16.8122 6.85352 16.8122C13.9264 16.8122 17.791 10.5413 17.791 5.07259C17.791 4.92676 17.791 4.70801 17.791 4.56217C18.666 3.83301 19.3223 3.10384 19.8327 2.22884Z" fill="black"/>
</svg>
