<svg width="419" height="431" viewBox="0 0 419 431" fill="none" xmlns="http://www.w3.org/2000/svg">
<g clip-path="url(#clip0_194_282)">
<g filter="url(#filter0_b_194_282)">
<path d="M322.982 15L30.7236 422.747H588.018L322.982 15ZM322.982 365.887C276.596 365.887 239.188 328.292 239.188 282.093C239.188 235.707 276.783 198.299 322.982 198.299C369.181 198.299 406.776 235.894 406.776 282.093C406.776 328.292 369.181 365.887 322.982 365.887Z" fill="url(#paint0_linear_194_282)" fill-opacity="0.7"/>
<path d="M587.096 422.247H31.6972L322.962 15.8864L587.096 422.247ZM238.688 282.093C238.688 328.567 276.319 366.387 322.982 366.387C369.457 366.387 407.276 328.568 407.276 282.093C407.276 235.618 369.457 197.799 322.982 197.799C276.508 197.799 238.688 235.43 238.688 282.093Z" stroke="url(#paint1_linear_194_282)"/>
</g>
<g filter="url(#filter1_f_194_282)">
<ellipse rx="52.7176" ry="53.8636" transform="matrix(-4.37114e-08 -1 -0.999719 0.0237008 323.198 278.259)" fill="#001AFF"/>
</g>
<circle r="32.089" transform="matrix(-4.37114e-08 -1 -0.999719 0.0237008 322.05 278.288)" fill="white" fill-opacity="0.4"/>
<circle r="45.8414" transform="matrix(-4.37114e-08 -1 -0.999719 0.0237008 322.051 278.288)" fill="white" fill-opacity="0.2"/>
<circle r="16.0445" transform="matrix(-4.37114e-08 -1 -0.999719 0.0237008 322.051 278.288)" fill="white"/>
<path d="M235.153 153.004C235.516 170.397 221.709 184.791 204.316 185.153C186.923 185.515 172.529 171.709 172.166 154.316C171.804 136.923 185.61 122.529 203.004 122.166C220.397 121.804 234.791 135.61 235.153 153.004Z" fill="url(#paint2_linear_194_282)" fill-opacity="0.5" stroke="url(#paint3_linear_194_282)"/>
<g filter="url(#filter2_b_194_282)">
<path d="M323.113 15L27 422.776H489.366L323.113 15ZM258.183 365.911C217.722 365.911 185.092 328.314 185.092 282.112C185.092 235.722 217.885 198.312 258.183 198.312C298.481 198.312 331.274 235.91 331.274 282.112C331.274 328.314 298.481 365.911 258.183 365.911Z" fill="url(#paint4_linear_194_282)" fill-opacity="0.7"/>
<path d="M487.879 421.776H28.962L322.866 17.0424L487.879 421.776ZM184.092 282.112C184.092 328.732 217.044 366.911 258.183 366.911C299.157 366.911 332.274 328.733 332.274 282.112C332.274 235.49 299.157 197.312 258.183 197.312C217.21 197.312 184.092 235.301 184.092 282.112Z" stroke="url(#paint5_linear_194_282)" stroke-width="2"/>
</g>
<rect width="532" height="156" transform="matrix(-1 0 0 1 532 289)" fill="url(#paint6_linear_194_282)"/>
<ellipse opacity="0.7" cx="310.706" cy="197.184" rx="228.449" ry="81.4915" transform="rotate(162.689 310.706 197.184)" stroke="url(#paint7_linear_194_282)" stroke-width="3"/>
<circle cx="460.194" cy="210.824" r="37.5553" transform="rotate(9.51795 460.194 210.824)" fill="url(#paint8_linear_194_282)" stroke="url(#paint9_linear_194_282)"/>
<g filter="url(#filter3_f_194_282)">
<ellipse rx="21.4742" ry="21.941" transform="matrix(-0.999783 0.0208291 0.0208291 0.999783 184.927 299.384)" fill="#D14F4F"/>
</g>
<circle r="13.0712" transform="matrix(-0.999783 0.0208291 0.0208291 0.999783 184.928 299.463)" fill="white" fill-opacity="0.4"/>
<circle r="18.6732" transform="matrix(-0.999783 0.0208291 0.0208291 0.999783 184.927 299.463)" fill="white" fill-opacity="0.2"/>
<circle r="6.53561" transform="matrix(-0.999783 0.0208291 0.0208291 0.999783 184.929 299.464)" fill="white"/>
<g filter="url(#filter4_f_194_282)">
<ellipse rx="14.8519" ry="15.1747" transform="matrix(-0.999783 0.0208291 0.0208291 0.999783 132.166 195.481)" fill="#FF3D23"/>
</g>
<circle r="9.04027" transform="matrix(-0.999783 0.0208291 0.0208291 0.999783 132.166 195.535)" fill="white" fill-opacity="0.4"/>
<circle r="12.9147" transform="matrix(-0.999783 0.0208291 0.0208291 0.999783 132.167 195.536)" fill="white" fill-opacity="0.2"/>
<circle r="4.52013" transform="matrix(-0.999783 0.0208291 0.0208291 0.999783 132.166 195.536)" fill="white"/>
<g filter="url(#filter5_f_194_282)">
<ellipse rx="21.4742" ry="21.941" transform="matrix(-0.999783 0.0208291 0.0208291 0.999783 369.091 261.384)" fill="#8E00FE"/>
</g>
<circle r="13.0712" transform="matrix(-0.999783 0.0208291 0.0208291 0.999783 369.093 261.464)" fill="white" fill-opacity="0.4"/>
<circle r="18.6732" transform="matrix(-0.999783 0.0208291 0.0208291 0.999783 369.092 261.464)" fill="white" fill-opacity="0.2"/>
<circle r="6.53561" transform="matrix(-0.999783 0.0208291 0.0208291 0.999783 369.093 261.464)" fill="white"/>
<path d="M93.0969 232.845C102.625 232.845 110.349 240.569 110.349 250.097C110.349 259.625 102.625 267.349 93.0969 267.349C83.5688 267.349 75.8447 259.625 75.8447 250.097C75.8447 240.569 83.5688 232.845 93.0969 232.845Z" fill="url(#paint10_linear_194_282)" fill-opacity="0.5" stroke="url(#paint11_linear_194_282)"/>
</g>
<defs>
<filter id="filter0_b_194_282" x="-9.27637" y="-25" width="637.294" height="487.747" filterUnits="userSpaceOnUse" color-interpolation-filters="sRGB">
<feFlood flood-opacity="0" result="BackgroundImageFix"/>
<feGaussianBlur in="BackgroundImage" stdDeviation="20"/>
<feComposite in2="SourceAlpha" operator="in" result="effect1_backgroundBlur_194_282"/>
<feBlend mode="normal" in="SourceGraphic" in2="effect1_backgroundBlur_194_282" result="shape"/>
</filter>
<filter id="filter1_f_194_282" x="229.35" y="185.526" width="187.697" height="185.467" filterUnits="userSpaceOnUse" color-interpolation-filters="sRGB">
<feFlood flood-opacity="0" result="BackgroundImageFix"/>
<feBlend mode="normal" in="SourceGraphic" in2="BackgroundImageFix" result="shape"/>
<feGaussianBlur stdDeviation="20" result="effect1_foregroundBlur_194_282"/>
</filter>
<filter id="filter2_b_194_282" x="-13" y="-25" width="542.366" height="487.776" filterUnits="userSpaceOnUse" color-interpolation-filters="sRGB">
<feFlood flood-opacity="0" result="BackgroundImageFix"/>
<feGaussianBlur in="BackgroundImage" stdDeviation="20"/>
<feComposite in2="SourceAlpha" operator="in" result="effect1_backgroundBlur_194_282"/>
<feBlend mode="normal" in="SourceGraphic" in2="effect1_backgroundBlur_194_282" result="shape"/>
</filter>
<filter id="filter3_f_194_282" x="123.452" y="237.443" width="122.949" height="123.882" filterUnits="userSpaceOnUse" color-interpolation-filters="sRGB">
<feFlood flood-opacity="0" result="BackgroundImageFix"/>
<feBlend mode="normal" in="SourceGraphic" in2="BackgroundImageFix" result="shape"/>
<feGaussianBlur stdDeviation="20" result="effect1_foregroundBlur_194_282"/>
</filter>
<filter id="filter4_f_194_282" x="77.3135" y="140.306" width="109.704" height="110.349" filterUnits="userSpaceOnUse" color-interpolation-filters="sRGB">
<feFlood flood-opacity="0" result="BackgroundImageFix"/>
<feBlend mode="normal" in="SourceGraphic" in2="BackgroundImageFix" result="shape"/>
<feGaussianBlur stdDeviation="20" result="effect1_foregroundBlur_194_282"/>
</filter>
<filter id="filter5_f_194_282" x="307.616" y="199.443" width="122.949" height="123.882" filterUnits="userSpaceOnUse" color-interpolation-filters="sRGB">
<feFlood flood-opacity="0" result="BackgroundImageFix"/>
<feBlend mode="normal" in="SourceGraphic" in2="BackgroundImageFix" result="shape"/>
<feGaussianBlur stdDeviation="20" result="effect1_foregroundBlur_194_282"/>
</filter>
<linearGradient id="paint0_linear_194_282" x1="318.351" y1="15" x2="304.698" y2="471.927" gradientUnits="userSpaceOnUse">
<stop stop-color="#001AFF"/>
<stop offset="1" stop-color="#001AFF" stop-opacity="0"/>
</linearGradient>
<linearGradient id="paint1_linear_194_282" x1="322.902" y1="15" x2="387.527" y2="422.776" gradientUnits="userSpaceOnUse">
<stop stop-color="#0001FE"/>
<stop offset="1" stop-color="#0001FE" stop-opacity="0"/>
</linearGradient>
<linearGradient id="paint2_linear_194_282" x1="171.315" y1="137.449" x2="228.248" y2="185.155" gradientUnits="userSpaceOnUse">
<stop stop-color="#FF7A00"/>
<stop offset="0.626316" stop-color="#001AFF" stop-opacity="0"/>
<stop offset="1" stop-color="#001AFF"/>
</linearGradient>
<linearGradient id="paint3_linear_194_282" x1="149.981" y1="132.595" x2="204.326" y2="185.653" gradientUnits="userSpaceOnUse">
<stop stop-color="#EA00FE"/>
<stop offset="1" stop-color="#EA00FE" stop-opacity="0"/>
</linearGradient>
<linearGradient id="paint4_linear_194_282" x1="626.002" y1="-8.6655" x2="318.444" y2="533.445" gradientUnits="userSpaceOnUse">
<stop stop-color="#001AFF"/>
<stop offset="0.233434" stop-color="#7000FE"/>
<stop offset="1" stop-color="#001AFF" stop-opacity="0"/>
</linearGradient>
<linearGradient id="paint5_linear_194_282" x1="324.767" y1="206.894" x2="260.65" y2="469.402" gradientUnits="userSpaceOnUse">
<stop stop-color="#0066FF"/>
<stop offset="1" stop-opacity="0"/>
</linearGradient>
<linearGradient id="paint6_linear_194_282" x1="309.225" y1="143.553" x2="315.065" y2="18.9501" gradientUnits="userSpaceOnUse">
<stop/>
<stop offset="1" stop-opacity="0"/>
</linearGradient>
<linearGradient id="paint7_linear_194_282" x1="249.435" y1="71.3607" x2="219.026" y2="355.529" gradientUnits="userSpaceOnUse">
<stop stop-color="white"/>
<stop offset="0.3125" stop-color="#D000FE" stop-opacity="0.788732"/>
<stop offset="0.739583" stop-color="#7000FF" stop-opacity="0"/>
</linearGradient>
<linearGradient id="paint8_linear_194_282" x1="493.895" y1="177.731" x2="416.524" y2="298.921" gradientUnits="userSpaceOnUse">
<stop stop-color="#8E00FE"/>
<stop offset="1" stop-color="#16171A" stop-opacity="0"/>
</linearGradient>
<linearGradient id="paint9_linear_194_282" x1="460.194" y1="172.769" x2="460.194" y2="248.879" gradientUnits="userSpaceOnUse">
<stop stop-color="#EA00FE"/>
<stop offset="1" stop-color="#EA00FE" stop-opacity="0"/>
</linearGradient>
<linearGradient id="paint10_linear_194_282" x1="83.7322" y1="267.849" x2="110.849" y2="236.824" gradientUnits="userSpaceOnUse">
<stop stop-color="#FF7A00"/>
<stop offset="0.626316" stop-color="#001AFF" stop-opacity="0"/>
<stop offset="1" stop-color="#001AFF"/>
</linearGradient>
<linearGradient id="paint11_linear_194_282" x1="80.7934" y1="279.626" x2="110.849" y2="250.097" gradientUnits="userSpaceOnUse">
<stop stop-color="#EA00FE"/>
<stop offset="1" stop-color="#EA00FE" stop-opacity="0"/>
</linearGradient>
<clipPath id="clip0_194_282">
<rect width="419" height="431" fill="white"/>
</clipPath>
</defs>
</svg>
