<svg width="618" height="448" viewBox="0 0 618 448" fill="none" xmlns="http://www.w3.org/2000/svg">
<g filter="url(#filter0_b_1_230)">
<path d="M326.089 0L5.00098 447.969H617.269L326.089 0ZM326.089 385.5C275.127 385.5 234.029 344.196 234.029 293.44C234.029 242.479 275.333 201.38 326.089 201.38C376.845 201.38 418.149 242.684 418.149 293.44C418.149 344.196 376.845 385.5 326.089 385.5Z" fill="url(#paint0_linear_1_230)" fill-opacity="0.7"/>
<path d="M616.347 447.469H5.97453L326.069 0.88642L616.347 447.469ZM233.529 293.44C233.529 344.472 274.85 386 326.089 386C377.121 386 418.649 344.472 418.649 293.44C418.649 242.408 377.121 200.88 326.089 200.88C275.057 200.88 233.529 242.202 233.529 293.44Z" stroke="url(#paint1_linear_1_230)"/>
</g>
<g filter="url(#filter1_f_1_230)">
<ellipse rx="57.9179" ry="59.1769" transform="matrix(-4.37114e-08 -1 -0.999719 0.0237008 326.326 289.227)" fill="#001AFF"/>
</g>
<circle r="35.2543" transform="matrix(-4.37114e-08 -1 -0.999719 0.0237008 325.066 289.26)" fill="white" fill-opacity="0.4"/>
<circle r="50.3633" transform="matrix(-4.37114e-08 -1 -0.999719 0.0237008 325.067 289.26)" fill="white" fill-opacity="0.2"/>
<circle r="17.6272" transform="matrix(-4.37114e-08 -1 -0.999719 0.0237008 325.066 289.259)" fill="white"/>
<path d="M139.531 209.259C139.929 228.396 124.74 244.232 105.603 244.631C86.4671 245.029 70.6309 229.839 70.2322 210.703C69.8335 191.567 85.0233 175.731 104.16 175.332C123.296 174.933 139.132 190.123 139.531 209.259Z" fill="url(#paint2_linear_1_230)" fill-opacity="0.5" stroke="url(#paint3_linear_1_230)"/>
<g filter="url(#filter2_b_1_230)">
<path d="M326.233 0L0.910156 448H508.886L326.233 0ZM254.898 385.527C210.446 385.527 174.597 344.22 174.597 293.461C174.597 242.495 210.625 201.394 254.898 201.394C299.171 201.394 335.199 242.701 335.199 293.461C335.199 344.22 299.171 385.527 254.898 385.527Z" fill="url(#paint4_linear_1_230)" fill-opacity="0.7"/>
<path d="M507.398 447H2.87217L325.985 2.04236L507.398 447ZM173.597 293.461C173.597 344.638 209.768 386.527 254.898 386.527C299.847 386.527 336.199 344.64 336.199 293.461C336.199 242.281 299.847 200.394 254.898 200.394C209.95 200.394 173.597 242.074 173.597 293.461Z" stroke="url(#paint5_linear_1_230)" stroke-width="2"/>
</g>
<ellipse opacity="0.7" cx="312.602" cy="200.155" rx="250.984" ry="89.5302" transform="rotate(162.689 312.602 200.155)" stroke="url(#paint6_linear_1_230)" stroke-width="3"/>
<circle cx="496.146" cy="210.147" r="41.3092" transform="rotate(9.51795 496.146 210.147)" fill="url(#paint7_linear_1_230)" stroke="url(#paint8_linear_1_230)"/>
<g filter="url(#filter3_f_1_230)">
<ellipse rx="23.5924" ry="24.1053" transform="matrix(-0.999783 0.0208291 0.0208291 0.999783 180.09 313.691)" fill="#D14F4F"/>
</g>
<circle r="14.3606" transform="matrix(-0.999783 0.0208291 0.0208291 0.999783 180.092 313.779)" fill="white" fill-opacity="0.4"/>
<circle r="20.5152" transform="matrix(-0.999783 0.0208291 0.0208291 0.999783 180.091 313.779)" fill="white" fill-opacity="0.2"/>
<circle r="7.18031" transform="matrix(-0.999783 0.0208291 0.0208291 0.999783 180.093 313.779)" fill="white"/>
<g filter="url(#filter4_f_1_230)">
<ellipse rx="16.3169" ry="16.6716" transform="matrix(-0.999783 0.0208291 0.0208291 0.999783 523.66 190.107)" fill="#D14F4F"/>
</g>
<circle r="9.93203" transform="matrix(-0.999783 0.0208291 0.0208291 0.999783 523.661 190.168)" fill="white" fill-opacity="0.4"/>
<circle r="14.1886" transform="matrix(-0.999783 0.0208291 0.0208291 0.999783 523.661 190.168)" fill="white" fill-opacity="0.2"/>
<circle r="4.96602" transform="matrix(-0.999783 0.0208291 0.0208291 0.999783 523.661 190.168)" fill="white"/>
<g filter="url(#filter5_f_1_230)">
<ellipse rx="16.3169" ry="16.6716" transform="matrix(-0.999783 0.0208291 0.0208291 0.999783 525.302 100.248)" fill="#FF3D23"/>
</g>
<circle r="9.93203" transform="matrix(-0.999783 0.0208291 0.0208291 0.999783 525.303 100.309)" fill="white" fill-opacity="0.4"/>
<circle r="14.1886" transform="matrix(-0.999783 0.0208291 0.0208291 0.999783 525.304 100.309)" fill="white" fill-opacity="0.2"/>
<circle r="4.96602" transform="matrix(-0.999783 0.0208291 0.0208291 0.999783 525.303 100.309)" fill="white"/>
<g filter="url(#filter6_f_1_230)">
<ellipse rx="23.5924" ry="24.1053" transform="matrix(-0.999783 0.0208291 0.0208291 0.999783 434.09 250.691)" fill="#8E00FE"/>
</g>
<circle r="14.3606" transform="matrix(-0.999783 0.0208291 0.0208291 0.999783 434.092 250.779)" fill="white" fill-opacity="0.4"/>
<circle r="20.5152" transform="matrix(-0.999783 0.0208291 0.0208291 0.999783 434.091 250.779)" fill="white" fill-opacity="0.2"/>
<circle r="7.18031" transform="matrix(-0.999783 0.0208291 0.0208291 0.999783 434.093 250.779)" fill="white"/>
<path d="M101.35 278.583C108.579 286.192 108.271 298.22 100.662 305.449C93.0529 312.678 81.0246 312.37 73.7958 304.761C66.567 297.152 66.8751 285.124 74.4839 277.895C82.0927 270.666 94.121 270.974 101.35 278.583Z" fill="url(#paint9_linear_1_230)" fill-opacity="0.5" stroke="url(#paint10_linear_1_230)"/>
<defs>
<filter id="filter0_b_1_230" x="-34.999" y="-40" width="692.268" height="527.969" filterUnits="userSpaceOnUse" color-interpolation-filters="sRGB">
<feFlood flood-opacity="0" result="BackgroundImageFix"/>
<feGaussianBlur in="BackgroundImage" stdDeviation="20"/>
<feComposite in2="SourceAlpha" operator="in" result="effect1_backgroundBlur_1_230"/>
<feBlend mode="normal" in="SourceGraphic" in2="effect1_backgroundBlur_1_230" result="shape"/>
</filter>
<filter id="filter1_f_1_230" x="227.166" y="191.292" width="198.321" height="195.87" filterUnits="userSpaceOnUse" color-interpolation-filters="sRGB">
<feFlood flood-opacity="0" result="BackgroundImageFix"/>
<feBlend mode="normal" in="SourceGraphic" in2="BackgroundImageFix" result="shape"/>
<feGaussianBlur stdDeviation="20" result="effect1_foregroundBlur_1_230"/>
</filter>
<filter id="filter2_b_1_230" x="-39.0898" y="-40" width="587.976" height="528" filterUnits="userSpaceOnUse" color-interpolation-filters="sRGB">
<feFlood flood-opacity="0" result="BackgroundImageFix"/>
<feGaussianBlur in="BackgroundImage" stdDeviation="20"/>
<feComposite in2="SourceAlpha" operator="in" result="effect1_backgroundBlur_1_230"/>
<feBlend mode="normal" in="SourceGraphic" in2="effect1_backgroundBlur_1_230" result="shape"/>
</filter>
<filter id="filter3_f_1_230" x="116.497" y="249.586" width="127.186" height="128.21" filterUnits="userSpaceOnUse" color-interpolation-filters="sRGB">
<feFlood flood-opacity="0" result="BackgroundImageFix"/>
<feBlend mode="normal" in="SourceGraphic" in2="BackgroundImageFix" result="shape"/>
<feGaussianBlur stdDeviation="20" result="effect1_foregroundBlur_1_230"/>
</filter>
<filter id="filter4_f_1_230" x="467.343" y="133.436" width="112.634" height="113.343" filterUnits="userSpaceOnUse" color-interpolation-filters="sRGB">
<feFlood flood-opacity="0" result="BackgroundImageFix"/>
<feBlend mode="normal" in="SourceGraphic" in2="BackgroundImageFix" result="shape"/>
<feGaussianBlur stdDeviation="20" result="effect1_foregroundBlur_1_230"/>
</filter>
<filter id="filter5_f_1_230" x="468.985" y="43.5767" width="112.634" height="113.343" filterUnits="userSpaceOnUse" color-interpolation-filters="sRGB">
<feFlood flood-opacity="0" result="BackgroundImageFix"/>
<feBlend mode="normal" in="SourceGraphic" in2="BackgroundImageFix" result="shape"/>
<feGaussianBlur stdDeviation="20" result="effect1_foregroundBlur_1_230"/>
</filter>
<filter id="filter6_f_1_230" x="370.497" y="186.586" width="127.186" height="128.21" filterUnits="userSpaceOnUse" color-interpolation-filters="sRGB">
<feFlood flood-opacity="0" result="BackgroundImageFix"/>
<feBlend mode="normal" in="SourceGraphic" in2="BackgroundImageFix" result="shape"/>
<feGaussianBlur stdDeviation="20" result="effect1_foregroundBlur_1_230"/>
</filter>
<linearGradient id="paint0_linear_1_230" x1="321.001" y1="-4.06317e-06" x2="306.001" y2="502" gradientUnits="userSpaceOnUse">
<stop stop-color="#001AFF"/>
<stop offset="1" stop-color="#001AFF" stop-opacity="0"/>
</linearGradient>
<linearGradient id="paint1_linear_1_230" x1="326.001" y1="-1.93288e-06" x2="397.001" y2="448" gradientUnits="userSpaceOnUse">
<stop stop-color="#0001FE"/>
<stop offset="1" stop-color="#0001FE" stop-opacity="0"/>
</linearGradient>
<linearGradient id="paint2_linear_1_230" x1="69.346" y1="192.172" x2="131.895" y2="244.583" gradientUnits="userSpaceOnUse">
<stop stop-color="#FF7A00"/>
<stop offset="0.626316" stop-color="#001AFF" stop-opacity="0"/>
<stop offset="1" stop-color="#001AFF"/>
</linearGradient>
<linearGradient id="paint3_linear_1_230" x1="45.908" y1="186.839" x2="105.614" y2="245.131" gradientUnits="userSpaceOnUse">
<stop stop-color="#EA00FE"/>
<stop offset="1" stop-color="#EA00FE" stop-opacity="0"/>
</linearGradient>
<linearGradient id="paint4_linear_1_230" x1="659" y1="-25.9999" x2="321.104" y2="569.586" gradientUnits="userSpaceOnUse">
<stop stop-color="#001AFF"/>
<stop offset="0.233434" stop-color="#7000FE"/>
<stop offset="1" stop-color="#001AFF" stop-opacity="0"/>
</linearGradient>
<linearGradient id="paint5_linear_1_230" x1="328.05" y1="210.824" x2="257.609" y2="499.226" gradientUnits="userSpaceOnUse">
<stop stop-color="#0066FF"/>
<stop offset="1" stop-opacity="0"/>
</linearGradient>
<linearGradient id="paint6_linear_1_230" x1="245.286" y1="61.9205" x2="211.878" y2="374.121" gradientUnits="userSpaceOnUse">
<stop stop-color="white"/>
<stop offset="0.3125" stop-color="#D000FE" stop-opacity="0.788732"/>
<stop offset="0.739583" stop-color="#7000FF" stop-opacity="0"/>
</linearGradient>
<linearGradient id="paint7_linear_1_230" x1="533.172" y1="173.79" x2="448.169" y2="306.934" gradientUnits="userSpaceOnUse">
<stop stop-color="#8E00FE"/>
<stop offset="1" stop-color="#16171A" stop-opacity="0"/>
</linearGradient>
<linearGradient id="paint8_linear_1_230" x1="496.146" y1="168.338" x2="496.146" y2="251.956" gradientUnits="userSpaceOnUse">
<stop stop-color="#EA00FE"/>
<stop offset="1" stop-color="#EA00FE" stop-opacity="0"/>
</linearGradient>
<linearGradient id="paint9_linear_1_230" x1="66.3469" y1="297.646" x2="111.578" y2="295.767" gradientUnits="userSpaceOnUse">
<stop stop-color="#FF7A00"/>
<stop offset="0.626316" stop-color="#001AFF" stop-opacity="0"/>
<stop offset="1" stop-color="#001AFF"/>
</linearGradient>
<linearGradient id="paint10_linear_1_230" x1="54.7434" y1="304.217" x2="101.006" y2="305.812" gradientUnits="userSpaceOnUse">
<stop stop-color="#EA00FE"/>
<stop offset="1" stop-color="#EA00FE" stop-opacity="0"/>
</linearGradient>
</defs>
</svg>
