<svg width="520" height="529" viewBox="0 0 520 529" fill="none" xmlns="http://www.w3.org/2000/svg">
<rect x="341.137" y="73.5654" width="56.2873" height="56.2873" rx="28.1437" transform="rotate(135 341.137 73.5654)" fill="url(#paint0_linear_1_835)"/>
<rect x="492.887" y="171.96" width="54.3274" height="54.3274" rx="27.1637" transform="rotate(135 492.887 171.96)" fill="url(#paint1_linear_1_835)"/>
<rect x="482.663" y="354.283" width="48.5665" height="48.5665" rx="24.2832" transform="rotate(135 482.663 354.283)" fill="url(#paint2_linear_1_835)"/>
<rect x="174.921" y="351.815" width="53.8968" height="53.8968" rx="26.9484" transform="rotate(135 174.921 351.815)" fill="url(#paint3_linear_1_835)"/>
<rect x="323.288" y="451.292" width="51.5063" height="51.5063" rx="25.7531" transform="rotate(135 323.288 451.292)" fill="url(#paint4_linear_1_835)"/>
<circle cx="138.019" cy="174.326" r="26.7875" fill="url(#paint5_linear_1_835)"/>
<rect x="54.399" y="264.616" width="38.466" height="38.466" rx="19.233" transform="rotate(135 54.399 264.616)" fill="url(#paint6_radial_1_835)"/>
<rect x="169.755" y="214.3" width="100.556" height="100.556" rx="50.278" transform="rotate(90 169.755 214.3)" fill="url(#paint7_radial_1_835)" fill-opacity="0.4"/>
<rect x="448.342" y="363.485" width="102.205" height="102.204" rx="51.1022" transform="rotate(90 448.342 363.485)" fill="url(#paint8_radial_1_835)" fill-opacity="0.4"/>
<rect x="230.747" y="367.605" width="56.8719" height="56.8719" rx="28.4359" transform="rotate(90 230.747 367.605)" fill="url(#paint9_radial_1_835)"/>
<rect x="268.659" y="85.7197" width="56.8719" height="56.8719" rx="28.4359" transform="rotate(90 268.659 85.7197)" fill="url(#paint10_radial_1_835)" fill-opacity="0.4"/>
<g filter="url(#filter0_b_1_835)">
<path d="M447.745 428.6L388.174 394.818L388.766 318.153L448.343 351.928L447.745 428.6Z" fill="#D60B52" fill-opacity="0.1"/>
</g>
<g filter="url(#filter1_b_1_835)">
<path d="M298.562 147.538L239.91 113.756L239.813 37.0908L299.158 70.8657L298.562 147.538Z" fill="#D60B52" fill-opacity="0.1"/>
</g>
<path d="M447.982 428.6L513.077 390.967L513.664 314.619L448.549 352.273L447.982 428.6ZM299.157 147.802L364.272 110.141L364.867 33.7939L299.752 71.448L299.157 147.802ZM519.226 133.445L454.104 171.106L453.516 247.453L518.611 209.799L519.226 133.445Z" fill="url(#paint11_linear_1_835)" fill-opacity="0.6"/>
<g filter="url(#filter2_b_1_835)">
<path d="M453.521 247.269L393.944 213.494L394.535 136.822L454.113 170.604L453.521 247.269Z" fill="#D60B52" fill-opacity="0.15"/>
</g>
<path d="M389.011 318.325L448.39 351.946L513.672 314.308L454.299 280.68L389.011 318.325ZM239.813 37.6452L299.193 71.2661L364.474 33.6279L305.095 0L239.813 37.6452ZM519.227 133.23L459.848 99.6022L394.559 137.247L453.939 170.875L519.227 133.23Z" fill="url(#paint12_linear_1_835)"/>
<path d="M135.96 427.979L201.044 390.315L201.638 313.954L136.554 351.618L135.96 427.979ZM285.999 451.977L285.405 528.332L350.489 490.667L351.084 414.313L285.999 451.977ZM137.342 247.544L202.427 209.887L203.021 133.525L137.937 171.155L137.342 247.544Z" fill="url(#paint13_linear_1_835)" fill-opacity="0.3"/>
<g filter="url(#filter3_b_1_835)">
<path d="M76.6139 394.374L135.846 428.009L136.441 351.67L77.2088 318.035L76.6139 394.374ZM226.736 418.365L226.141 494.697L285.373 528.331L285.968 452L226.736 418.365ZM77.9975 213.957L137.23 247.592L137.825 171.261L78.5925 137.646L77.9975 213.957Z" fill="#D60B52" fill-opacity="0.4"/>
</g>
<path d="M77.4381 318.254L136.62 351.96L201.684 314.228L142.509 280.501L77.4381 318.254ZM291.901 381.063L226.837 418.796L286.019 452.502L351.082 414.769L291.901 381.063ZM78.8205 137.485L138.002 171.191L203.066 133.458L143.891 99.7314L78.8205 137.485Z" fill="url(#paint14_linear_1_835)"/>
<ellipse cx="413.313" cy="264.99" rx="19.3694" ry="19.3694" transform="rotate(-180 413.313 264.99)" fill="url(#paint15_linear_1_835)"/>
<ellipse cx="190.772" cy="264.99" rx="10.3029" ry="10.3029" transform="rotate(-180 190.772 264.99)" fill="url(#paint16_linear_1_835)"/>
<path d="M376.001 211.289L291.817 260.068L291.097 358.651L375.436 310.04L376.001 211.289Z" fill="url(#paint17_linear_1_835)" fill-opacity="0.7"/>
<path d="M291.347 358.651L214.001 315.369L214.776 217.145L292.073 260.496L291.347 358.651Z" fill="url(#paint18_linear_1_835)" fill-opacity="0.7"/>
<path d="M376.001 211.35L299.814 168.35L215.952 216.674L292.241 260.085L376.001 211.35Z" fill="url(#paint19_linear_1_835)" fill-opacity="0.7"/>
<path d="M354.531 223.976L353.956 297.24L291.097 333.277L291.671 260.215L354.531 223.976Z" fill="#9709BB" fill-opacity="0.5"/>
<path d="M291.491 333.277L233.519 301.073L233.622 227.88L292.073 260.185L291.491 333.277Z" fill="#6D0687"/>
<g style="mix-blend-mode:multiply">
<path d="M339.892 231.783V288.228L291.097 315.711L291.513 259.521L339.892 231.783Z" fill="#8E00FE"/>
</g>
<g style="mix-blend-mode:multiply">
<path d="M291.636 315.711L248.157 290.937L248.594 234.711L292.073 259.484L291.636 315.711Z" fill="#6D0687"/>
</g>
<g style="mix-blend-mode:multiply">
<path d="M317.373 244.47L317.446 274.014L292.073 289.362L292.278 259.262L317.373 244.47Z" fill="#8E00FE"/>
</g>
<g style="mix-blend-mode:multiply">
<path d="M291.84 289.362L268.651 276.527L268.884 247.398L292.073 260.232L291.84 289.362Z" fill="#6D0687"/>
</g>
<path d="M291.289 260.084L233.519 227.734L297.021 191.771L354.531 223.783L291.289 260.084Z" fill="#AD00FE"/>
<g style="mix-blend-mode:multiply">
<path d="M292.051 260.085L248.157 235.151L296.395 207.386L339.892 232.168L292.051 260.085Z" fill="#8E00FE"/>
</g>
<g style="mix-blend-mode:multiply">
<path d="M291.894 260.085L268.651 246.73L294.204 231.783L317.446 245.135L291.894 260.085Z" fill="#8E00FE"/>
</g>
<defs>
<filter id="filter0_b_1_835" x="348.174" y="278.153" width="140.169" height="190.447" filterUnits="userSpaceOnUse" color-interpolation-filters="sRGB">
<feFlood flood-opacity="0" result="BackgroundImageFix"/>
<feGaussianBlur in="BackgroundImage" stdDeviation="20"/>
<feComposite in2="SourceAlpha" operator="in" result="effect1_backgroundBlur_1_835"/>
<feBlend mode="normal" in="SourceGraphic" in2="effect1_backgroundBlur_1_835" result="shape"/>
</filter>
<filter id="filter1_b_1_835" x="219.813" y="17.0908" width="99.3446" height="150.447" filterUnits="userSpaceOnUse" color-interpolation-filters="sRGB">
<feFlood flood-opacity="0" result="BackgroundImageFix"/>
<feGaussianBlur in="BackgroundImage" stdDeviation="10"/>
<feComposite in2="SourceAlpha" operator="in" result="effect1_backgroundBlur_1_835"/>
<feBlend mode="normal" in="SourceGraphic" in2="effect1_backgroundBlur_1_835" result="shape"/>
</filter>
<filter id="filter2_b_1_835" x="373.944" y="116.822" width="100.169" height="150.447" filterUnits="userSpaceOnUse" color-interpolation-filters="sRGB">
<feFlood flood-opacity="0" result="BackgroundImageFix"/>
<feGaussianBlur in="BackgroundImage" stdDeviation="10"/>
<feComposite in2="SourceAlpha" operator="in" result="effect1_backgroundBlur_1_835"/>
<feBlend mode="normal" in="SourceGraphic" in2="effect1_backgroundBlur_1_835" result="shape"/>
</filter>
<filter id="filter3_b_1_835" x="72.6139" y="133.646" width="217.354" height="398.685" filterUnits="userSpaceOnUse" color-interpolation-filters="sRGB">
<feFlood flood-opacity="0" result="BackgroundImageFix"/>
<feGaussianBlur in="BackgroundImage" stdDeviation="2"/>
<feComposite in2="SourceAlpha" operator="in" result="effect1_backgroundBlur_1_835"/>
<feBlend mode="normal" in="SourceGraphic" in2="effect1_backgroundBlur_1_835" result="shape"/>
</filter>
<linearGradient id="paint0_linear_1_835" x1="316.786" y1="57.9467" x2="440.613" y2="78.636" gradientUnits="userSpaceOnUse">
<stop stop-color="#9709BB"/>
<stop offset="1" stop-color="#1D1D1D" stop-opacity="0"/>
</linearGradient>
<linearGradient id="paint1_linear_1_835" x1="469.384" y1="156.885" x2="588.899" y2="176.854" gradientUnits="userSpaceOnUse">
<stop stop-color="#8E00FE"/>
<stop offset="1" stop-color="#1D1D1D" stop-opacity="0"/>
</linearGradient>
<linearGradient id="paint2_linear_1_835" x1="461.651" y1="340.807" x2="568.493" y2="358.658" gradientUnits="userSpaceOnUse">
<stop stop-color="#8F37FF"/>
<stop offset="1" stop-color="#1D1D1D" stop-opacity="0"/>
</linearGradient>
<linearGradient id="paint3_linear_1_835" x1="151.603" y1="336.86" x2="270.171" y2="356.671" gradientUnits="userSpaceOnUse">
<stop stop-color="#B200FE"/>
<stop offset="1" stop-color="#1D1D1D" stop-opacity="0"/>
</linearGradient>
<linearGradient id="paint4_linear_1_835" x1="301.005" y1="437" x2="414.314" y2="455.932" gradientUnits="userSpaceOnUse">
<stop stop-color="#8F37FF"/>
<stop offset="1" stop-color="#1D1D1D" stop-opacity="0"/>
</linearGradient>
<linearGradient id="paint5_linear_1_835" x1="164.806" y1="142.554" x2="118.707" y2="206.097" gradientUnits="userSpaceOnUse">
<stop stop-color="#9709BB"/>
<stop offset="1" stop-opacity="0.25"/>
</linearGradient>
<radialGradient id="paint6_radial_1_835" cx="0" cy="0" r="1" gradientUnits="userSpaceOnUse" gradientTransform="translate(68.9057 290.986) rotate(73.9066) scale(24.0585)">
<stop stop-color="#E30613"/>
<stop offset="1" stop-color="#21032F"/>
</radialGradient>
<radialGradient id="paint7_radial_1_835" cx="0" cy="0" r="1" gradientUnits="userSpaceOnUse" gradientTransform="translate(207.677 283.235) rotate(73.9066) scale(62.8928 62.8928)">
<stop stop-color="#E30613"/>
<stop offset="1" stop-color="#21032F"/>
</radialGradient>
<radialGradient id="paint8_radial_1_835" cx="0" cy="0" r="1" gradientUnits="userSpaceOnUse" gradientTransform="translate(486.887 433.55) rotate(73.9066) scale(63.9238 63.9238)">
<stop stop-color="#E30613"/>
<stop offset="1" stop-color="#21032F"/>
</radialGradient>
<radialGradient id="paint9_radial_1_835" cx="0" cy="0" r="1" gradientUnits="userSpaceOnUse" gradientTransform="translate(252.195 406.593) rotate(73.9066) scale(35.5705)">
<stop stop-color="#E30613"/>
<stop offset="1" stop-color="#21032F"/>
</radialGradient>
<radialGradient id="paint10_radial_1_835" cx="0" cy="0" r="1" gradientUnits="userSpaceOnUse" gradientTransform="translate(290.107 124.707) rotate(73.9066) scale(35.5705)">
<stop stop-color="#E30613"/>
<stop offset="1" stop-color="#21032F"/>
</radialGradient>
<linearGradient id="paint11_linear_1_835" x1="-17.3475" y1="375.849" x2="640.388" y2="5.77003" gradientUnits="userSpaceOnUse">
<stop stop-color="#D60B52"/>
<stop offset="1" stop-color="#D60B52" stop-opacity="0"/>
</linearGradient>
<linearGradient id="paint12_linear_1_835" x1="645.334" y1="-31.3207" x2="62.6036" y2="393.158" gradientUnits="userSpaceOnUse">
<stop stop-color="#6D0687"/>
<stop offset="1" stop-color="#6D0687" stop-opacity="0"/>
</linearGradient>
<linearGradient id="paint13_linear_1_835" x1="243.522" y1="133.525" x2="243.522" y2="528.332" gradientUnits="userSpaceOnUse">
<stop stop-color="#D60B52"/>
<stop offset="1" stop-color="#D60B52" stop-opacity="0"/>
</linearGradient>
<linearGradient id="paint14_linear_1_835" x1="592.582" y1="-2.47308" x2="-78.3413" y2="475.58" gradientUnits="userSpaceOnUse">
<stop stop-color="#9709BB"/>
<stop offset="1" stop-color="#9709BB" stop-opacity="0"/>
</linearGradient>
<linearGradient id="paint15_linear_1_835" x1="430.782" y1="278.804" x2="391.166" y2="251.322" gradientUnits="userSpaceOnUse">
<stop stop-color="#8F37FF"/>
<stop offset="1" stop-color="#060784" stop-opacity="0"/>
</linearGradient>
<linearGradient id="paint16_linear_1_835" x1="200.064" y1="272.338" x2="178.992" y2="257.72" gradientUnits="userSpaceOnUse">
<stop stop-color="#8F37FF"/>
<stop offset="1" stop-color="#060784" stop-opacity="0"/>
</linearGradient>
<linearGradient id="paint17_linear_1_835" x1="333.652" y1="211.494" x2="333.652" y2="358.651" gradientUnits="userSpaceOnUse">
<stop stop-color="#D60B52"/>
<stop offset="1" stop-color="#D60B52" stop-opacity="0"/>
</linearGradient>
<linearGradient id="paint18_linear_1_835" x1="252.985" y1="217.145" x2="252.985" y2="358.651" gradientUnits="userSpaceOnUse">
<stop stop-color="#D60B52"/>
<stop offset="1" stop-color="#D60B52" stop-opacity="0"/>
</linearGradient>
<linearGradient id="paint19_linear_1_835" x1="436.629" y1="147.01" x2="199.993" y2="273.182" gradientUnits="userSpaceOnUse">
<stop stop-color="#D60B52"/>
<stop offset="1" stop-color="#D60B52" stop-opacity="0"/>
</linearGradient>
</defs>
</svg>
