<svg width="403" height="483" viewBox="0 0 403 483" fill="none" xmlns="http://www.w3.org/2000/svg">
<g clip-path="url(#clip0_194_693)">
<rect x="264.668" y="83.9907" width="49.7267" height="49.7267" rx="24.8634" transform="rotate(135 264.668 83.9907)" fill="url(#paint0_linear_194_693)"/>
<rect x="398.73" y="170.917" width="47.9953" height="47.9953" rx="23.9976" transform="rotate(135 398.73 170.917)" fill="url(#paint1_linear_194_693)"/>
<rect x="389.697" y="331.989" width="42.9058" height="42.9058" rx="21.4529" transform="rotate(135 389.697 331.989)" fill="url(#paint2_linear_194_693)"/>
<rect x="117.824" y="329.809" width="47.6148" height="47.6148" rx="23.8074" transform="rotate(135 117.824 329.809)" fill="url(#paint3_linear_194_693)"/>
<rect x="248.898" y="417.691" width="45.5029" height="45.5029" rx="22.7515" transform="rotate(135 248.898 417.691)" fill="url(#paint4_linear_194_693)"/>
<circle cx="85.2238" cy="173.007" r="23.6652" fill="url(#paint5_linear_194_693)"/>
<rect x="113.261" y="208.322" width="88.8357" height="88.8357" rx="44.4178" transform="rotate(90 113.261 208.322)" fill="url(#paint6_radial_194_693)" fill-opacity="0.4"/>
<rect x="359.377" y="340.119" width="90.292" height="90.292" rx="45.146" transform="rotate(90 359.377 340.119)" fill="url(#paint7_radial_194_693)" fill-opacity="0.4"/>
<rect x="167.144" y="343.759" width="50.2431" height="50.2431" rx="25.1216" transform="rotate(90 167.144 343.759)" fill="url(#paint8_radial_194_693)"/>
<rect x="200.637" y="94.7288" width="50.2431" height="50.2431" rx="25.1216" transform="rotate(90 200.637 94.7288)" fill="url(#paint9_radial_194_693)" fill-opacity="0.4"/>
<g filter="url(#filter0_b_194_693)">
<path d="M358.85 397.644L306.223 367.8L306.745 300.071L359.378 329.909L358.85 397.644Z" fill="#D60B52" fill-opacity="0.1"/>
</g>
<g filter="url(#filter1_b_194_693)">
<path d="M227.054 149.341L175.239 119.497L175.153 51.7676L227.581 81.6058L227.054 149.341Z" fill="#D60B52" fill-opacity="0.1"/>
</g>
<path d="M359.059 397.644L416.566 364.397L417.086 296.949L359.56 330.214L359.059 397.644ZM227.58 149.575L285.106 116.304L285.631 48.855L228.106 82.1202L227.58 149.575ZM421.999 136.891L364.467 170.162L363.948 237.611L421.455 204.346L421.999 136.891Z" fill="url(#paint10_linear_194_693)" fill-opacity="0.6"/>
<g filter="url(#filter2_b_194_693)">
<path d="M363.953 237.448L311.319 207.61L311.842 139.875L364.475 169.719L363.953 237.448Z" fill="#D60B52" fill-opacity="0.15"/>
</g>
<path d="M306.961 300.223L359.42 329.925L417.092 296.674L364.64 266.965L306.961 300.223ZM175.153 52.2574L227.612 81.9597L285.284 48.7083L232.826 19L175.153 52.2574ZM422 136.701L369.541 106.993L311.863 140.25L364.321 169.959L422 136.701Z" fill="url(#paint11_linear_194_693)"/>
<path d="M83.4043 397.096L140.902 363.821L141.428 296.361L83.9296 329.635L83.4043 397.096ZM215.956 418.297L215.431 485.752L272.929 452.477L273.454 385.023L215.956 418.297ZM84.626 237.691L142.124 204.423L142.649 136.962L85.1513 170.206L84.626 237.691Z" fill="url(#paint12_linear_194_693)" fill-opacity="0.3"/>
<g filter="url(#filter3_b_194_693)">
<path d="M30.9766 367.407L83.3051 397.122L83.8308 329.681L31.5022 299.966L30.9766 367.407ZM163.601 388.602L163.075 456.037L215.404 485.751L215.93 418.317L163.601 388.602ZM32.1989 208.019L84.5275 237.734L85.0531 170.299L32.7245 140.603L32.1989 208.019Z" fill="#D60B52" fill-opacity="0.4"/>
</g>
<path d="M31.7041 300.16L83.9878 329.937L141.468 296.603L89.1905 266.807L31.7041 300.16ZM221.17 355.648L163.69 388.983L215.973 418.76L273.454 385.426L221.17 355.648ZM32.9254 140.46L85.2091 170.238L142.689 136.903L90.4118 107.107L32.9254 140.46Z" fill="url(#paint13_linear_194_693)"/>
<ellipse cx="328.43" cy="253.104" rx="17.1118" ry="17.1118" transform="rotate(-180 328.43 253.104)" fill="url(#paint14_linear_194_693)"/>
<circle cx="131.828" cy="253.104" r="9.10201" transform="rotate(-180 131.828 253.104)" fill="url(#paint15_linear_194_693)"/>
<path d="M295.468 205.663L221.096 248.756L220.46 335.848L294.968 292.903L295.468 205.663Z" fill="url(#paint16_linear_194_693)" fill-opacity="0.7"/>
<path d="M220.681 335.848L152.35 297.611L153.035 210.835L221.322 249.134L220.681 335.848Z" fill="url(#paint17_linear_194_693)" fill-opacity="0.7"/>
<path d="M295.468 205.716L228.161 167.728L154.074 210.42L221.471 248.77L295.468 205.716Z" fill="url(#paint18_linear_194_693)" fill-opacity="0.7"/>
<path d="M276.5 216.871L275.993 281.595L220.46 313.432L220.967 248.886L276.5 216.871Z" fill="#9709BB" fill-opacity="0.5"/>
<path d="M220.808 313.432L169.593 284.981L169.684 220.319L221.322 248.859L220.808 313.432Z" fill="#6D0687"/>
<g style="mix-blend-mode:multiply">
<path d="M263.568 223.768V273.633L220.46 297.913L220.827 248.272L263.568 223.768Z" fill="#8E00FE"/>
</g>
<g style="mix-blend-mode:multiply">
<path d="M220.937 297.913L182.525 276.027L182.911 226.354L221.322 248.24L220.937 297.913Z" fill="#6D0687"/>
</g>
<g style="mix-blend-mode:multiply">
<path d="M243.673 234.976L243.738 261.076L221.322 274.635L221.503 248.043L243.673 234.976Z" fill="#8E00FE"/>
</g>
<g style="mix-blend-mode:multiply">
<path d="M221.117 274.635L200.631 263.296L200.837 237.562L221.323 248.901L221.117 274.635Z" fill="#6D0687"/>
</g>
<path d="M220.629 248.77L169.593 220.19L225.693 188.419L276.5 216.7L220.629 248.77Z" fill="#AD00FE"/>
<g style="mix-blend-mode:multiply">
<path d="M221.303 248.77L182.525 226.743L225.141 202.214L263.568 224.108L221.303 248.77Z" fill="#8E00FE"/>
</g>
<g style="mix-blend-mode:multiply">
<path d="M221.164 248.77L200.631 236.972L223.205 223.768L243.739 235.563L221.164 248.77Z" fill="#8E00FE"/>
</g>
<rect x="19" y="216.593" width="403" height="273.504" fill="url(#paint19_linear_194_693)"/>
</g>
<defs>
<filter id="filter0_b_194_693" x="266.223" y="260.071" width="133.156" height="177.573" filterUnits="userSpaceOnUse" color-interpolation-filters="sRGB">
<feFlood flood-opacity="0" result="BackgroundImageFix"/>
<feGaussianBlur in="BackgroundImage" stdDeviation="20"/>
<feComposite in2="SourceAlpha" operator="in" result="effect1_backgroundBlur_194_693"/>
<feBlend mode="normal" in="SourceGraphic" in2="effect1_backgroundBlur_194_693" result="shape"/>
</filter>
<filter id="filter1_b_194_693" x="155.153" y="31.7676" width="92.4277" height="137.573" filterUnits="userSpaceOnUse" color-interpolation-filters="sRGB">
<feFlood flood-opacity="0" result="BackgroundImageFix"/>
<feGaussianBlur in="BackgroundImage" stdDeviation="10"/>
<feComposite in2="SourceAlpha" operator="in" result="effect1_backgroundBlur_194_693"/>
<feBlend mode="normal" in="SourceGraphic" in2="effect1_backgroundBlur_194_693" result="shape"/>
</filter>
<filter id="filter2_b_194_693" x="291.319" y="119.875" width="93.1562" height="137.573" filterUnits="userSpaceOnUse" color-interpolation-filters="sRGB">
<feFlood flood-opacity="0" result="BackgroundImageFix"/>
<feGaussianBlur in="BackgroundImage" stdDeviation="10"/>
<feComposite in2="SourceAlpha" operator="in" result="effect1_backgroundBlur_194_693"/>
<feBlend mode="normal" in="SourceGraphic" in2="effect1_backgroundBlur_194_693" result="shape"/>
</filter>
<filter id="filter3_b_194_693" x="26.9766" y="136.603" width="192.953" height="353.148" filterUnits="userSpaceOnUse" color-interpolation-filters="sRGB">
<feFlood flood-opacity="0" result="BackgroundImageFix"/>
<feGaussianBlur in="BackgroundImage" stdDeviation="2"/>
<feComposite in2="SourceAlpha" operator="in" result="effect1_backgroundBlur_194_693"/>
<feBlend mode="normal" in="SourceGraphic" in2="effect1_backgroundBlur_194_693" result="shape"/>
</filter>
<linearGradient id="paint0_linear_194_693" x1="243.155" y1="70.1924" x2="352.549" y2="88.4703" gradientUnits="userSpaceOnUse">
<stop stop-color="#9709BB"/>
<stop offset="1" stop-color="#1D1D1D" stop-opacity="0"/>
</linearGradient>
<linearGradient id="paint1_linear_194_693" x1="377.966" y1="157.599" x2="483.551" y2="175.241" gradientUnits="userSpaceOnUse">
<stop stop-color="#8E00FE"/>
<stop offset="1" stop-color="#1D1D1D" stop-opacity="0"/>
</linearGradient>
<linearGradient id="paint2_linear_194_693" x1="371.135" y1="320.084" x2="465.524" y2="335.854" gradientUnits="userSpaceOnUse">
<stop stop-color="#8F37FF"/>
<stop offset="1" stop-color="#1D1D1D" stop-opacity="0"/>
</linearGradient>
<linearGradient id="paint3_linear_194_693" x1="97.2246" y1="316.597" x2="201.973" y2="334.099" gradientUnits="userSpaceOnUse">
<stop stop-color="#B200FE"/>
<stop offset="1" stop-color="#1D1D1D" stop-opacity="0"/>
</linearGradient>
<linearGradient id="paint4_linear_194_693" x1="229.213" y1="405.065" x2="329.315" y2="421.79" gradientUnits="userSpaceOnUse">
<stop stop-color="#8F37FF"/>
<stop offset="1" stop-color="#1D1D1D" stop-opacity="0"/>
</linearGradient>
<linearGradient id="paint5_linear_194_693" x1="108.889" y1="144.939" x2="68.1628" y2="201.075" gradientUnits="userSpaceOnUse">
<stop stop-color="#9709BB"/>
<stop offset="1" stop-opacity="0.25"/>
</linearGradient>
<radialGradient id="paint6_radial_194_693" cx="0" cy="0" r="1" gradientUnits="userSpaceOnUse" gradientTransform="translate(146.763 269.222) rotate(73.9066) scale(55.5622 55.5623)">
<stop stop-color="#E30613"/>
<stop offset="1" stop-color="#21032F"/>
</radialGradient>
<radialGradient id="paint7_radial_194_693" cx="0" cy="0" r="1" gradientUnits="userSpaceOnUse" gradientTransform="translate(393.429 402.017) rotate(73.9066) scale(56.4731 56.4731)">
<stop stop-color="#E30613"/>
<stop offset="1" stop-color="#21032F"/>
</radialGradient>
<radialGradient id="paint8_radial_194_693" cx="0" cy="0" r="1" gradientUnits="userSpaceOnUse" gradientTransform="translate(186.092 378.203) rotate(73.9066) scale(31.4246)">
<stop stop-color="#E30613"/>
<stop offset="1" stop-color="#21032F"/>
</radialGradient>
<radialGradient id="paint9_radial_194_693" cx="0" cy="0" r="1" gradientUnits="userSpaceOnUse" gradientTransform="translate(219.585 129.172) rotate(73.9066) scale(31.4246)">
<stop stop-color="#E30613"/>
<stop offset="1" stop-color="#21032F"/>
</radialGradient>
<linearGradient id="paint10_linear_194_693" x1="-52.0339" y1="351.042" x2="529.039" y2="24.0974" gradientUnits="userSpaceOnUse">
<stop stop-color="#D60B52"/>
<stop offset="1" stop-color="#D60B52" stop-opacity="0"/>
</linearGradient>
<linearGradient id="paint11_linear_194_693" x1="533.409" y1="-8.67013" x2="18.5986" y2="366.333" gradientUnits="userSpaceOnUse">
<stop stop-color="#6D0687"/>
<stop offset="1" stop-color="#6D0687" stop-opacity="0"/>
</linearGradient>
<linearGradient id="paint12_linear_194_693" x1="178.429" y1="136.962" x2="178.429" y2="485.752" gradientUnits="userSpaceOnUse">
<stop stop-color="#D60B52"/>
<stop offset="1" stop-color="#D60B52" stop-opacity="0"/>
</linearGradient>
<linearGradient id="paint13_linear_194_693" x1="486.805" y1="16.8152" x2="-105.918" y2="439.149" gradientUnits="userSpaceOnUse">
<stop stop-color="#9709BB"/>
<stop offset="1" stop-color="#9709BB" stop-opacity="0"/>
</linearGradient>
<linearGradient id="paint14_linear_194_693" x1="343.863" y1="265.308" x2="308.865" y2="241.029" gradientUnits="userSpaceOnUse">
<stop stop-color="#8F37FF"/>
<stop offset="1" stop-color="#060784" stop-opacity="0"/>
</linearGradient>
<linearGradient id="paint15_linear_194_693" x1="140.037" y1="259.596" x2="121.42" y2="246.681" gradientUnits="userSpaceOnUse">
<stop stop-color="#8F37FF"/>
<stop offset="1" stop-color="#060784" stop-opacity="0"/>
</linearGradient>
<linearGradient id="paint16_linear_194_693" x1="258.055" y1="205.844" x2="258.055" y2="335.848" gradientUnits="userSpaceOnUse">
<stop stop-color="#D60B52"/>
<stop offset="1" stop-color="#D60B52" stop-opacity="0"/>
</linearGradient>
<linearGradient id="paint17_linear_194_693" x1="186.79" y1="210.835" x2="186.79" y2="335.848" gradientUnits="userSpaceOnUse">
<stop stop-color="#D60B52"/>
<stop offset="1" stop-color="#D60B52" stop-opacity="0"/>
</linearGradient>
<linearGradient id="paint18_linear_194_693" x1="349.03" y1="148.875" x2="139.975" y2="260.341" gradientUnits="userSpaceOnUse">
<stop stop-color="#D60B52"/>
<stop offset="1" stop-color="#D60B52" stop-opacity="0"/>
</linearGradient>
<linearGradient id="paint19_linear_194_693" x1="253.244" y1="468.275" x2="276.715" y2="251.883" gradientUnits="userSpaceOnUse">
<stop/>
<stop offset="1" stop-opacity="0"/>
</linearGradient>
<clipPath id="clip0_194_693">
<rect width="403" height="483" fill="white"/>
</clipPath>
</defs>
</svg>
